<?xml version="1.0" encoding="utf-8" standalone="no"?>
<!DOCTYPE svg PUBLIC "-//W3C//DTD SVG 1.1//EN"
  "http://www.w3.org/Graphics/SVG/1.1/DTD/svg11.dtd">
<svg xmlns:xlink="http://www.w3.org/1999/xlink" width="720pt" height="360pt" viewBox="0 0 720 360" xmlns="http://www.w3.org/2000/svg" version="1.1">
 <metadata>
  <rdf:RDF xmlns:dc="http://purl.org/dc/elements/1.1/" xmlns:cc="http://creativecommons.org/ns#" xmlns:rdf="http://www.w3.org/1999/02/22-rdf-syntax-ns#">
   <cc:Work>
    <dc:type rdf:resource="http://purl.org/dc/dcmitype/StillImage"/>
    <dc:date>2023-08-11T19:32:22.164457</dc:date>
    <dc:format>image/svg+xml</dc:format>
    <dc:creator>
     <cc:Agent>
      <dc:title>Matplotlib v3.7.2, https://matplotlib.org/</dc:title>
     </cc:Agent>
    </dc:creator>
   </cc:Work>
  </rdf:RDF>
 </metadata>
 <defs>
  <style type="text/css">*{stroke-linejoin: round; stroke-linecap: butt}</style>
 </defs>
 <g id="figure_1">
  <g id="patch_1">
   <path d="M 0 360 
L 720 360 
L 720 0 
L 0 0 
z
" style="fill: #ffffff"/>
  </g>
  <g id="axes_1">
   <g id="patch_2">
    <path d="M 90 320.4 
L 648 320.4 
L 648 43.2 
L 90 43.2 
z
" style="fill: #ffffff"/>
   </g>
   <g id="matplotlib.axis_1">
    <g id="xtick_1">
     <g id="line2d_1">
      <defs>
       <path id="m64f38f7acf" d="M 0 0 
L 0 3.5 
" style="stroke: #000000; stroke-width: 0.8"/>
      </defs>
      <g>
       <use xlink:href="#m64f38f7acf" x="115.363636" y="320.4" style="stroke: #000000; stroke-width: 0.8"/>
      </g>
     </g>
     <g id="text_1">
      <!-- 0 -->
      <g transform="translate(112.182386 334.998438) scale(0.1 -0.1)">
       <defs>
        <path id="DejaVuSans-30" d="M 2034 4250 
Q 1547 4250 1301 3770 
Q 1056 3291 1056 2328 
Q 1056 1369 1301 889 
Q 1547 409 2034 409 
Q 2525 409 2770 889 
Q 3016 1369 3016 2328 
Q 3016 3291 2770 3770 
Q 2525 4250 2034 4250 
z
M 2034 4750 
Q 2819 4750 3233 4129 
Q 3647 3509 3647 2328 
Q 3647 1150 3233 529 
Q 2819 -91 2034 -91 
Q 1250 -91 836 529 
Q 422 1150 422 2328 
Q 422 3509 836 4129 
Q 1250 4750 2034 4750 
z
" transform="scale(0.015625)"/>
       </defs>
       <use xlink:href="#DejaVuSans-30"/>
      </g>
     </g>
    </g>
    <g id="xtick_2">
     <g id="line2d_2">
      <g>
       <use xlink:href="#m64f38f7acf" x="228.090909" y="320.4" style="stroke: #000000; stroke-width: 0.8"/>
      </g>
     </g>
     <g id="text_2">
      <!-- 200 -->
      <g transform="translate(218.547159 334.998438) scale(0.1 -0.1)">
       <defs>
        <path id="DejaVuSans-32" d="M 1228 531 
L 3431 531 
L 3431 0 
L 469 0 
L 469 531 
Q 828 903 1448 1529 
Q 2069 2156 2228 2338 
Q 2531 2678 2651 2914 
Q 2772 3150 2772 3378 
Q 2772 3750 2511 3984 
Q 2250 4219 1831 4219 
Q 1534 4219 1204 4116 
Q 875 4013 500 3803 
L 500 4441 
Q 881 4594 1212 4672 
Q 1544 4750 1819 4750 
Q 2544 4750 2975 4387 
Q 3406 4025 3406 3419 
Q 3406 3131 3298 2873 
Q 3191 2616 2906 2266 
Q 2828 2175 2409 1742 
Q 1991 1309 1228 531 
z
" transform="scale(0.015625)"/>
       </defs>
       <use xlink:href="#DejaVuSans-32"/>
       <use xlink:href="#DejaVuSans-30" x="63.623047"/>
       <use xlink:href="#DejaVuSans-30" x="127.246094"/>
      </g>
     </g>
    </g>
    <g id="xtick_3">
     <g id="line2d_3">
      <g>
       <use xlink:href="#m64f38f7acf" x="340.818182" y="320.4" style="stroke: #000000; stroke-width: 0.8"/>
      </g>
     </g>
     <g id="text_3">
      <!-- 400 -->
      <g transform="translate(331.274432 334.998438) scale(0.1 -0.1)">
       <defs>
        <path id="DejaVuSans-34" d="M 2419 4116 
L 825 1625 
L 2419 1625 
L 2419 4116 
z
M 2253 4666 
L 3047 4666 
L 3047 1625 
L 3713 1625 
L 3713 1100 
L 3047 1100 
L 3047 0 
L 2419 0 
L 2419 1100 
L 313 1100 
L 313 1709 
L 2253 4666 
z
" transform="scale(0.015625)"/>
       </defs>
       <use xlink:href="#DejaVuSans-34"/>
       <use xlink:href="#DejaVuSans-30" x="63.623047"/>
       <use xlink:href="#DejaVuSans-30" x="127.246094"/>
      </g>
     </g>
    </g>
    <g id="xtick_4">
     <g id="line2d_4">
      <g>
       <use xlink:href="#m64f38f7acf" x="453.545455" y="320.4" style="stroke: #000000; stroke-width: 0.8"/>
      </g>
     </g>
     <g id="text_4">
      <!-- 600 -->
      <g transform="translate(444.001705 334.998438) scale(0.1 -0.1)">
       <defs>
        <path id="DejaVuSans-36" d="M 2113 2584 
Q 1688 2584 1439 2293 
Q 1191 2003 1191 1497 
Q 1191 994 1439 701 
Q 1688 409 2113 409 
Q 2538 409 2786 701 
Q 3034 994 3034 1497 
Q 3034 2003 2786 2293 
Q 2538 2584 2113 2584 
z
M 3366 4563 
L 3366 3988 
Q 3128 4100 2886 4159 
Q 2644 4219 2406 4219 
Q 1781 4219 1451 3797 
Q 1122 3375 1075 2522 
Q 1259 2794 1537 2939 
Q 1816 3084 2150 3084 
Q 2853 3084 3261 2657 
Q 3669 2231 3669 1497 
Q 3669 778 3244 343 
Q 2819 -91 2113 -91 
Q 1303 -91 875 529 
Q 447 1150 447 2328 
Q 447 3434 972 4092 
Q 1497 4750 2381 4750 
Q 2619 4750 2861 4703 
Q 3103 4656 3366 4563 
z
" transform="scale(0.015625)"/>
       </defs>
       <use xlink:href="#DejaVuSans-36"/>
       <use xlink:href="#DejaVuSans-30" x="63.623047"/>
       <use xlink:href="#DejaVuSans-30" x="127.246094"/>
      </g>
     </g>
    </g>
    <g id="xtick_5">
     <g id="line2d_5">
      <g>
       <use xlink:href="#m64f38f7acf" x="566.272727" y="320.4" style="stroke: #000000; stroke-width: 0.8"/>
      </g>
     </g>
     <g id="text_5">
      <!-- 800 -->
      <g transform="translate(556.728977 334.998438) scale(0.1 -0.1)">
       <defs>
        <path id="DejaVuSans-38" d="M 2034 2216 
Q 1584 2216 1326 1975 
Q 1069 1734 1069 1313 
Q 1069 891 1326 650 
Q 1584 409 2034 409 
Q 2484 409 2743 651 
Q 3003 894 3003 1313 
Q 3003 1734 2745 1975 
Q 2488 2216 2034 2216 
z
M 1403 2484 
Q 997 2584 770 2862 
Q 544 3141 544 3541 
Q 544 4100 942 4425 
Q 1341 4750 2034 4750 
Q 2731 4750 3128 4425 
Q 3525 4100 3525 3541 
Q 3525 3141 3298 2862 
Q 3072 2584 2669 2484 
Q 3125 2378 3379 2068 
Q 3634 1759 3634 1313 
Q 3634 634 3220 271 
Q 2806 -91 2034 -91 
Q 1263 -91 848 271 
Q 434 634 434 1313 
Q 434 1759 690 2068 
Q 947 2378 1403 2484 
z
M 1172 3481 
Q 1172 3119 1398 2916 
Q 1625 2713 2034 2713 
Q 2441 2713 2670 2916 
Q 2900 3119 2900 3481 
Q 2900 3844 2670 4047 
Q 2441 4250 2034 4250 
Q 1625 4250 1398 4047 
Q 1172 3844 1172 3481 
z
" transform="scale(0.015625)"/>
       </defs>
       <use xlink:href="#DejaVuSans-38"/>
       <use xlink:href="#DejaVuSans-30" x="63.623047"/>
       <use xlink:href="#DejaVuSans-30" x="127.246094"/>
      </g>
     </g>
    </g>
   </g>
   <g id="matplotlib.axis_2">
    <g id="ytick_1">
     <g id="line2d_6">
      <defs>
       <path id="m21022ab9e3" d="M 0 0 
L -3.5 0 
" style="stroke: #000000; stroke-width: 0.8"/>
      </defs>
      <g>
       <use xlink:href="#m21022ab9e3" x="90" y="307.86704" style="stroke: #000000; stroke-width: 0.8"/>
      </g>
     </g>
     <g id="text_6">
      <!-- 0 -->
      <g transform="translate(76.6375 311.666259) scale(0.1 -0.1)">
       <use xlink:href="#DejaVuSans-30"/>
      </g>
     </g>
    </g>
    <g id="ytick_2">
     <g id="line2d_7">
      <g>
       <use xlink:href="#m21022ab9e3" x="90" y="267.508604" style="stroke: #000000; stroke-width: 0.8"/>
      </g>
     </g>
     <g id="text_7">
      <!-- 10 -->
      <g transform="translate(70.275 271.307823) scale(0.1 -0.1)">
       <defs>
        <path id="DejaVuSans-31" d="M 794 531 
L 1825 531 
L 1825 4091 
L 703 3866 
L 703 4441 
L 1819 4666 
L 2450 4666 
L 2450 531 
L 3481 531 
L 3481 0 
L 794 0 
L 794 531 
z
" transform="scale(0.015625)"/>
       </defs>
       <use xlink:href="#DejaVuSans-31"/>
       <use xlink:href="#DejaVuSans-30" x="63.623047"/>
      </g>
     </g>
    </g>
    <g id="ytick_3">
     <g id="line2d_8">
      <g>
       <use xlink:href="#m21022ab9e3" x="90" y="227.150168" style="stroke: #000000; stroke-width: 0.8"/>
      </g>
     </g>
     <g id="text_8">
      <!-- 20 -->
      <g transform="translate(70.275 230.949387) scale(0.1 -0.1)">
       <use xlink:href="#DejaVuSans-32"/>
       <use xlink:href="#DejaVuSans-30" x="63.623047"/>
      </g>
     </g>
    </g>
    <g id="ytick_4">
     <g id="line2d_9">
      <g>
       <use xlink:href="#m21022ab9e3" x="90" y="186.791732" style="stroke: #000000; stroke-width: 0.8"/>
      </g>
     </g>
     <g id="text_9">
      <!-- 30 -->
      <g transform="translate(70.275 190.590951) scale(0.1 -0.1)">
       <defs>
        <path id="DejaVuSans-33" d="M 2597 2516 
Q 3050 2419 3304 2112 
Q 3559 1806 3559 1356 
Q 3559 666 3084 287 
Q 2609 -91 1734 -91 
Q 1441 -91 1130 -33 
Q 819 25 488 141 
L 488 750 
Q 750 597 1062 519 
Q 1375 441 1716 441 
Q 2309 441 2620 675 
Q 2931 909 2931 1356 
Q 2931 1769 2642 2001 
Q 2353 2234 1838 2234 
L 1294 2234 
L 1294 2753 
L 1863 2753 
Q 2328 2753 2575 2939 
Q 2822 3125 2822 3475 
Q 2822 3834 2567 4026 
Q 2313 4219 1838 4219 
Q 1578 4219 1281 4162 
Q 984 4106 628 3988 
L 628 4550 
Q 988 4650 1302 4700 
Q 1616 4750 1894 4750 
Q 2613 4750 3031 4423 
Q 3450 4097 3450 3541 
Q 3450 3153 3228 2886 
Q 3006 2619 2597 2516 
z
" transform="scale(0.015625)"/>
       </defs>
       <use xlink:href="#DejaVuSans-33"/>
       <use xlink:href="#DejaVuSans-30" x="63.623047"/>
      </g>
     </g>
    </g>
    <g id="ytick_5">
     <g id="line2d_10">
      <g>
       <use xlink:href="#m21022ab9e3" x="90" y="146.433297" style="stroke: #000000; stroke-width: 0.8"/>
      </g>
     </g>
     <g id="text_10">
      <!-- 40 -->
      <g transform="translate(70.275 150.232515) scale(0.1 -0.1)">
       <use xlink:href="#DejaVuSans-34"/>
       <use xlink:href="#DejaVuSans-30" x="63.623047"/>
      </g>
     </g>
    </g>
    <g id="ytick_6">
     <g id="line2d_11">
      <g>
       <use xlink:href="#m21022ab9e3" x="90" y="106.074861" style="stroke: #000000; stroke-width: 0.8"/>
      </g>
     </g>
     <g id="text_11">
      <!-- 50 -->
      <g transform="translate(70.275 109.874079) scale(0.1 -0.1)">
       <defs>
        <path id="DejaVuSans-35" d="M 691 4666 
L 3169 4666 
L 3169 4134 
L 1269 4134 
L 1269 2991 
Q 1406 3038 1543 3061 
Q 1681 3084 1819 3084 
Q 2600 3084 3056 2656 
Q 3513 2228 3513 1497 
Q 3513 744 3044 326 
Q 2575 -91 1722 -91 
Q 1428 -91 1123 -41 
Q 819 9 494 109 
L 494 744 
Q 775 591 1075 516 
Q 1375 441 1709 441 
Q 2250 441 2565 725 
Q 2881 1009 2881 1497 
Q 2881 1984 2565 2268 
Q 2250 2553 1709 2553 
Q 1456 2553 1204 2497 
Q 953 2441 691 2322 
L 691 4666 
z
" transform="scale(0.015625)"/>
       </defs>
       <use xlink:href="#DejaVuSans-35"/>
       <use xlink:href="#DejaVuSans-30" x="63.623047"/>
      </g>
     </g>
    </g>
    <g id="ytick_7">
     <g id="line2d_12">
      <g>
       <use xlink:href="#m21022ab9e3" x="90" y="65.716425" style="stroke: #000000; stroke-width: 0.8"/>
      </g>
     </g>
     <g id="text_12">
      <!-- 60 -->
      <g transform="translate(70.275 69.515644) scale(0.1 -0.1)">
       <use xlink:href="#DejaVuSans-36"/>
       <use xlink:href="#DejaVuSans-30" x="63.623047"/>
      </g>
     </g>
    </g>
   </g>
   <g id="line2d_13">
    <path d="M 115.363636 55.8 
L 115.927273 151.38913 
L 116.490909 210.776031 
L 117.054545 224.784292 
L 117.618182 211.808685 
L 118.181818 234.528403 
L 118.745455 230.082261 
L 119.309091 208.552817 
L 119.872727 247.093465 
L 120.436364 238.805471 
L 121 220.344778 
L 121.563636 244.819158 
L 122.127273 244.620121 
L 122.690909 248.912646 
L 123.818182 237.569141 
L 124.381818 242.067967 
L 124.945455 252.683256 
L 125.509091 237.478808 
L 126.072727 243.912797 
L 126.636364 253.636142 
L 127.2 243.299916 
L 127.763636 255.759731 
L 128.327273 260.788732 
L 128.890909 235.84228 
L 129.454545 257.983953 
L 130.018182 249.78712 
L 130.581818 258.252528 
L 131.145455 252.851467 
L 131.709091 241.559676 
L 132.272727 258.396457 
L 132.836364 262.688555 
L 133.963636 236.567694 
L 134.527273 254.792323 
L 135.090909 259.700219 
L 135.654545 261.088464 
L 136.218182 255.983509 
L 136.781818 262.794388 
L 137.909091 246.215366 
L 138.472727 254.573379 
L 139.036364 250.190402 
L 139.6 257.298017 
L 140.163636 256.286043 
L 140.727273 240.516837 
L 141.290909 256.525328 
L 141.854545 259.80069 
L 142.418182 252.367771 
L 142.981818 257.709651 
L 143.545455 259.937129 
L 144.109091 260.913478 
L 144.672727 252.671132 
L 145.236364 247.982357 
L 146.363636 258.128852 
L 146.927273 257.982714 
L 147.490909 235.601509 
L 148.054545 252.972034 
L 148.618182 254.555983 
L 149.181818 251.029896 
L 149.745455 244.199238 
L 150.309091 258.58663 
L 150.872727 262.530389 
L 151.436364 255.97222 
L 152 261.590058 
L 152.563636 260.008926 
L 153.127273 250.005313 
L 153.690909 248.831593 
L 154.254545 260.308523 
L 154.818182 258.522161 
L 155.381818 257.20636 
L 155.945455 215.642532 
L 156.509091 255.92623 
L 157.072727 257.095974 
L 158.2 249.416226 
L 158.763636 256.716182 
L 159.327273 260.211524 
L 159.890909 254.555251 
L 160.454545 260.419402 
L 161.018182 256.770952 
L 161.581818 260.369085 
L 162.145455 249.0535 
L 162.709091 267.657691 
L 163.272727 260.120155 
L 163.836364 262.42025 
L 164.963636 242.999642 
L 165.527273 250.359063 
L 166.090909 266.158178 
L 166.654545 264.904625 
L 167.218182 258.502671 
L 167.781818 263.292733 
L 168.345455 246.305603 
L 168.909091 262.253281 
L 169.472727 263.024358 
L 170.036364 256.782733 
L 170.6 256.371923 
L 171.163636 263.89138 
L 171.727273 263.599631 
L 172.290909 260.46045 
L 172.854545 264.10629 
L 173.418182 254.781535 
L 173.981818 267.243413 
L 174.545455 262.128054 
L 175.109091 263.267935 
L 175.672727 253.253406 
L 176.236364 258.443525 
L 176.8 262.375133 
L 177.363636 261.171315 
L 177.927273 254.185451 
L 178.490909 252.352803 
L 179.054545 251.540061 
L 179.618182 251.302982 
L 180.181818 261.205805 
L 180.745455 260.990194 
L 181.309091 258.632994 
L 181.872727 241.351952 
L 182.436364 258.605482 
L 183 248.70451 
L 183.563636 253.173711 
L 184.127273 248.453109 
L 184.690909 263.898331 
L 185.254545 256.335639 
L 185.818182 251.937227 
L 186.381818 249.246768 
L 186.945455 266.74728 
L 187.509091 265.567818 
L 188.072727 253.336473 
L 188.636364 248.501063 
L 189.2 265.910811 
L 189.763636 262.146914 
L 190.327273 270.203506 
L 190.890909 259.693922 
L 191.454545 261.858271 
L 192.018182 259.795614 
L 192.581818 266.453826 
L 193.145455 258.466641 
L 193.709091 262.922786 
L 194.272727 261.197326 
L 194.836364 262.549676 
L 195.4 257.850074 
L 195.963636 252.213989 
L 196.527273 273.893681 
L 197.090909 243.966366 
L 197.654545 267.315521 
L 198.218182 268.539919 
L 198.781818 267.304806 
L 199.345455 255.137822 
L 199.909091 267.641198 
L 200.472727 266.21192 
L 201.036364 265.884046 
L 201.6 268.916117 
L 202.163636 266.754366 
L 202.727273 264.12826 
L 203.290909 264.592054 
L 203.854545 267.194489 
L 204.418182 267.123073 
L 204.981818 272.104183 
L 206.109091 255.435121 
L 206.672727 271.392829 
L 207.236364 266.643403 
L 207.8 269.871778 
L 208.363636 267.179102 
L 208.927273 267.737455 
L 209.490909 262.868583 
L 210.054545 252.260245 
L 210.618182 267.079835 
L 211.181818 260.784152 
L 211.745455 273.188151 
L 212.309091 271.658956 
L 212.872727 268.963069 
L 213.436364 264.990432 
L 214 271.174586 
L 214.563636 271.922162 
L 215.127273 265.094883 
L 215.690909 256.828616 
L 216.254545 254.701955 
L 216.818182 265.181498 
L 217.381818 262.920843 
L 217.945455 273.815172 
L 218.509091 268.453008 
L 219.072727 272.527052 
L 220.763636 263.402688 
L 221.327273 266.723109 
L 221.890909 268.236374 
L 222.454545 271.723609 
L 223.018182 265.872099 
L 223.581818 274.008355 
L 224.145455 269.102068 
L 224.709091 274.384964 
L 225.272727 260.865398 
L 225.836364 272.524839 
L 226.4 268.640606 
L 226.963636 272.691703 
L 227.527273 268.046682 
L 228.090909 273.758512 
L 228.654545 258.305931 
L 229.218182 262.726394 
L 230.345455 270.104004 
L 230.909091 266.251949 
L 231.472727 274.447454 
L 232.036364 270.919009 
L 232.6 275.382767 
L 233.163636 268.576672 
L 233.727273 269.59892 
L 234.290909 269.933892 
L 234.854545 271.796673 
L 235.418182 270.157689 
L 235.981818 272.420442 
L 237.109091 263.428745 
L 237.672727 273.433856 
L 238.236364 274.259206 
L 238.8 265.791792 
L 239.363636 271.073534 
L 239.927273 270.973901 
L 240.490909 272.447969 
L 241.618182 265.655726 
L 242.181818 275.637384 
L 242.745455 269.666144 
L 243.309091 276.577211 
L 243.872727 275.017631 
L 244.436364 273.895109 
L 245 274.450079 
L 245.563636 260.538682 
L 246.127273 265.876683 
L 246.690909 275.533539 
L 247.254545 268.880984 
L 247.818182 273.477687 
L 248.381818 272.187334 
L 248.945455 271.699623 
L 249.509091 270.251578 
L 250.072727 273.769924 
L 250.636364 266.784726 
L 251.763636 277.520764 
L 252.327273 276.25889 
L 252.890909 271.774819 
L 253.454545 275.402027 
L 254.018182 273.788703 
L 254.581818 272.882299 
L 255.145455 272.263423 
L 255.709091 275.228689 
L 256.272727 271.851993 
L 256.836364 272.89893 
L 257.4 277.802562 
L 257.963636 267.70743 
L 258.527273 276.096561 
L 259.090909 274.898462 
L 259.654545 276.427763 
L 260.218182 274.716187 
L 260.781818 276.246883 
L 261.345455 276.417023 
L 261.909091 274.853353 
L 263.036364 270.264941 
L 263.6 268.3502 
L 264.163636 275.337681 
L 264.727273 278.636106 
L 265.290909 273.944906 
L 265.854545 275.688768 
L 266.418182 274.312139 
L 266.981818 271.665268 
L 267.545455 276.578614 
L 268.109091 270.62562 
L 268.672727 272.598598 
L 269.236364 276.365351 
L 269.8 267.267915 
L 270.363636 266.614109 
L 270.927273 274.708081 
L 271.490909 278.523188 
L 272.054545 272.401409 
L 272.618182 277.634953 
L 273.181818 265.931133 
L 273.745455 280.589881 
L 274.309091 281.719623 
L 274.872727 275.219109 
L 275.436364 274.411109 
L 276 278.706954 
L 276.563636 280.331238 
L 277.127273 276.640516 
L 277.690909 275.066716 
L 278.254545 280.660325 
L 278.818182 279.360862 
L 279.381818 280.625021 
L 279.945455 275.269556 
L 280.509091 278.325938 
L 281.072727 276.222943 
L 281.636364 280.923234 
L 282.2 273.87207 
L 282.763636 277.649142 
L 283.327273 274.501258 
L 283.890909 281.344132 
L 284.454545 276.976021 
L 285.018182 275.142628 
L 285.581818 273.799568 
L 286.145455 282.384879 
L 286.709091 279.258815 
L 287.272727 272.834735 
L 287.836364 276.506559 
L 288.963636 271.313315 
L 289.527273 275.871346 
L 290.090909 269.94045 
L 290.654545 279.899386 
L 291.218182 276.966656 
L 291.781818 274.990989 
L 292.345455 278.63591 
L 292.909091 278.855848 
L 293.472727 281.323483 
L 294.036364 278.430183 
L 294.6 276.199143 
L 295.163636 282.456663 
L 295.727273 276.771735 
L 296.290909 276.136355 
L 296.854545 279.396485 
L 297.418182 278.215325 
L 297.981818 282.288601 
L 298.545455 278.738573 
L 299.109091 275.921214 
L 299.672727 279.291055 
L 300.236364 266.805221 
L 301.927273 280.353983 
L 302.490909 283.824653 
L 303.054545 276.450458 
L 303.618182 280.676865 
L 304.181818 279.708783 
L 304.745455 281.468613 
L 305.309091 284.203011 
L 305.872727 282.592016 
L 306.436364 283.076967 
L 307 279.239703 
L 307.563636 279.471981 
L 308.127273 281.577601 
L 308.690909 282.645548 
L 309.254545 269.291279 
L 309.818182 284.245545 
L 310.381818 280.452662 
L 310.945455 275.673652 
L 311.509091 279.345135 
L 312.636364 280.308312 
L 313.2 275.695181 
L 313.763636 279.049389 
L 314.327273 283.17785 
L 314.890909 281.452536 
L 315.454545 280.671144 
L 316.018182 280.181255 
L 316.581818 277.994246 
L 317.145455 280.178834 
L 317.709091 279.013171 
L 318.272727 281.439502 
L 318.836364 276.552798 
L 319.4 283.308077 
L 319.963636 279.960414 
L 320.527273 281.487719 
L 321.090909 282.009979 
L 321.654545 281.219525 
L 322.218182 280.005771 
L 322.781818 283.914488 
L 323.345455 282.248207 
L 323.909091 282.165753 
L 324.472727 279.746316 
L 325.036364 279.130551 
L 325.6 284.015477 
L 326.163636 283.137647 
L 326.727273 279.771037 
L 327.290909 281.608452 
L 327.854545 284.805865 
L 328.418182 284.728661 
L 328.981818 279.029239 
L 329.545455 280.405567 
L 330.109091 282.731284 
L 330.672727 279.506731 
L 331.236364 283.252655 
L 331.8 278.432368 
L 332.363636 280.891883 
L 332.927273 279.795216 
L 333.490909 284.013242 
L 334.054545 282.846235 
L 334.618182 277.990443 
L 335.181818 282.373344 
L 335.745455 282.835239 
L 336.309091 282.590215 
L 336.872727 281.602244 
L 337.436364 272.972968 
L 338 283.181861 
L 338.563636 282.319423 
L 339.127273 283.346162 
L 339.690909 282.695659 
L 340.254545 278.158237 
L 340.818182 281.279215 
L 341.381818 275.816824 
L 341.945455 275.257813 
L 342.509091 277.004879 
L 343.072727 281.282975 
L 343.636364 282.198272 
L 344.2 281.45274 
L 345.327273 284.584447 
L 346.454545 278.586752 
L 347.018182 280.057883 
L 348.145455 287.014657 
L 349.272727 282.571015 
L 349.836364 282.490523 
L 350.4 279.673456 
L 350.963636 286.001949 
L 351.527273 282.623246 
L 352.090909 284.123697 
L 352.654545 280.969469 
L 353.218182 281.713113 
L 353.781818 285.529584 
L 354.345455 284.47099 
L 354.909091 281.415999 
L 355.472727 282.85995 
L 356.036364 285.67505 
L 356.6 285.317661 
L 357.163636 283.016713 
L 357.727273 279.732106 
L 358.290909 281.110253 
L 358.854545 280.678403 
L 359.418182 278.354461 
L 359.981818 284.603381 
L 360.545455 284.268941 
L 361.109091 281.3498 
L 361.672727 282.468744 
L 362.236364 280.952755 
L 362.8 280.758771 
L 363.363636 283.043359 
L 363.927273 282.633652 
L 364.490909 282.546272 
L 365.054545 281.204131 
L 365.618182 281.241712 
L 366.181818 282.11708 
L 366.745455 284.727106 
L 367.309091 282.559851 
L 367.872727 283.528826 
L 368.436364 281.200912 
L 369 283.451252 
L 369.563636 280.853687 
L 370.127273 281.930067 
L 370.690909 283.803332 
L 371.254545 285.102522 
L 371.818182 282.792191 
L 372.381818 286.509799 
L 372.945455 276.785767 
L 373.509091 285.349843 
L 374.072727 286.503628 
L 374.636364 285.502114 
L 375.2 285.400075 
L 375.763636 285.788633 
L 376.327273 281.138487 
L 376.890909 289.009555 
L 377.454545 284.606224 
L 378.018182 285.358133 
L 378.581818 284.378387 
L 379.145455 283.807013 
L 379.709091 283.603487 
L 380.836364 286.153118 
L 381.4 279.247965 
L 381.963636 285.216824 
L 382.527273 280.390245 
L 383.090909 287.349968 
L 383.654545 287.399039 
L 384.218182 283.608101 
L 384.781818 286.717248 
L 385.345455 283.424937 
L 386.472727 286.794509 
L 387.036364 280.374811 
L 387.6 287.497686 
L 388.163636 284.035137 
L 388.727273 275.77013 
L 389.290909 280.713391 
L 389.854545 281.895296 
L 390.418182 284.467408 
L 390.981818 286.385557 
L 392.109091 286.064686 
L 392.672727 284.664509 
L 393.236364 285.771328 
L 393.8 286.250537 
L 394.363636 285.338595 
L 395.490909 279.17635 
L 396.054545 282.88766 
L 396.618182 287.600158 
L 397.181818 283.039254 
L 397.745455 279.967919 
L 398.309091 280.642372 
L 398.872727 283.517172 
L 399.436364 283.319774 
L 400 282.273968 
L 400.563636 282.165793 
L 401.690909 285.747111 
L 402.254545 284.218647 
L 402.818182 288.186385 
L 403.381818 285.265402 
L 403.945455 286.878512 
L 404.509091 286.712703 
L 405.072727 287.500312 
L 405.636364 283.404973 
L 406.763636 286.494454 
L 407.327273 282.245059 
L 407.890909 284.960334 
L 408.454545 286.605796 
L 409.581818 282.524364 
L 410.145455 284.789831 
L 410.709091 288.042183 
L 411.272727 287.227789 
L 411.836364 281.651819 
L 412.4 286.620882 
L 412.963636 285.194629 
L 413.527273 286.900005 
L 414.090909 286.16319 
L 414.654545 288.744784 
L 415.218182 284.818266 
L 415.781818 284.750769 
L 416.345455 286.120818 
L 417.472727 289.847256 
L 418.036364 275.95172 
L 418.6 282.155257 
L 419.163636 277.799286 
L 419.727273 277.480553 
L 420.290909 272.08012 
L 420.854545 270.117722 
L 421.418182 284.624785 
L 421.981818 280.816508 
L 423.109091 288.863711 
L 423.672727 285.446471 
L 424.236364 284.093351 
L 424.8 284.912287 
L 425.363636 282.453734 
L 425.927273 283.858623 
L 426.490909 281.144928 
L 427.054545 285.355505 
L 427.618182 284.530351 
L 428.181818 279.961501 
L 428.745455 280.1885 
L 429.309091 286.281849 
L 429.872727 283.450719 
L 430.436364 284.077016 
L 431 285.438094 
L 431.563636 289.071408 
L 432.127273 283.591517 
L 432.690909 286.277173 
L 433.254545 284.636749 
L 433.818182 279.519447 
L 434.381818 285.203661 
L 434.945455 284.028386 
L 435.509091 281.563035 
L 436.072727 284.995109 
L 436.636364 283.359487 
L 437.2 284.927332 
L 437.763636 282.767215 
L 438.327273 279.301206 
L 438.890909 285.487972 
L 439.454545 282.467926 
L 440.018182 282.740866 
L 440.581818 279.930109 
L 441.145455 278.469661 
L 441.709091 283.114966 
L 442.272727 276.801803 
L 442.836364 280.909132 
L 443.4 282.861407 
L 443.963636 285.832021 
L 444.527273 283.020341 
L 445.090909 281.202976 
L 445.654545 277.912553 
L 446.218182 283.129784 
L 446.781818 286.862867 
L 447.345455 275.917754 
L 447.909091 279.578849 
L 448.472727 277.185594 
L 449.036364 279.988285 
L 449.6 279.218261 
L 450.163636 280.288619 
L 450.727273 282.133407 
L 451.290909 288.398183 
L 451.854545 284.265656 
L 452.418182 286.818376 
L 452.981818 286.373782 
L 453.545455 280.332339 
L 454.109091 281.202014 
L 454.672727 282.41721 
L 455.236364 284.27406 
L 455.8 282.277195 
L 456.363636 281.615832 
L 456.927273 283.085577 
L 457.490909 286.564142 
L 458.054545 284.775756 
L 458.618182 283.531911 
L 459.181818 281.051463 
L 459.745455 282.736857 
L 460.309091 280.442313 
L 460.872727 282.908533 
L 461.436364 281.89005 
L 462 282.021535 
L 462.563636 281.217219 
L 463.127273 278.126103 
L 463.690909 278.084898 
L 464.254545 285.097453 
L 464.818182 273.78741 
L 465.381818 284.735754 
L 465.945455 286.888246 
L 466.509091 286.275647 
L 467.072727 284.025828 
L 467.636364 282.900237 
L 468.2 285.08901 
L 468.763636 286.54151 
L 469.327273 281.744373 
L 469.890909 281.730348 
L 470.454545 280.307579 
L 471.018182 286.912612 
L 471.581818 277.10643 
L 472.145455 270.901539 
L 472.709091 276.787793 
L 473.272727 274.172175 
L 473.836364 278.489348 
L 474.4 278.229178 
L 475.527273 280.231987 
L 476.090909 274.476336 
L 477.218182 279.830244 
L 477.781818 279.269459 
L 478.345455 261.748308 
L 479.472727 274.61525 
L 480.036364 277.681255 
L 480.6 273.492963 
L 481.163636 279.013133 
L 481.727273 272.495341 
L 482.290909 272.070936 
L 482.854545 272.332675 
L 483.418182 269.132162 
L 483.981818 269.323321 
L 484.545455 274.149101 
L 485.109091 271.520823 
L 486.236364 273.038464 
L 486.8 272.885694 
L 487.363636 274.086306 
L 487.927273 273.310145 
L 488.490909 267.814983 
L 489.054545 271.449561 
L 489.618182 266.71679 
L 490.181818 267.347521 
L 490.745455 274.71713 
L 491.309091 274.2674 
L 491.872727 272.462852 
L 492.436364 272.294522 
L 493 274.318182 
L 493.563636 269.856783 
L 494.127273 272.362266 
L 494.690909 270.413843 
L 495.254545 272.74016 
L 495.818182 267.233344 
L 496.381818 280.878069 
L 497.509091 286.526532 
L 498.072727 287.218522 
L 498.636364 285.709096 
L 499.2 285.706517 
L 499.763636 285.841228 
L 500.327273 288.278446 
L 500.890909 288.249364 
L 501.454545 285.733902 
L 502.018182 282.410874 
L 502.581818 284.417806 
L 503.145455 276.199903 
L 503.709091 276.994605 
L 504.272727 281.956528 
L 504.836364 279.384994 
L 505.4 278.570987 
L 505.963636 274.034904 
L 506.527273 271.6999 
L 507.090909 270.532677 
L 507.654545 273.081183 
L 508.218182 270.636882 
L 508.781818 272.125783 
L 509.345455 271.86596 
L 509.909091 272.194839 
L 510.472727 256.220927 
L 511.036364 255.29944 
L 511.6 260.042273 
L 512.163636 268.909119 
L 512.727273 281.372012 
L 513.290909 262.34363 
L 513.854545 283.520684 
L 514.418182 286.233754 
L 514.981818 286.297439 
L 515.545455 282.953309 
L 516.109091 277.578986 
L 516.672727 245.195987 
L 517.236364 268.002031 
L 517.8 261.461397 
L 518.363636 270.551514 
L 518.927273 271.469941 
L 519.490909 271.628989 
L 520.054545 272.091689 
L 520.618182 278.161518 
L 521.181818 276.25206 
L 521.745455 270.068433 
L 522.309091 266.898099 
L 522.872727 271.309254 
L 523.436364 267.84744 
L 524 281.252846 
L 524.563636 279.329622 
L 525.127273 278.66631 
L 525.690909 276.987561 
L 526.254545 269.335583 
L 526.818182 275.156649 
L 527.381818 276.752422 
L 527.945455 274.637685 
L 528.509091 267.620268 
L 529.072727 270.141831 
L 529.636364 275.659802 
L 530.2 269.839248 
L 530.763636 279.272014 
L 531.327273 278.115391 
L 531.890909 265.923089 
L 532.454545 271.842582 
L 533.018182 272.603798 
L 533.581818 277.367987 
L 534.145455 277.173784 
L 534.709091 271.683912 
L 535.272727 267.291112 
L 535.836364 278.211521 
L 536.4 275.984124 
L 536.963636 277.288425 
L 537.527273 282.306564 
L 538.090909 277.64063 
L 538.654545 276.336654 
L 539.218182 277.602499 
L 539.781818 271.343837 
L 540.345455 279.067978 
L 541.472727 275.013509 
L 542.036364 273.381418 
L 542.6 272.78219 
L 543.163636 269.755712 
L 543.727273 271.989367 
L 544.290909 269.107329 
L 544.854545 274.873702 
L 545.418182 261.564301 
L 545.981818 272.634197 
L 546.545455 271.410545 
L 547.109091 267.536035 
L 547.672727 266.569855 
L 548.236364 266.636625 
L 548.8 273.002515 
L 549.363636 269.736852 
L 549.927273 268.963412 
L 550.490909 280.955218 
L 551.054545 276.471402 
L 551.618182 270.013179 
L 552.181818 275.069961 
L 552.745455 276.1794 
L 553.309091 280.717712 
L 553.872727 274.831423 
L 554.436364 271.07515 
L 555 275.246651 
L 555.563636 273.707561 
L 556.127273 274.773131 
L 556.690909 272.184863 
L 557.254545 266.099244 
L 558.381818 283.617512 
L 558.945455 279.87675 
L 559.509091 281.939246 
L 560.072727 279.309208 
L 560.636364 278.219973 
L 561.2 278.048779 
L 561.763636 269.964329 
L 562.327273 268.468161 
L 562.890909 272.442934 
L 563.454545 265.449792 
L 564.018182 279.797517 
L 564.581818 278.012792 
L 565.145455 278.531465 
L 565.709091 281.713482 
L 566.272727 279.493521 
L 566.836364 271.272059 
L 567.4 275.555127 
L 567.963636 285.573829 
L 569.090909 283.037924 
L 569.654545 282.77642 
L 570.218182 277.793323 
L 570.781818 283.910092 
L 571.345455 288.634368 
L 571.909091 284.66648 
L 572.472727 286.597321 
L 573.036364 287.880068 
L 573.6 287.233931 
L 574.163636 287.482892 
L 574.727273 287.202517 
L 575.290909 289.643315 
L 575.854545 283.898451 
L 576.418182 287.413842 
L 576.981818 284.338659 
L 577.545455 288.807369 
L 578.109091 288.38242 
L 579.236364 285.915963 
L 579.8 288.337017 
L 580.363636 289.562038 
L 580.927273 285.017542 
L 581.490909 288.362802 
L 582.054545 286.463796 
L 582.618182 288.300372 
L 583.181818 287.900767 
L 583.745455 288.869404 
L 584.309091 287.989421 
L 584.872727 287.924561 
L 585.436364 285.911914 
L 586 288.335491 
L 586.563636 288.052615 
L 587.127273 288.808714 
L 587.690909 288.356642 
L 588.254545 285.015441 
L 588.818182 283.651453 
L 589.381818 285.419981 
L 589.945455 285.835493 
L 590.509091 284.720793 
L 591.072727 282.385087 
L 591.636364 284.55942 
L 592.2 282.782601 
L 592.763636 281.430239 
L 593.327273 284.636149 
L 593.890909 281.103864 
L 594.454545 279.306541 
L 595.018182 276.914744 
L 595.581818 282.088687 
L 596.145455 279.476147 
L 596.709091 278.2146 
L 597.272727 272.996099 
L 597.836364 269.380561 
L 598.963636 278.275354 
L 599.527273 274.015949 
L 600.090909 275.313514 
L 600.654545 276.031107 
L 601.218182 278.322877 
L 601.781818 275.458744 
L 602.345455 264.676336 
L 602.909091 278.972148 
L 603.472727 266.581155 
L 604.036364 272.873528 
L 604.6 272.388122 
L 605.727273 275.110605 
L 606.290909 284.259499 
L 606.854545 284.377679 
L 607.418182 287.399022 
L 607.981818 288.706186 
L 608.545455 288.685029 
L 609.109091 288.374634 
L 609.672727 285.903828 
L 610.236364 289.227705 
L 610.8 285.997712 
L 611.363636 289.192552 
L 611.927273 290.458583 
L 612.490909 289.186191 
L 613.054545 290.983749 
L 613.618182 288.874238 
L 614.181818 290.171813 
L 614.745455 290.465507 
L 615.309091 288.178799 
L 615.872727 287.622366 
L 616.436364 290.345807 
L 617 289.012932 
L 617.563636 290.201516 
L 618.127273 290.135702 
L 618.690909 291.284126 
L 619.254545 289.046273 
L 619.818182 290.779586 
L 620.381818 289.477935 
L 620.945455 292.667809 
L 621.509091 290.634433 
L 622.072727 290.164278 
L 622.636364 291.41798 
L 622.636364 291.41798 
" clip-path="url(#p7a622cc53c)" style="fill: none; stroke: #1f77b4; stroke-width: 1.5; stroke-linecap: square"/>
   </g>
   <g id="line2d_14">
    <path d="M 115.363636 304.987637 
L 116.490909 305.183615 
L 117.054545 305.375016 
L 117.618182 305.326308 
L 118.745455 305.694648 
L 119.309091 305.387539 
L 121 306.034771 
L 121.563636 305.855466 
L 122.127273 305.805679 
L 123.254545 305.199917 
L 123.818182 305.586996 
L 124.381818 305.656704 
L 124.945455 304.896532 
L 125.509091 306.13252 
L 126.072727 305.626132 
L 126.636364 304.695273 
L 127.2 305.928456 
L 127.763636 305.142921 
L 128.327273 305.384081 
L 128.890909 304.928171 
L 130.018182 305.986056 
L 130.581818 304.894365 
L 131.145455 305.76127 
L 131.709091 305.498833 
L 132.272727 305.045668 
L 132.836364 305.491524 
L 133.4 305.62187 
L 133.963636 306.288567 
L 134.527273 305.637364 
L 135.090909 305.340692 
L 135.654545 305.685835 
L 136.781818 304.981663 
L 137.345455 305.975684 
L 138.472727 305.569249 
L 139.036364 306.056547 
L 139.6 306.313978 
L 140.727273 306.432665 
L 141.290909 305.313424 
L 141.854545 305.501904 
L 142.418182 305.547281 
L 142.981818 305.743503 
L 143.545455 306.278671 
L 144.109091 306.2249 
L 144.672727 305.586201 
L 146.363636 306.239827 
L 146.927273 306.23256 
L 147.490909 306.353246 
L 148.054545 305.878904 
L 148.618182 305.72689 
L 149.181818 306.54095 
L 149.745455 306.534394 
L 150.309091 305.064611 
L 150.872727 305.45943 
L 151.436364 305.24352 
L 152 305.664473 
L 152.563636 305.717277 
L 153.127273 305.508569 
L 153.690909 304.845336 
L 154.254545 305.993095 
L 155.381818 305.887679 
L 155.945455 306.304738 
L 156.509091 306.251578 
L 157.072727 305.274941 
L 157.636364 305.800078 
L 158.2 306.784567 
L 158.763636 305.735554 
L 159.327273 305.969974 
L 159.890909 305.883225 
L 160.454545 305.30624 
L 161.018182 306.175165 
L 161.581818 304.983776 
L 162.145455 305.777976 
L 162.709091 304.539831 
L 163.272727 305.644319 
L 163.836364 303.904228 
L 164.4 305.741736 
L 164.963636 306.210355 
L 165.527273 305.913776 
L 166.090909 305.168209 
L 166.654545 305.69832 
L 167.218182 306.05977 
L 167.781818 305.589465 
L 168.345455 306.098053 
L 168.909091 305.742002 
L 169.472727 305.928715 
L 170.036364 305.67367 
L 170.6 305.561874 
L 171.163636 305.814511 
L 172.290909 305.480462 
L 173.418182 305.750505 
L 173.981818 305.863344 
L 174.545455 305.684629 
L 175.109091 305.970528 
L 175.672727 306.045672 
L 176.236364 305.197853 
L 176.8 305.394046 
L 177.363636 305.272876 
L 178.490909 305.998744 
L 179.054545 305.659936 
L 179.618182 305.622311 
L 180.181818 305.373813 
L 180.745455 305.71089 
L 181.309091 304.883997 
L 181.872727 305.70595 
L 182.436364 305.653462 
L 183 305.783582 
L 183.563636 305.635513 
L 184.127273 305.868508 
L 184.690909 305.189813 
L 185.254545 305.999287 
L 185.818182 306.4459 
L 186.381818 306.254511 
L 186.945455 304.945049 
L 188.072727 305.82198 
L 188.636364 305.752945 
L 189.763636 306.244471 
L 190.327273 305.498381 
L 191.454545 305.73063 
L 192.018182 305.880276 
L 192.581818 305.648163 
L 193.145455 305.284136 
L 193.709091 305.848464 
L 194.272727 304.791626 
L 194.836364 305.464349 
L 195.4 305.111337 
L 195.963636 305.415479 
L 196.527273 305.146755 
L 197.090909 306.095007 
L 197.654545 305.810409 
L 198.218182 304.58647 
L 199.345455 305.129722 
L 199.909091 305.009596 
L 200.472727 304.626799 
L 201.036364 305.686172 
L 201.6 305.495236 
L 202.163636 305.922594 
L 202.727273 305.141624 
L 203.290909 305.991398 
L 203.854545 305.152527 
L 204.418182 305.639247 
L 204.981818 305.073307 
L 205.545455 305.669497 
L 206.109091 306.02783 
L 206.672727 305.712571 
L 207.236364 305.029951 
L 207.8 305.018425 
L 208.363636 305.676326 
L 209.490909 305.741097 
L 210.054545 306.176038 
L 210.618182 305.904397 
L 211.181818 305.853872 
L 211.745455 305.479088 
L 212.309091 305.631243 
L 212.872727 304.936413 
L 213.436364 305.478187 
L 214 305.588483 
L 214.563636 305.904162 
L 215.127273 305.812131 
L 215.690909 306.406827 
L 216.254545 306.025485 
L 216.818182 305.066159 
L 217.381818 305.953719 
L 217.945455 305.323042 
L 218.509091 305.830701 
L 219.072727 305.170445 
L 219.636364 305.575755 
L 220.2 305.433599 
L 220.763636 305.725251 
L 221.327273 305.532153 
L 221.890909 305.79698 
L 222.454545 305.672219 
L 223.018182 305.406869 
L 223.581818 304.982537 
L 224.145455 304.8006 
L 224.709091 305.234922 
L 225.836364 305.572299 
L 226.4 305.082659 
L 226.963636 305.672683 
L 227.527273 305.722092 
L 228.090909 304.997434 
L 228.654545 306.431289 
L 229.218182 305.302581 
L 229.781818 305.634626 
L 230.345455 305.651528 
L 230.909091 305.441805 
L 231.472727 304.873861 
L 232.036364 305.227478 
L 232.6 304.77735 
L 233.163636 305.574027 
L 233.727273 304.883219 
L 234.290909 306.053127 
L 234.854545 305.207294 
L 235.418182 305.426692 
L 235.981818 305.473345 
L 236.545455 306.076105 
L 237.672727 305.016106 
L 238.236364 305.073645 
L 238.8 305.415886 
L 239.363636 305.621046 
L 239.927273 306.02337 
L 241.054545 305.184815 
L 241.618182 305.843533 
L 242.181818 305.178522 
L 242.745455 305.586714 
L 243.309091 305.402879 
L 243.872727 305.780939 
L 244.436364 304.988902 
L 245 305.202218 
L 245.563636 305.643494 
L 246.127273 305.885753 
L 246.690909 305.194707 
L 247.254545 305.747361 
L 247.818182 305.402719 
L 248.381818 305.677205 
L 250.072727 305.448604 
L 251.2 305.24073 
L 251.763636 304.899397 
L 252.327273 305.599756 
L 252.890909 305.556578 
L 253.454545 304.965419 
L 254.018182 305.366261 
L 255.145455 305.481113 
L 255.709091 305.836606 
L 256.272727 305.889852 
L 256.836364 305.794667 
L 257.4 304.831672 
L 257.963636 305.773889 
L 258.527273 305.372564 
L 259.090909 305.116537 
L 259.654545 305.598555 
L 260.218182 305.372187 
L 261.345455 305.267061 
L 261.909091 305.541879 
L 262.472727 305.525918 
L 263.036364 305.761745 
L 263.6 305.036978 
L 264.163636 305.503035 
L 264.727273 304.891602 
L 265.290909 305.619396 
L 265.854545 305.048945 
L 266.418182 305.511243 
L 266.981818 305.316216 
L 267.545455 305.502652 
L 268.109091 305.526928 
L 268.672727 305.69775 
L 269.236364 305.250624 
L 269.8 305.775133 
L 270.363636 305.506593 
L 270.927273 305.113318 
L 271.490909 305.604587 
L 272.054545 305.830599 
L 272.618182 305.025011 
L 273.181818 305.686665 
L 273.745455 305.333757 
L 274.309091 305.214667 
L 274.872727 304.952031 
L 275.436364 305.876397 
L 276 305.29522 
L 276.563636 305.569387 
L 277.690909 304.832796 
L 278.818182 305.281545 
L 279.381818 305.260873 
L 279.945455 305.584791 
L 280.509091 305.621671 
L 281.636364 305.52022 
L 282.2 305.626166 
L 282.763636 305.420422 
L 283.327273 305.778646 
L 283.890909 305.442961 
L 284.454545 305.236798 
L 285.018182 305.568263 
L 285.581818 305.313861 
L 286.145455 305.622549 
L 286.709091 305.253574 
L 287.272727 305.511751 
L 287.836364 305.340079 
L 288.963636 305.657147 
L 289.527273 305.515114 
L 290.090909 305.777181 
L 290.654545 305.346322 
L 291.218182 305.52906 
L 291.781818 305.377115 
L 292.345455 305.687719 
L 292.909091 305.394836 
L 293.472727 304.930912 
L 294.036364 305.337626 
L 295.727273 305.370393 
L 296.290909 306.026894 
L 296.854545 305.64968 
L 297.418182 305.50238 
L 299.109091 305.490101 
L 299.672727 305.906106 
L 300.236364 305.899088 
L 300.8 305.748219 
L 301.363636 305.166514 
L 301.927273 304.947596 
L 302.490909 305.312042 
L 303.054545 303.59575 
L 303.618182 304.136585 
L 304.181818 305.462618 
L 305.309091 305.224402 
L 305.872727 305.461277 
L 307 305.411039 
L 308.127273 305.510955 
L 308.690909 305.246375 
L 309.254545 305.564661 
L 309.818182 305.324944 
L 310.381818 305.631378 
L 310.945455 305.686941 
L 311.509091 305.253241 
L 312.636364 305.699749 
L 313.2 305.689658 
L 314.327273 305.042938 
L 314.890909 305.414338 
L 316.018182 305.631242 
L 316.581818 305.085071 
L 317.145455 305.464817 
L 317.709091 305.555122 
L 318.272727 305.412349 
L 319.963636 305.412544 
L 320.527273 305.631559 
L 321.654545 305.432644 
L 322.218182 305.165311 
L 322.781818 305.256707 
L 323.345455 305.196782 
L 323.909091 305.647488 
L 325.036364 305.533054 
L 325.6 305.211629 
L 326.163636 305.398748 
L 326.727273 305.426732 
L 327.290909 305.278999 
L 327.854545 305.290119 
L 328.418182 304.936304 
L 328.981818 305.463992 
L 329.545455 305.208443 
L 330.109091 305.266949 
L 330.672727 305.200526 
L 331.236364 305.513645 
L 331.8 305.673865 
L 332.363636 305.417084 
L 332.927273 305.355938 
L 333.490909 305.456631 
L 334.054545 305.144883 
L 334.618182 305.239158 
L 335.181818 305.743237 
L 335.745455 305.065651 
L 336.309091 305.392096 
L 337.436364 305.307517 
L 338 305.707983 
L 338.563636 305.150163 
L 339.127273 304.923967 
L 339.690909 304.981167 
L 340.254545 305.325008 
L 340.818182 305.525864 
L 341.381818 305.543667 
L 342.509091 305.368178 
L 343.072727 305.684728 
L 343.636364 305.390889 
L 344.2 305.408266 
L 344.763636 305.55064 
L 345.327273 304.926189 
L 345.890909 305.458352 
L 346.454545 305.366041 
L 347.018182 305.57939 
L 347.581818 301.931296 
L 348.145455 304.592347 
L 349.272727 305.462992 
L 349.836364 305.439117 
L 350.4 305.276284 
L 350.963636 305.322661 
L 351.527273 305.52403 
L 352.090909 305.113661 
L 352.654545 305.48693 
L 353.218182 305.37314 
L 353.781818 305.577466 
L 354.345455 305.373926 
L 354.909091 305.635743 
L 355.472727 305.536207 
L 356.036364 305.141506 
L 356.6 305.367731 
L 357.163636 305.81174 
L 357.727273 305.26012 
L 358.854545 305.53636 
L 359.418182 305.868858 
L 360.545455 305.495172 
L 361.109091 305.589889 
L 361.672727 305.042191 
L 362.8 305.234791 
L 363.363636 305.675814 
L 363.927273 305.64214 
L 364.490909 305.243498 
L 365.054545 305.193703 
L 365.618182 305.452104 
L 366.181818 305.513687 
L 366.745455 305.051776 
L 367.309091 305.342552 
L 367.872727 305.132991 
L 368.436364 305.227979 
L 369 305.762055 
L 370.690909 305.65057 
L 371.254545 305.267649 
L 371.818182 305.51428 
L 372.945455 305.04755 
L 373.509091 304.211807 
L 374.072727 304.945305 
L 374.636364 305.139925 
L 375.763636 305.091506 
L 376.327273 305.268161 
L 376.890909 305.144809 
L 379.145455 305.39927 
L 379.709091 305.14375 
L 380.272727 305.246519 
L 380.836364 305.233047 
L 381.4 305.548431 
L 382.527273 305.491027 
L 383.090909 305.139588 
L 384.218182 305.303484 
L 384.781818 305.533801 
L 385.909091 305.257311 
L 386.472727 305.589202 
L 387.036364 305.446278 
L 387.6 305.739951 
L 388.163636 305.205876 
L 388.727273 305.83679 
L 389.290909 304.92695 
L 389.854545 304.960368 
L 390.418182 305.178152 
L 392.109091 305.211503 
L 392.672727 305.374977 
L 393.236364 305.667446 
L 393.8 305.714324 
L 394.363636 305.520373 
L 395.490909 305.827024 
L 396.054545 305.335507 
L 396.618182 305.658529 
L 397.181818 305.184698 
L 397.745455 305.589994 
L 398.309091 305.256058 
L 398.872727 305.232691 
L 399.436364 305.815099 
L 400.563636 305.145531 
L 401.127273 305.577065 
L 401.690909 305.393245 
L 402.254545 305.486677 
L 402.818182 305.195851 
L 403.381818 305.914252 
L 403.945455 305.314602 
L 404.509091 305.004987 
L 405.636364 305.7656 
L 407.327273 305.285869 
L 407.890909 306.027563 
L 408.454545 305.339587 
L 409.018182 305.383714 
L 409.581818 305.304089 
L 410.145455 305.644543 
L 410.709091 305.10147 
L 411.272727 305.534643 
L 411.836364 305.794812 
L 412.4 305.52955 
L 412.963636 304.338934 
L 413.527273 304.940687 
L 414.090909 304.904456 
L 414.654545 305.134032 
L 415.218182 305.87291 
L 415.781818 305.394852 
L 416.909091 305.537039 
L 417.472727 304.382212 
L 418.036364 305.808321 
L 418.6 306.068559 
L 419.163636 305.522636 
L 420.854545 306.310679 
L 421.981818 304.54382 
L 422.545455 305.6964 
L 423.109091 304.593853 
L 423.672727 305.88863 
L 424.236364 305.43314 
L 424.8 305.233481 
L 425.363636 305.443698 
L 425.927273 305.802269 
L 426.490909 305.87164 
L 427.054545 304.620205 
L 427.618182 305.658274 
L 428.181818 305.444797 
L 428.745455 305.958811 
L 429.309091 306.103727 
L 429.872727 305.816172 
L 430.436364 306.114677 
L 431 305.967394 
L 431.563636 304.501803 
L 432.127273 305.492108 
L 432.690909 305.634654 
L 433.254545 304.31428 
L 433.818182 306.299419 
L 434.381818 305.511477 
L 434.945455 305.729778 
L 435.509091 305.155226 
L 436.072727 304.811832 
L 436.636364 305.762708 
L 437.763636 305.547877 
L 438.890909 306.573242 
L 439.454545 305.682077 
L 440.018182 304.577646 
L 440.581818 305.357125 
L 441.145455 305.928299 
L 441.709091 306.736302 
L 442.272727 304.366344 
L 442.836364 305.708271 
L 443.4 305.27802 
L 443.963636 304.194161 
L 444.527273 305.750667 
L 445.090909 305.619673 
L 445.654545 303.541119 
L 446.218182 304.725133 
L 446.781818 305.184406 
L 447.345455 306.495495 
L 447.909091 306.140658 
L 448.472727 305.101306 
L 449.6 306.634987 
L 451.290909 306.256187 
L 451.854545 305.675908 
L 452.418182 304.469815 
L 452.981818 305.871281 
L 453.545455 306.565865 
L 454.109091 306.245271 
L 454.672727 305.551411 
L 455.236364 306.219098 
L 455.8 305.374152 
L 456.363636 306.395531 
L 456.927273 306.34652 
L 457.490909 304.683988 
L 458.054545 306.040325 
L 458.618182 305.878467 
L 459.181818 306.867802 
L 459.745455 306.40373 
L 460.309091 306.891944 
L 460.872727 306.919268 
L 461.436364 307.087869 
L 462 306.642208 
L 462.563636 307.174756 
L 463.690909 307.336714 
L 464.254545 306.919395 
L 464.818182 302.394478 
L 465.381818 304.30131 
L 465.945455 305.387773 
L 466.509091 305.053994 
L 467.072727 305.862269 
L 467.636364 305.672572 
L 468.2 305.365482 
L 468.763636 305.193279 
L 469.327273 305.194941 
L 470.454545 306.380295 
L 471.018182 305.821346 
L 471.581818 306.894704 
L 472.145455 305.951661 
L 472.709091 305.95519 
L 473.272727 305.487706 
L 473.836364 306.757703 
L 474.4 306.946796 
L 474.963636 306.753411 
L 475.527273 306.819772 
L 476.090909 307.378447 
L 476.654545 307.443117 
L 477.218182 306.880101 
L 478.345455 307.391321 
L 479.472727 307.036213 
L 480.6 307.398742 
L 481.163636 307.380054 
L 481.727273 307.487651 
L 482.290909 307.00545 
L 482.854545 307.623295 
L 485.109091 307.69107 
L 485.672727 307.466475 
L 486.236364 307.604921 
L 486.8 307.545037 
L 487.927273 307.641259 
L 489.054545 307.624813 
L 489.618182 307.786489 
L 491.309091 307.729414 
L 495.818182 307.8 
L 496.381818 307.381696 
L 496.945455 304.019341 
L 497.509091 304.254743 
L 498.072727 304.737604 
L 498.636364 304.991111 
L 499.763636 305.103023 
L 500.327273 305.01943 
L 500.890909 305.100227 
L 501.454545 304.968673 
L 502.018182 305.146691 
L 502.581818 306.076689 
L 503.145455 306.678248 
L 503.709091 306.22717 
L 504.272727 304.537578 
L 504.836364 307.176907 
L 505.4 307.562744 
L 506.527273 307.710726 
L 507.090909 307.596403 
L 508.218182 307.788806 
L 509.345455 307.751237 
L 509.909091 307.789735 
L 510.472727 307.706908 
L 511.036364 307.769691 
L 511.6 307.468917 
L 512.163636 295.402126 
L 512.727273 304.307754 
L 513.290909 304.782456 
L 513.854545 305.023578 
L 514.418182 304.834198 
L 514.981818 304.921302 
L 515.545455 306.186249 
L 516.109091 307.073662 
L 516.672727 307.571776 
L 517.236364 307.678724 
L 518.363636 307.456718 
L 518.927273 307.699982 
L 519.490909 307.633347 
L 520.054545 307.692686 
L 520.618182 307.547711 
L 521.181818 306.895054 
L 521.745455 307.649572 
L 522.309091 307.637018 
L 522.872727 307.40768 
L 523.436364 306.913275 
L 524 304.344486 
L 524.563636 305.44174 
L 525.127273 305.611706 
L 525.690909 305.167118 
L 526.254545 307.436662 
L 526.818182 307.455316 
L 527.381818 304.506247 
L 527.945455 306.6757 
L 529.072727 304.073889 
L 529.636364 306.671992 
L 530.2 306.439966 
L 530.763636 307.193485 
L 531.327273 304.307784 
L 531.890909 307.062554 
L 532.454545 305.997658 
L 533.018182 307.549828 
L 533.581818 307.376337 
L 534.145455 305.889824 
L 534.709091 304.754714 
L 535.272727 306.825526 
L 535.836364 301.737587 
L 536.4 306.122484 
L 536.963636 304.040849 
L 537.527273 306.155199 
L 538.090909 306.734337 
L 538.654545 307.057708 
L 539.218182 306.81769 
L 539.781818 307.700606 
L 540.345455 304.128828 
L 540.909091 303.37679 
L 541.472727 306.938931 
L 542.036364 306.904704 
L 542.6 307.16791 
L 543.163636 307.566005 
L 543.727273 306.168442 
L 544.290909 307.346736 
L 544.854545 306.905998 
L 545.418182 306.319863 
L 545.981818 307.161548 
L 546.545455 305.013672 
L 547.109091 307.632115 
L 547.672727 307.494431 
L 548.8 307.537847 
L 549.363636 306.664941 
L 549.927273 306.074645 
L 550.490909 306.368942 
L 551.618182 307.675282 
L 552.181818 307.118639 
L 552.745455 303.900373 
L 553.309091 306.452972 
L 553.872727 306.806975 
L 554.436364 307.605192 
L 555 307.479148 
L 555.563636 307.725641 
L 556.127273 307.555568 
L 557.254545 307.776279 
L 557.818182 307.613076 
L 558.381818 303.142337 
L 558.945455 307.204882 
L 559.509091 307.082927 
L 560.072727 307.227286 
L 560.636364 306.595404 
L 561.2 307.553059 
L 562.890909 307.768307 
L 563.454545 305.336057 
L 564.018182 305.328143 
L 565.145455 304.165068 
L 566.272727 306.362657 
L 566.836364 306.519418 
L 567.4 307.036327 
L 567.963636 304.88558 
L 568.527273 305.599764 
L 569.090909 306.120788 
L 569.654545 306.067181 
L 570.218182 307.252319 
L 570.781818 305.078668 
L 571.345455 304.559821 
L 571.909091 305.079097 
L 572.472727 304.587671 
L 573.036364 304.967708 
L 573.6 304.824125 
L 574.163636 305.130857 
L 574.727273 305.257504 
L 575.290909 305.124742 
L 575.854545 304.041698 
L 576.418182 304.97457 
L 576.981818 304.888848 
L 577.545455 305.080271 
L 578.672727 304.92322 
L 579.236364 305.215315 
L 579.8 304.862426 
L 580.363636 304.885417 
L 580.927273 305.137789 
L 583.745455 305.089134 
L 584.309091 304.997651 
L 584.872727 305.190154 
L 585.436364 305.208274 
L 586 305.067244 
L 587.127273 305.305068 
L 587.690909 305.166588 
L 588.254545 305.398273 
L 588.818182 305.8332 
L 589.381818 304.949133 
L 589.945455 306.161921 
L 590.509091 305.779797 
L 591.072727 306.181315 
L 591.636364 305.003704 
L 592.2 305.582631 
L 592.763636 304.641724 
L 593.327273 306.375191 
L 593.890909 306.767333 
L 594.454545 305.516573 
L 595.018182 307.313736 
L 595.581818 306.587472 
L 596.709091 307.315555 
L 597.272727 305.799789 
L 597.836364 306.864585 
L 598.4 304.811315 
L 599.527273 307.299418 
L 600.090909 307.438903 
L 600.654545 306.515116 
L 601.218182 306.351599 
L 601.781818 307.698042 
L 602.345455 307.724213 
L 602.909091 306.510681 
L 603.472727 307.420783 
L 604.6 307.69148 
L 605.163636 307.26544 
L 605.727273 295.40261 
L 606.290909 304.766005 
L 606.854545 304.960278 
L 607.981818 304.646215 
L 608.545455 305.096132 
L 609.672727 304.898176 
L 610.236364 305.184546 
L 611.363636 305.197886 
L 611.927273 305.087255 
L 612.490909 305.259436 
L 613.054545 305.042843 
L 615.309091 304.888082 
L 615.872727 305.372488 
L 617 305.0726 
L 618.127273 305.099391 
L 618.690909 304.890844 
L 619.818182 305.217782 
L 620.945455 305.080422 
L 621.509091 305.235031 
L 622.072727 305.040999 
L 622.636364 305.148878 
L 622.636364 305.148878 
" clip-path="url(#p7a622cc53c)" style="fill: none; stroke: #ff7f0e; stroke-width: 1.5; stroke-linecap: square"/>
   </g>
   <g id="patch_3">
    <path d="M 90 320.4 
L 90 43.2 
" style="fill: none; stroke: #000000; stroke-width: 0.8; stroke-linejoin: miter; stroke-linecap: square"/>
   </g>
   <g id="patch_4">
    <path d="M 648 320.4 
L 648 43.2 
" style="fill: none; stroke: #000000; stroke-width: 0.8; stroke-linejoin: miter; stroke-linecap: square"/>
   </g>
   <g id="patch_5">
    <path d="M 90 320.4 
L 648 320.4 
" style="fill: none; stroke: #000000; stroke-width: 0.8; stroke-linejoin: miter; stroke-linecap: square"/>
   </g>
   <g id="patch_6">
    <path d="M 90 43.2 
L 648 43.2 
" style="fill: none; stroke: #000000; stroke-width: 0.8; stroke-linejoin: miter; stroke-linecap: square"/>
   </g>
   <g id="text_13">
    <!-- Training -->
    <g transform="translate(345.329063 37.2) scale(0.12 -0.12)">
     <defs>
      <path id="DejaVuSans-54" d="M -19 4666 
L 3928 4666 
L 3928 4134 
L 2272 4134 
L 2272 0 
L 1638 0 
L 1638 4134 
L -19 4134 
L -19 4666 
z
" transform="scale(0.015625)"/>
      <path id="DejaVuSans-72" d="M 2631 2963 
Q 2534 3019 2420 3045 
Q 2306 3072 2169 3072 
Q 1681 3072 1420 2755 
Q 1159 2438 1159 1844 
L 1159 0 
L 581 0 
L 581 3500 
L 1159 3500 
L 1159 2956 
Q 1341 3275 1631 3429 
Q 1922 3584 2338 3584 
Q 2397 3584 2469 3576 
Q 2541 3569 2628 3553 
L 2631 2963 
z
" transform="scale(0.015625)"/>
      <path id="DejaVuSans-61" d="M 2194 1759 
Q 1497 1759 1228 1600 
Q 959 1441 959 1056 
Q 959 750 1161 570 
Q 1363 391 1709 391 
Q 2188 391 2477 730 
Q 2766 1069 2766 1631 
L 2766 1759 
L 2194 1759 
z
M 3341 1997 
L 3341 0 
L 2766 0 
L 2766 531 
Q 2569 213 2275 61 
Q 1981 -91 1556 -91 
Q 1019 -91 701 211 
Q 384 513 384 1019 
Q 384 1609 779 1909 
Q 1175 2209 1959 2209 
L 2766 2209 
L 2766 2266 
Q 2766 2663 2505 2880 
Q 2244 3097 1772 3097 
Q 1472 3097 1187 3025 
Q 903 2953 641 2809 
L 641 3341 
Q 956 3463 1253 3523 
Q 1550 3584 1831 3584 
Q 2591 3584 2966 3190 
Q 3341 2797 3341 1997 
z
" transform="scale(0.015625)"/>
      <path id="DejaVuSans-69" d="M 603 3500 
L 1178 3500 
L 1178 0 
L 603 0 
L 603 3500 
z
M 603 4863 
L 1178 4863 
L 1178 4134 
L 603 4134 
L 603 4863 
z
" transform="scale(0.015625)"/>
      <path id="DejaVuSans-6e" d="M 3513 2113 
L 3513 0 
L 2938 0 
L 2938 2094 
Q 2938 2591 2744 2837 
Q 2550 3084 2163 3084 
Q 1697 3084 1428 2787 
Q 1159 2491 1159 1978 
L 1159 0 
L 581 0 
L 581 3500 
L 1159 3500 
L 1159 2956 
Q 1366 3272 1645 3428 
Q 1925 3584 2291 3584 
Q 2894 3584 3203 3211 
Q 3513 2838 3513 2113 
z
" transform="scale(0.015625)"/>
      <path id="DejaVuSans-67" d="M 2906 1791 
Q 2906 2416 2648 2759 
Q 2391 3103 1925 3103 
Q 1463 3103 1205 2759 
Q 947 2416 947 1791 
Q 947 1169 1205 825 
Q 1463 481 1925 481 
Q 2391 481 2648 825 
Q 2906 1169 2906 1791 
z
M 3481 434 
Q 3481 -459 3084 -895 
Q 2688 -1331 1869 -1331 
Q 1566 -1331 1297 -1286 
Q 1028 -1241 775 -1147 
L 775 -588 
Q 1028 -725 1275 -790 
Q 1522 -856 1778 -856 
Q 2344 -856 2625 -561 
Q 2906 -266 2906 331 
L 2906 616 
Q 2728 306 2450 153 
Q 2172 0 1784 0 
Q 1141 0 747 490 
Q 353 981 353 1791 
Q 353 2603 747 3093 
Q 1141 3584 1784 3584 
Q 2172 3584 2450 3431 
Q 2728 3278 2906 2969 
L 2906 3500 
L 3481 3500 
L 3481 434 
z
" transform="scale(0.015625)"/>
     </defs>
     <use xlink:href="#DejaVuSans-54"/>
     <use xlink:href="#DejaVuSans-72" x="46.333984"/>
     <use xlink:href="#DejaVuSans-61" x="87.447266"/>
     <use xlink:href="#DejaVuSans-69" x="148.726562"/>
     <use xlink:href="#DejaVuSans-6e" x="176.509766"/>
     <use xlink:href="#DejaVuSans-69" x="239.888672"/>
     <use xlink:href="#DejaVuSans-6e" x="267.671875"/>
     <use xlink:href="#DejaVuSans-67" x="331.050781"/>
    </g>
   </g>
   <g id="legend_1">
    <g id="patch_7">
     <path d="M 601.251562 80.55625 
L 641 80.55625 
Q 643 80.55625 643 78.55625 
L 643 50.2 
Q 643 48.2 641 48.2 
L 601.251562 48.2 
Q 599.251562 48.2 599.251562 50.2 
L 599.251562 78.55625 
Q 599.251562 80.55625 601.251562 80.55625 
z
" style="fill: #ffffff; opacity: 0.8; stroke: #cccccc; stroke-linejoin: miter"/>
    </g>
    <g id="line2d_15">
     <path d="M 603.251562 56.298437 
L 613.251562 56.298437 
L 623.251562 56.298437 
" style="fill: none; stroke: #1f77b4; stroke-width: 1.5; stroke-linecap: square"/>
    </g>
    <g id="text_14">
     <!-- G -->
     <g transform="translate(631.251562 59.798437) scale(0.1 -0.1)">
      <defs>
       <path id="DejaVuSans-47" d="M 3809 666 
L 3809 1919 
L 2778 1919 
L 2778 2438 
L 4434 2438 
L 4434 434 
Q 4069 175 3628 42 
Q 3188 -91 2688 -91 
Q 1594 -91 976 548 
Q 359 1188 359 2328 
Q 359 3472 976 4111 
Q 1594 4750 2688 4750 
Q 3144 4750 3555 4637 
Q 3966 4525 4313 4306 
L 4313 3634 
Q 3963 3931 3569 4081 
Q 3175 4231 2741 4231 
Q 1884 4231 1454 3753 
Q 1025 3275 1025 2328 
Q 1025 1384 1454 906 
Q 1884 428 2741 428 
Q 3075 428 3337 486 
Q 3600 544 3809 666 
z
" transform="scale(0.015625)"/>
      </defs>
      <use xlink:href="#DejaVuSans-47"/>
     </g>
    </g>
    <g id="line2d_16">
     <path d="M 603.251562 70.976562 
L 613.251562 70.976562 
L 623.251562 70.976562 
" style="fill: none; stroke: #ff7f0e; stroke-width: 1.5; stroke-linecap: square"/>
    </g>
    <g id="text_15">
     <!-- D -->
     <g transform="translate(631.251562 74.476562) scale(0.1 -0.1)">
      <defs>
       <path id="DejaVuSans-44" d="M 1259 4147 
L 1259 519 
L 2022 519 
Q 2988 519 3436 956 
Q 3884 1394 3884 2338 
Q 3884 3275 3436 3711 
Q 2988 4147 2022 4147 
L 1259 4147 
z
M 628 4666 
L 1925 4666 
Q 3281 4666 3915 4102 
Q 4550 3538 4550 2338 
Q 4550 1131 3912 565 
Q 3275 0 1925 0 
L 628 0 
L 628 4666 
z
" transform="scale(0.015625)"/>
      </defs>
      <use xlink:href="#DejaVuSans-44"/>
     </g>
    </g>
   </g>
  </g>
 </g>
 <defs>
  <clipPath id="p7a622cc53c">
   <rect x="90" y="43.2" width="558" height="277.2"/>
  </clipPath>
 </defs>
</svg>
