<?xml version="1.0" encoding="utf-8" standalone="no"?>
<!DOCTYPE svg PUBLIC "-//W3C//DTD SVG 1.1//EN"
  "http://www.w3.org/Graphics/SVG/1.1/DTD/svg11.dtd">
<svg xmlns:xlink="http://www.w3.org/1999/xlink" width="720pt" height="360pt" viewBox="0 0 720 360" xmlns="http://www.w3.org/2000/svg" version="1.1">
 <metadata>
  <rdf:RDF xmlns:dc="http://purl.org/dc/elements/1.1/" xmlns:cc="http://creativecommons.org/ns#" xmlns:rdf="http://www.w3.org/1999/02/22-rdf-syntax-ns#">
   <cc:Work>
    <dc:type rdf:resource="http://purl.org/dc/dcmitype/StillImage"/>
    <dc:date>2023-08-11T19:33:11.587393</dc:date>
    <dc:format>image/svg+xml</dc:format>
    <dc:creator>
     <cc:Agent>
      <dc:title>Matplotlib v3.7.2, https://matplotlib.org/</dc:title>
     </cc:Agent>
    </dc:creator>
   </cc:Work>
  </rdf:RDF>
 </metadata>
 <defs>
  <style type="text/css">*{stroke-linejoin: round; stroke-linecap: butt}</style>
 </defs>
 <g id="figure_1">
  <g id="patch_1">
   <path d="M 0 360 
L 720 360 
L 720 0 
L 0 0 
z
" style="fill: #ffffff"/>
  </g>
  <g id="axes_1">
   <g id="patch_2">
    <path d="M 90 320.4 
L 648 320.4 
L 648 43.2 
L 90 43.2 
z
" style="fill: #ffffff"/>
   </g>
   <g id="matplotlib.axis_1">
    <g id="xtick_1">
     <g id="line2d_1">
      <defs>
       <path id="m46b45e96ee" d="M 0 0 
L 0 3.5 
" style="stroke: #000000; stroke-width: 0.8"/>
      </defs>
      <g>
       <use xlink:href="#m46b45e96ee" x="115.363636" y="320.4" style="stroke: #000000; stroke-width: 0.8"/>
      </g>
     </g>
     <g id="text_1">
      <!-- 0 -->
      <g transform="translate(112.182386 334.998438) scale(0.1 -0.1)">
       <defs>
        <path id="DejaVuSans-30" d="M 2034 4250 
Q 1547 4250 1301 3770 
Q 1056 3291 1056 2328 
Q 1056 1369 1301 889 
Q 1547 409 2034 409 
Q 2525 409 2770 889 
Q 3016 1369 3016 2328 
Q 3016 3291 2770 3770 
Q 2525 4250 2034 4250 
z
M 2034 4750 
Q 2819 4750 3233 4129 
Q 3647 3509 3647 2328 
Q 3647 1150 3233 529 
Q 2819 -91 2034 -91 
Q 1250 -91 836 529 
Q 422 1150 422 2328 
Q 422 3509 836 4129 
Q 1250 4750 2034 4750 
z
" transform="scale(0.015625)"/>
       </defs>
       <use xlink:href="#DejaVuSans-30"/>
      </g>
     </g>
    </g>
    <g id="xtick_2">
     <g id="line2d_2">
      <g>
       <use xlink:href="#m46b45e96ee" x="228.090909" y="320.4" style="stroke: #000000; stroke-width: 0.8"/>
      </g>
     </g>
     <g id="text_2">
      <!-- 200 -->
      <g transform="translate(218.547159 334.998438) scale(0.1 -0.1)">
       <defs>
        <path id="DejaVuSans-32" d="M 1228 531 
L 3431 531 
L 3431 0 
L 469 0 
L 469 531 
Q 828 903 1448 1529 
Q 2069 2156 2228 2338 
Q 2531 2678 2651 2914 
Q 2772 3150 2772 3378 
Q 2772 3750 2511 3984 
Q 2250 4219 1831 4219 
Q 1534 4219 1204 4116 
Q 875 4013 500 3803 
L 500 4441 
Q 881 4594 1212 4672 
Q 1544 4750 1819 4750 
Q 2544 4750 2975 4387 
Q 3406 4025 3406 3419 
Q 3406 3131 3298 2873 
Q 3191 2616 2906 2266 
Q 2828 2175 2409 1742 
Q 1991 1309 1228 531 
z
" transform="scale(0.015625)"/>
       </defs>
       <use xlink:href="#DejaVuSans-32"/>
       <use xlink:href="#DejaVuSans-30" x="63.623047"/>
       <use xlink:href="#DejaVuSans-30" x="127.246094"/>
      </g>
     </g>
    </g>
    <g id="xtick_3">
     <g id="line2d_3">
      <g>
       <use xlink:href="#m46b45e96ee" x="340.818182" y="320.4" style="stroke: #000000; stroke-width: 0.8"/>
      </g>
     </g>
     <g id="text_3">
      <!-- 400 -->
      <g transform="translate(331.274432 334.998438) scale(0.1 -0.1)">
       <defs>
        <path id="DejaVuSans-34" d="M 2419 4116 
L 825 1625 
L 2419 1625 
L 2419 4116 
z
M 2253 4666 
L 3047 4666 
L 3047 1625 
L 3713 1625 
L 3713 1100 
L 3047 1100 
L 3047 0 
L 2419 0 
L 2419 1100 
L 313 1100 
L 313 1709 
L 2253 4666 
z
" transform="scale(0.015625)"/>
       </defs>
       <use xlink:href="#DejaVuSans-34"/>
       <use xlink:href="#DejaVuSans-30" x="63.623047"/>
       <use xlink:href="#DejaVuSans-30" x="127.246094"/>
      </g>
     </g>
    </g>
    <g id="xtick_4">
     <g id="line2d_4">
      <g>
       <use xlink:href="#m46b45e96ee" x="453.545455" y="320.4" style="stroke: #000000; stroke-width: 0.8"/>
      </g>
     </g>
     <g id="text_4">
      <!-- 600 -->
      <g transform="translate(444.001705 334.998438) scale(0.1 -0.1)">
       <defs>
        <path id="DejaVuSans-36" d="M 2113 2584 
Q 1688 2584 1439 2293 
Q 1191 2003 1191 1497 
Q 1191 994 1439 701 
Q 1688 409 2113 409 
Q 2538 409 2786 701 
Q 3034 994 3034 1497 
Q 3034 2003 2786 2293 
Q 2538 2584 2113 2584 
z
M 3366 4563 
L 3366 3988 
Q 3128 4100 2886 4159 
Q 2644 4219 2406 4219 
Q 1781 4219 1451 3797 
Q 1122 3375 1075 2522 
Q 1259 2794 1537 2939 
Q 1816 3084 2150 3084 
Q 2853 3084 3261 2657 
Q 3669 2231 3669 1497 
Q 3669 778 3244 343 
Q 2819 -91 2113 -91 
Q 1303 -91 875 529 
Q 447 1150 447 2328 
Q 447 3434 972 4092 
Q 1497 4750 2381 4750 
Q 2619 4750 2861 4703 
Q 3103 4656 3366 4563 
z
" transform="scale(0.015625)"/>
       </defs>
       <use xlink:href="#DejaVuSans-36"/>
       <use xlink:href="#DejaVuSans-30" x="63.623047"/>
       <use xlink:href="#DejaVuSans-30" x="127.246094"/>
      </g>
     </g>
    </g>
    <g id="xtick_5">
     <g id="line2d_5">
      <g>
       <use xlink:href="#m46b45e96ee" x="566.272727" y="320.4" style="stroke: #000000; stroke-width: 0.8"/>
      </g>
     </g>
     <g id="text_5">
      <!-- 800 -->
      <g transform="translate(556.728977 334.998438) scale(0.1 -0.1)">
       <defs>
        <path id="DejaVuSans-38" d="M 2034 2216 
Q 1584 2216 1326 1975 
Q 1069 1734 1069 1313 
Q 1069 891 1326 650 
Q 1584 409 2034 409 
Q 2484 409 2743 651 
Q 3003 894 3003 1313 
Q 3003 1734 2745 1975 
Q 2488 2216 2034 2216 
z
M 1403 2484 
Q 997 2584 770 2862 
Q 544 3141 544 3541 
Q 544 4100 942 4425 
Q 1341 4750 2034 4750 
Q 2731 4750 3128 4425 
Q 3525 4100 3525 3541 
Q 3525 3141 3298 2862 
Q 3072 2584 2669 2484 
Q 3125 2378 3379 2068 
Q 3634 1759 3634 1313 
Q 3634 634 3220 271 
Q 2806 -91 2034 -91 
Q 1263 -91 848 271 
Q 434 634 434 1313 
Q 434 1759 690 2068 
Q 947 2378 1403 2484 
z
M 1172 3481 
Q 1172 3119 1398 2916 
Q 1625 2713 2034 2713 
Q 2441 2713 2670 2916 
Q 2900 3119 2900 3481 
Q 2900 3844 2670 4047 
Q 2441 4250 2034 4250 
Q 1625 4250 1398 4047 
Q 1172 3844 1172 3481 
z
" transform="scale(0.015625)"/>
       </defs>
       <use xlink:href="#DejaVuSans-38"/>
       <use xlink:href="#DejaVuSans-30" x="63.623047"/>
       <use xlink:href="#DejaVuSans-30" x="127.246094"/>
      </g>
     </g>
    </g>
   </g>
   <g id="matplotlib.axis_2">
    <g id="ytick_1">
     <g id="line2d_6">
      <defs>
       <path id="mf9647bc04f" d="M 0 0 
L -3.5 0 
" style="stroke: #000000; stroke-width: 0.8"/>
      </defs>
      <g>
       <use xlink:href="#mf9647bc04f" x="90" y="307.850791" style="stroke: #000000; stroke-width: 0.8"/>
      </g>
     </g>
     <g id="text_6">
      <!-- 0 -->
      <g transform="translate(76.6375 311.65001) scale(0.1 -0.1)">
       <use xlink:href="#DejaVuSans-30"/>
      </g>
     </g>
    </g>
    <g id="ytick_2">
     <g id="line2d_7">
      <g>
       <use xlink:href="#mf9647bc04f" x="90" y="264.657584" style="stroke: #000000; stroke-width: 0.8"/>
      </g>
     </g>
     <g id="text_7">
      <!-- 10 -->
      <g transform="translate(70.275 268.456803) scale(0.1 -0.1)">
       <defs>
        <path id="DejaVuSans-31" d="M 794 531 
L 1825 531 
L 1825 4091 
L 703 3866 
L 703 4441 
L 1819 4666 
L 2450 4666 
L 2450 531 
L 3481 531 
L 3481 0 
L 794 0 
L 794 531 
z
" transform="scale(0.015625)"/>
       </defs>
       <use xlink:href="#DejaVuSans-31"/>
       <use xlink:href="#DejaVuSans-30" x="63.623047"/>
      </g>
     </g>
    </g>
    <g id="ytick_3">
     <g id="line2d_8">
      <g>
       <use xlink:href="#mf9647bc04f" x="90" y="221.464378" style="stroke: #000000; stroke-width: 0.8"/>
      </g>
     </g>
     <g id="text_8">
      <!-- 20 -->
      <g transform="translate(70.275 225.263597) scale(0.1 -0.1)">
       <use xlink:href="#DejaVuSans-32"/>
       <use xlink:href="#DejaVuSans-30" x="63.623047"/>
      </g>
     </g>
    </g>
    <g id="ytick_4">
     <g id="line2d_9">
      <g>
       <use xlink:href="#mf9647bc04f" x="90" y="178.271171" style="stroke: #000000; stroke-width: 0.8"/>
      </g>
     </g>
     <g id="text_9">
      <!-- 30 -->
      <g transform="translate(70.275 182.07039) scale(0.1 -0.1)">
       <defs>
        <path id="DejaVuSans-33" d="M 2597 2516 
Q 3050 2419 3304 2112 
Q 3559 1806 3559 1356 
Q 3559 666 3084 287 
Q 2609 -91 1734 -91 
Q 1441 -91 1130 -33 
Q 819 25 488 141 
L 488 750 
Q 750 597 1062 519 
Q 1375 441 1716 441 
Q 2309 441 2620 675 
Q 2931 909 2931 1356 
Q 2931 1769 2642 2001 
Q 2353 2234 1838 2234 
L 1294 2234 
L 1294 2753 
L 1863 2753 
Q 2328 2753 2575 2939 
Q 2822 3125 2822 3475 
Q 2822 3834 2567 4026 
Q 2313 4219 1838 4219 
Q 1578 4219 1281 4162 
Q 984 4106 628 3988 
L 628 4550 
Q 988 4650 1302 4700 
Q 1616 4750 1894 4750 
Q 2613 4750 3031 4423 
Q 3450 4097 3450 3541 
Q 3450 3153 3228 2886 
Q 3006 2619 2597 2516 
z
" transform="scale(0.015625)"/>
       </defs>
       <use xlink:href="#DejaVuSans-33"/>
       <use xlink:href="#DejaVuSans-30" x="63.623047"/>
      </g>
     </g>
    </g>
    <g id="ytick_5">
     <g id="line2d_10">
      <g>
       <use xlink:href="#mf9647bc04f" x="90" y="135.077965" style="stroke: #000000; stroke-width: 0.8"/>
      </g>
     </g>
     <g id="text_10">
      <!-- 40 -->
      <g transform="translate(70.275 138.877184) scale(0.1 -0.1)">
       <use xlink:href="#DejaVuSans-34"/>
       <use xlink:href="#DejaVuSans-30" x="63.623047"/>
      </g>
     </g>
    </g>
    <g id="ytick_6">
     <g id="line2d_11">
      <g>
       <use xlink:href="#mf9647bc04f" x="90" y="91.884758" style="stroke: #000000; stroke-width: 0.8"/>
      </g>
     </g>
     <g id="text_11">
      <!-- 50 -->
      <g transform="translate(70.275 95.683977) scale(0.1 -0.1)">
       <defs>
        <path id="DejaVuSans-35" d="M 691 4666 
L 3169 4666 
L 3169 4134 
L 1269 4134 
L 1269 2991 
Q 1406 3038 1543 3061 
Q 1681 3084 1819 3084 
Q 2600 3084 3056 2656 
Q 3513 2228 3513 1497 
Q 3513 744 3044 326 
Q 2575 -91 1722 -91 
Q 1428 -91 1123 -41 
Q 819 9 494 109 
L 494 744 
Q 775 591 1075 516 
Q 1375 441 1709 441 
Q 2250 441 2565 725 
Q 2881 1009 2881 1497 
Q 2881 1984 2565 2268 
Q 2250 2553 1709 2553 
Q 1456 2553 1204 2497 
Q 953 2441 691 2322 
L 691 4666 
z
" transform="scale(0.015625)"/>
       </defs>
       <use xlink:href="#DejaVuSans-35"/>
       <use xlink:href="#DejaVuSans-30" x="63.623047"/>
      </g>
     </g>
    </g>
    <g id="ytick_7">
     <g id="line2d_12">
      <g>
       <use xlink:href="#mf9647bc04f" x="90" y="48.691552" style="stroke: #000000; stroke-width: 0.8"/>
      </g>
     </g>
     <g id="text_12">
      <!-- 60 -->
      <g transform="translate(70.275 52.490771) scale(0.1 -0.1)">
       <use xlink:href="#DejaVuSans-36"/>
       <use xlink:href="#DejaVuSans-30" x="63.623047"/>
      </g>
     </g>
    </g>
   </g>
   <g id="line2d_13">
    <path d="M 115.363636 55.8 
L 115.927273 156.736422 
L 116.490909 199.446337 
L 117.054545 200.986639 
L 117.618182 222.873878 
L 118.181818 220.424974 
L 118.745455 222.871604 
L 119.309091 228.623278 
L 119.872727 233.204186 
L 120.436364 235.610242 
L 121 242.867139 
L 121.563636 224.778443 
L 122.127273 221.025845 
L 122.690909 248.848068 
L 123.254545 248.023712 
L 123.818182 244.939014 
L 124.381818 250.893626 
L 124.945455 228.298205 
L 126.072727 250.942822 
L 126.636364 247.691295 
L 127.2 242.539224 
L 127.763636 243.637524 
L 128.327273 248.286107 
L 129.454545 234.269245 
L 130.018182 252.293726 
L 130.581818 239.664952 
L 131.145455 235.876237 
L 131.709091 242.427518 
L 132.272727 242.427461 
L 132.836364 245.567134 
L 133.4 250.717624 
L 133.963636 241.220001 
L 134.527273 256.443989 
L 135.090909 222.174779 
L 135.654545 228.84556 
L 136.218182 225.41661 
L 136.781818 255.448595 
L 137.345455 257.644715 
L 137.909091 255.048116 
L 138.472727 221.801709 
L 139.036364 252.874368 
L 139.6 247.351867 
L 140.163636 249.628245 
L 140.727273 244.480347 
L 141.290909 254.75084 
L 141.854545 253.828422 
L 142.418182 256.84383 
L 143.545455 242.241589 
L 144.672727 260.924817 
L 145.236364 254.566891 
L 145.8 250.655407 
L 146.363636 252.294294 
L 146.927273 248.407319 
L 147.490909 263.377865 
L 148.054545 261.291403 
L 148.618182 257.38384 
L 149.181818 248.871708 
L 149.745455 260.540027 
L 150.309091 231.25211 
L 150.872727 257.237772 
L 151.436364 258.899999 
L 152 252.534491 
L 152.563636 254.916062 
L 153.127273 231.68177 
L 153.690909 233.65029 
L 154.254545 255.042052 
L 154.818182 264.42313 
L 155.381818 241.820398 
L 155.945455 250.797611 
L 156.509091 262.042091 
L 157.072727 260.050647 
L 157.636364 254.816768 
L 158.2 257.325553 
L 158.763636 229.596742 
L 159.327273 248.163123 
L 159.890909 246.291364 
L 161.018182 264.786833 
L 162.145455 257.719293 
L 162.709091 253.358274 
L 163.272727 264.604566 
L 163.836364 264.653873 
L 164.4 237.29765 
L 164.963636 251.244057 
L 165.527273 268.600433 
L 166.090909 254.566455 
L 166.654545 258.139776 
L 167.218182 247.207138 
L 167.781818 263.195251 
L 168.345455 249.479257 
L 168.909091 231.798575 
L 169.472727 242.420421 
L 170.036364 262.650941 
L 170.6 264.810362 
L 171.163636 260.493727 
L 171.727273 261.254775 
L 172.290909 250.525058 
L 172.854545 255.784971 
L 173.418182 256.83864 
L 173.981818 253.278348 
L 175.109091 264.822114 
L 175.672727 256.432048 
L 176.236364 267.963127 
L 177.363636 263.503184 
L 177.927273 257.400564 
L 178.490909 257.135476 
L 179.054545 253.117975 
L 179.618182 255.503286 
L 180.181818 267.399472 
L 180.745455 257.207331 
L 181.309091 244.984243 
L 181.872727 260.684468 
L 182.436364 264.344466 
L 183 270.720585 
L 183.563636 265.181748 
L 184.127273 257.213576 
L 184.690909 256.607304 
L 185.254545 249.942167 
L 185.818182 265.443425 
L 186.381818 254.953992 
L 186.945455 263.000465 
L 187.509091 268.872738 
L 188.072727 251.289611 
L 188.636364 257.649621 
L 189.2 249.984929 
L 189.763636 258.473791 
L 190.327273 255.543762 
L 191.454545 260.938377 
L 192.018182 256.963012 
L 192.581818 241.35577 
L 193.145455 259.019708 
L 193.709091 257.711459 
L 194.272727 262.194621 
L 194.836364 259.742393 
L 195.4 263.578656 
L 195.963636 269.761123 
L 196.527273 260.913975 
L 197.090909 266.42633 
L 197.654545 254.273351 
L 198.218182 259.018345 
L 198.781818 265.184326 
L 199.345455 263.45592 
L 199.909091 254.290232 
L 200.472727 267.854103 
L 201.036364 267.723948 
L 201.6 246.127765 
L 202.163636 267.950884 
L 202.727273 266.915035 
L 203.290909 261.222768 
L 203.854545 258.176861 
L 204.418182 264.512398 
L 204.981818 266.58256 
L 205.545455 256.001 
L 206.109091 252.186045 
L 206.672727 266.203736 
L 207.236364 252.933483 
L 207.8 259.286869 
L 208.363636 267.487414 
L 208.927273 267.394599 
L 209.490909 254.579072 
L 210.054545 263.102293 
L 210.618182 259.092009 
L 211.181818 258.087956 
L 211.745455 266.179704 
L 212.309091 248.160211 
L 212.872727 269.427371 
L 213.436364 266.532639 
L 214 266.096829 
L 214.563636 254.242486 
L 215.127273 256.029192 
L 215.690909 266.725234 
L 216.254545 267.599729 
L 216.818182 269.209855 
L 217.381818 271.552755 
L 217.945455 261.559474 
L 218.509091 267.046352 
L 219.072727 266.352975 
L 219.636364 265.21569 
L 220.2 270.1141 
L 220.763636 264.133644 
L 221.327273 268.077159 
L 221.890909 255.774286 
L 222.454545 263.218117 
L 223.018182 255.9199 
L 223.581818 261.281204 
L 224.145455 275.661124 
L 224.709091 268.68395 
L 225.272727 267.725789 
L 225.836364 262.642426 
L 226.4 269.502621 
L 226.963636 269.865599 
L 227.527273 260.474845 
L 228.090909 266.344288 
L 228.654545 269.693745 
L 229.218182 271.75905 
L 230.345455 260.119121 
L 230.909091 269.747192 
L 231.472727 271.804222 
L 232.036364 270.159123 
L 232.6 256.801093 
L 233.163636 268.427046 
L 233.727273 264.909627 
L 234.290909 264.669168 
L 234.854545 269.388646 
L 235.418182 271.541576 
L 235.981818 261.603097 
L 236.545455 270.470783 
L 237.109091 271.186849 
L 237.672727 257.7093 
L 238.236364 264.940093 
L 238.8 267.995174 
L 239.363636 256.321756 
L 239.927273 261.795724 
L 240.490909 263.862257 
L 241.054545 269.031402 
L 241.618182 268.267253 
L 242.181818 268.325301 
L 242.745455 261.84293 
L 243.309091 268.771776 
L 243.872727 267.054162 
L 244.436364 273.09597 
L 245 266.961628 
L 245.563636 272.342296 
L 246.127273 258.658938 
L 246.690909 270.504553 
L 247.254545 261.020243 
L 248.381818 275.709358 
L 248.945455 257.171914 
L 249.509091 264.521601 
L 250.072727 267.660635 
L 250.636364 271.880102 
L 251.2 269.497093 
L 251.763636 269.195776 
L 252.327273 273.77746 
L 252.890909 270.46355 
L 253.454545 273.646739 
L 254.018182 269.860055 
L 254.581818 269.404851 
L 255.145455 276.020947 
L 255.709091 273.763152 
L 256.272727 267.343678 
L 256.836364 267.298626 
L 257.4 273.256739 
L 257.963636 266.163585 
L 258.527273 275.84105 
L 259.090909 266.400494 
L 259.654545 271.37043 
L 260.218182 275.065993 
L 260.781818 270.464065 
L 261.345455 270.47709 
L 261.909091 274.321837 
L 262.472727 276.477666 
L 263.036364 272.236769 
L 263.6 271.354682 
L 264.163636 270.039097 
L 264.727273 273.795365 
L 265.290909 274.386218 
L 265.854545 275.819739 
L 266.418182 274.546167 
L 267.545455 268.481622 
L 268.109091 273.217194 
L 268.672727 274.714613 
L 269.236364 278.869704 
L 269.8 274.139806 
L 270.363636 273.630929 
L 270.927273 271.04151 
L 271.490909 265.059419 
L 272.054545 276.206627 
L 272.618182 276.074604 
L 273.181818 272.880196 
L 273.745455 279.206902 
L 274.309091 273.083674 
L 274.872727 274.476003 
L 275.436364 268.346544 
L 276 272.258066 
L 276.563636 277.944452 
L 277.127273 274.914185 
L 277.690909 273.7559 
L 278.254545 273.349471 
L 278.818182 273.62425 
L 279.381818 268.042315 
L 279.945455 272.59288 
L 280.509091 275.033186 
L 281.072727 271.126827 
L 281.636364 274.858677 
L 282.2 273.153688 
L 282.763636 259.693111 
L 283.327273 275.20728 
L 283.890909 269.609346 
L 284.454545 277.512728 
L 285.018182 270.103204 
L 285.581818 277.279148 
L 286.145455 275.908202 
L 286.709091 278.622184 
L 287.272727 275.010843 
L 287.836364 274.127341 
L 288.4 273.530787 
L 288.963636 275.361123 
L 290.090909 275.400052 
L 290.654545 280.671412 
L 291.218182 276.85542 
L 291.781818 271.663521 
L 292.345455 273.51541 
L 292.909091 273.525796 
L 293.472727 277.952981 
L 294.036364 278.854854 
L 294.6 273.799727 
L 295.163636 278.052516 
L 295.727273 268.505386 
L 296.290909 276.872626 
L 296.854545 280.441788 
L 297.418182 276.297217 
L 297.981818 278.521735 
L 298.545455 276.38665 
L 299.109091 271.017277 
L 299.672727 276.512317 
L 300.236364 275.903568 
L 300.8 273.534234 
L 301.363636 273.301811 
L 301.927273 281.29675 
L 302.490909 273.160954 
L 303.054545 275.654641 
L 303.618182 279.147931 
L 304.181818 274.316603 
L 304.745455 276.931786 
L 305.309091 278.44618 
L 305.872727 273.679859 
L 306.436364 274.788864 
L 307 276.467213 
L 307.563636 277.760825 
L 308.127273 272.584654 
L 308.690909 275.031824 
L 309.254545 272.379743 
L 309.818182 279.322868 
L 310.381818 282.60394 
L 310.945455 277.908038 
L 311.509091 279.494572 
L 312.072727 281.973104 
L 312.636364 281.17521 
L 313.2 278.276527 
L 313.763636 281.5579 
L 314.327273 275.389983 
L 314.890909 273.80059 
L 315.454545 278.067419 
L 316.018182 271.521111 
L 316.581818 278.61429 
L 317.145455 278.284185 
L 317.709091 277.456795 
L 318.272727 277.561205 
L 318.836364 279.949823 
L 319.4 280.664352 
L 319.963636 279.942851 
L 320.527273 280.14362 
L 321.654545 282.105712 
L 322.218182 263.698769 
L 322.781818 278.701893 
L 323.345455 280.689658 
L 323.909091 280.724913 
L 324.472727 282.894101 
L 325.036364 277.973701 
L 325.6 279.490156 
L 326.163636 280.3143 
L 326.727273 277.527135 
L 327.290909 282.060606 
L 327.854545 272.816081 
L 328.418182 280.696362 
L 328.981818 283.244121 
L 329.545455 279.50148 
L 330.109091 281.472684 
L 330.672727 275.439644 
L 331.236364 275.907129 
L 331.8 280.540204 
L 332.363636 275.035155 
L 332.927273 281.888155 
L 333.490909 278.342307 
L 334.054545 276.960235 
L 334.618182 281.090265 
L 335.181818 273.632857 
L 335.745455 280.199011 
L 336.309091 272.699688 
L 336.872727 272.988388 
L 337.436364 277.854766 
L 338 278.429069 
L 338.563636 278.055492 
L 339.127273 282.841914 
L 339.690909 279.947293 
L 340.254545 282.329911 
L 340.818182 279.773837 
L 341.381818 280.821859 
L 341.945455 278.453253 
L 342.509091 276.851016 
L 343.072727 275.971945 
L 343.636364 283.899313 
L 344.2 284.535231 
L 344.763636 282.266508 
L 345.327273 283.240968 
L 345.890909 282.443289 
L 346.454545 283.921569 
L 347.018182 280.055207 
L 347.581818 284.138051 
L 348.145455 283.097658 
L 348.709091 282.595751 
L 349.272727 280.883875 
L 349.836364 283.893309 
L 350.963636 281.091627 
L 351.527273 283.26328 
L 352.090909 283.420647 
L 352.654545 280.540404 
L 353.218182 282.820058 
L 353.781818 281.346042 
L 354.345455 283.449135 
L 354.909091 284.981046 
L 355.472727 284.050155 
L 356.036364 283.338522 
L 356.6 280.791115 
L 357.163636 279.196911 
L 357.727273 279.197924 
L 358.290909 281.533004 
L 358.854545 282.188076 
L 359.418182 280.291261 
L 359.981818 282.495283 
L 360.545455 283.967892 
L 361.109091 276.859879 
L 361.672727 280.758703 
L 362.236364 281.698582 
L 362.8 276.031725 
L 363.363636 279.269679 
L 363.927273 276.954207 
L 364.490909 279.116703 
L 365.054545 279.328518 
L 365.618182 273.14215 
L 366.181818 280.661905 
L 366.745455 283.841131 
L 367.872727 280.380243 
L 368.436364 278.949304 
L 369 282.065127 
L 369.563636 282.59572 
L 370.127273 276.037545 
L 370.690909 280.103538 
L 371.254545 281.577946 
L 371.818182 279.588204 
L 372.381818 282.07834 
L 372.945455 283.925264 
L 373.509091 280.119424 
L 374.072727 282.477911 
L 374.636364 281.882534 
L 375.2 284.704564 
L 375.763636 283.368508 
L 376.327273 284.214689 
L 376.890909 272.858393 
L 377.454545 285.530586 
L 378.018182 286.349138 
L 378.581818 280.854652 
L 379.145455 283.386861 
L 379.709091 283.595885 
L 380.272727 286.018729 
L 380.836364 279.901119 
L 381.4 280.391399 
L 381.963636 279.703759 
L 382.527273 285.89855 
L 383.654545 280.835547 
L 384.218182 279.864252 
L 384.781818 278.093881 
L 385.345455 279.197856 
L 385.909091 276.532798 
L 386.472727 278.363839 
L 387.036364 276.093944 
L 387.6 280.586805 
L 388.163636 283.934259 
L 388.727273 283.434685 
L 389.290909 280.073113 
L 389.854545 282.5908 
L 390.418182 283.883779 
L 390.981818 284.391676 
L 391.545455 282.758961 
L 392.109091 285.39985 
L 392.672727 279.723811 
L 393.236364 281.966352 
L 393.8 278.121206 
L 394.363636 284.32589 
L 394.927273 280.688527 
L 395.490909 276.15028 
L 396.054545 281.258043 
L 396.618182 281.907546 
L 397.181818 283.0264 
L 397.745455 277.891967 
L 398.309091 278.783522 
L 398.872727 281.382409 
L 399.436364 279.094577 
L 400 285.15891 
L 400.563636 283.59123 
L 401.127273 273.343119 
L 402.254545 283.29471 
L 402.818182 281.823741 
L 403.381818 275.019384 
L 403.945455 282.14595 
L 404.509091 283.618757 
L 405.072727 274.797762 
L 405.636364 280.129116 
L 406.2 276.115065 
L 406.763636 274.246343 
L 407.327273 279.223828 
L 407.890909 279.852527 
L 408.454545 281.500217 
L 409.018182 276.413828 
L 410.145455 284.232855 
L 410.709091 284.724316 
L 411.272727 283.56793 
L 411.836364 279.111954 
L 412.4 279.975936 
L 412.963636 282.501042 
L 413.527273 274.684316 
L 414.090909 281.355063 
L 414.654545 279.809728 
L 415.218182 281.581742 
L 416.345455 276.046498 
L 416.909091 282.214624 
L 417.472727 282.126053 
L 418.036364 278.824014 
L 418.6 277.355479 
L 419.163636 278.803088 
L 419.727273 277.639973 
L 420.290909 282.224002 
L 420.854545 280.374748 
L 421.981818 282.90721 
L 422.545455 283.630083 
L 423.109091 280.431232 
L 424.236364 285.175809 
L 424.8 285.655839 
L 425.363636 285.154964 
L 425.927273 284.162597 
L 426.490909 285.938412 
L 427.054545 286.787053 
L 427.618182 282.184049 
L 428.181818 284.274494 
L 428.745455 282.672499 
L 429.309091 281.485054 
L 429.872727 285.701017 
L 430.436364 287.451269 
L 431 283.30667 
L 431.563636 283.602016 
L 432.127273 286.002248 
L 432.690909 285.764752 
L 433.254545 278.406421 
L 433.818182 280.918619 
L 434.381818 270.382096 
L 434.945455 282.483422 
L 435.509091 279.517757 
L 436.072727 280.756598 
L 437.2 287.902765 
L 437.763636 281.985571 
L 438.327273 280.203277 
L 438.890909 280.95077 
L 439.454545 282.957036 
L 440.018182 278.43216 
L 440.581818 284.076948 
L 441.145455 281.018257 
L 441.709091 282.755643 
L 442.272727 284.125421 
L 442.836364 276.056939 
L 443.4 276.657447 
L 443.963636 282.258945 
L 444.527273 285.832855 
L 445.090909 285.462046 
L 445.654545 285.260898 
L 446.218182 281.396486 
L 446.781818 287.017328 
L 447.345455 288.012182 
L 447.909091 286.18081 
L 449.036364 286.523064 
L 449.6 284.919629 
L 450.163636 287.727597 
L 450.727273 286.201993 
L 451.290909 284.329245 
L 451.854545 284.527736 
L 452.418182 288.552211 
L 453.545455 271.280553 
L 454.109091 272.598198 
L 454.672727 272.605963 
L 455.236364 275.496878 
L 455.8 280.963756 
L 456.363636 275.667536 
L 456.927273 280.674609 
L 457.490909 281.218235 
L 458.054545 283.76868 
L 458.618182 279.746768 
L 459.181818 279.960119 
L 459.745455 278.095712 
L 460.309091 278.521411 
L 460.872727 279.990354 
L 461.436364 279.033165 
L 462 274.736941 
L 462.563636 287.36435 
L 463.127273 286.247611 
L 463.690909 285.697295 
L 464.254545 286.77743 
L 464.818182 286.64848 
L 465.381818 285.96667 
L 466.509091 286.741632 
L 467.072727 281.440688 
L 467.636364 281.009483 
L 468.2 282.31538 
L 468.763636 286.915377 
L 469.327273 285.772086 
L 469.890909 285.365098 
L 470.454545 277.644023 
L 471.018182 275.476354 
L 471.581818 281.064759 
L 472.145455 280.562683 
L 472.709091 270.281661 
L 473.272727 279.209678 
L 473.836364 279.197751 
L 474.4 277.821236 
L 474.963636 279.671676 
L 475.527273 268.152574 
L 476.090909 281.4364 
L 476.654545 283.742577 
L 477.218182 284.766068 
L 477.781818 277.770396 
L 478.345455 284.133096 
L 478.909091 283.989621 
L 479.472727 281.740707 
L 480.036364 271.604303 
L 480.6 268.78787 
L 481.163636 269.955489 
L 481.727273 275.109488 
L 482.290909 278.501213 
L 482.854545 278.697972 
L 483.418182 276.105702 
L 483.981818 266.077135 
L 484.545455 266.000201 
L 485.109091 271.660209 
L 485.672727 269.938192 
L 486.236364 271.32773 
L 486.8 273.118539 
L 487.363636 268.26568 
L 487.927273 270.340673 
L 488.490909 262.422056 
L 489.054545 269.598859 
L 489.618182 270.204072 
L 490.181818 260.39723 
L 490.745455 265.645548 
L 491.309091 268.125078 
L 491.872727 263.991131 
L 492.436364 263.630826 
L 493 269.108399 
L 493.563636 269.577315 
L 494.127273 266.565881 
L 494.690909 266.784686 
L 495.254545 270.615714 
L 495.818182 262.747162 
L 496.381818 265.797028 
L 496.945455 268.079919 
L 497.509091 267.61838 
L 498.072727 258.214045 
L 498.636364 263.685081 
L 499.2 255.235368 
L 499.763636 262.494744 
L 500.327273 256.472223 
L 500.890909 257.041755 
L 501.454545 279.035843 
L 502.018182 281.910642 
L 502.581818 283.941465 
L 503.145455 283.211753 
L 503.709091 284.701166 
L 504.272727 283.558287 
L 504.836364 283.265136 
L 505.4 286.857621 
L 505.963636 286.699595 
L 506.527273 287.118457 
L 507.090909 281.892655 
L 507.654545 286.127863 
L 508.218182 287.201931 
L 508.781818 288.031683 
L 509.345455 287.048442 
L 510.472727 285.956537 
L 511.036364 280.79572 
L 511.6 284.154886 
L 512.163636 279.374995 
L 512.727273 284.518556 
L 513.290909 279.203308 
L 513.854545 286.374271 
L 514.418182 280.179626 
L 515.545455 286.332679 
L 516.109091 281.677605 
L 516.672727 283.079385 
L 517.236364 278.941856 
L 517.8 273.266477 
L 518.363636 286.88661 
L 518.927273 285.137484 
L 520.054545 278.934605 
L 520.618182 271.692957 
L 521.181818 286.048791 
L 521.745455 284.553965 
L 522.309091 281.562678 
L 522.872727 274.083632 
L 523.436364 275.748071 
L 524 273.582467 
L 524.563636 272.292704 
L 525.127273 273.829859 
L 525.690909 266.950106 
L 526.254545 273.148621 
L 526.818182 271.247846 
L 527.381818 283.386297 
L 527.945455 288.154092 
L 528.509091 284.596478 
L 529.072727 282.719915 
L 529.636364 282.762242 
L 530.2 286.977598 
L 530.763636 282.463897 
L 531.327273 279.00015 
L 531.890909 280.281291 
L 532.454545 286.910156 
L 533.018182 284.804181 
L 533.581818 285.362223 
L 534.145455 278.099248 
L 534.709091 283.438835 
L 535.272727 281.307219 
L 535.836364 280.200908 
L 536.4 277.967631 
L 536.963636 278.241846 
L 537.527273 270.921974 
L 538.090909 268.663168 
L 538.654545 271.630839 
L 539.218182 273.756541 
L 539.781818 261.636174 
L 540.345455 269.993999 
L 540.909091 265.980428 
L 541.472727 269.730958 
L 542.036364 269.323871 
L 542.6 266.025291 
L 543.163636 267.593002 
L 543.727273 265.959424 
L 544.290909 265.260132 
L 544.854545 262.162042 
L 545.418182 239.042417 
L 545.981818 244.624647 
L 546.545455 246.936472 
L 547.109091 253.915527 
L 547.672727 255.496506 
L 548.236364 247.19277 
L 548.8 259.020763 
L 549.363636 261.592918 
L 549.927273 269.485555 
L 550.490909 270.536094 
L 551.054545 269.660977 
L 551.618182 266.992781 
L 552.181818 265.201792 
L 552.745455 270.475314 
L 553.309091 269.3572 
L 553.872727 271.0901 
L 554.436364 269.180803 
L 555 266.298346 
L 555.563636 277.638385 
L 556.127273 271.307538 
L 556.690909 272.063329 
L 557.254545 271.980871 
L 557.818182 265.391725 
L 558.381818 267.08707 
L 559.509091 275.124603 
L 560.636364 264.759692 
L 561.2 269.313726 
L 561.763636 271.706036 
L 562.327273 268.090666 
L 562.890909 263.144708 
L 563.454545 264.492927 
L 564.018182 264.406925 
L 564.581818 263.729844 
L 565.145455 264.471634 
L 565.709091 262.618951 
L 566.272727 263.591595 
L 566.836364 265.699765 
L 567.4 265.03292 
L 567.963636 266.873991 
L 568.527273 261.912875 
L 569.090909 266.244038 
L 569.654545 262.429388 
L 570.218182 260.517153 
L 570.781818 261.692583 
L 571.345455 261.320806 
L 571.909091 263.035454 
L 572.472727 252.502076 
L 573.036364 249.593409 
L 573.6 270.867699 
L 574.163636 275.454158 
L 574.727273 276.7115 
L 575.290909 276.781624 
L 575.854545 280.639869 
L 576.418182 282.186471 
L 576.981818 278.825944 
L 577.545455 284.745575 
L 578.109091 286.349885 
L 579.236364 283.995899 
L 579.8 284.904233 
L 580.363636 284.491421 
L 580.927273 286.415361 
L 581.490909 285.089071 
L 582.054545 286.877282 
L 582.618182 284.935782 
L 583.181818 286.11952 
L 583.745455 285.623932 
L 584.309091 287.20508 
L 584.872727 285.487979 
L 585.436364 280.521151 
L 586 287.278604 
L 586.563636 285.127862 
L 587.127273 286.822562 
L 587.690909 285.218159 
L 588.254545 287.77459 
L 588.818182 284.741929 
L 589.381818 286.70875 
L 589.945455 287.535831 
L 590.509091 289.604496 
L 591.072727 285.777746 
L 591.636364 286.902241 
L 592.2 287.524771 
L 592.763636 286.260622 
L 593.327273 286.324017 
L 593.890909 288.246125 
L 594.454545 287.336681 
L 595.018182 285.318328 
L 595.581818 287.923582 
L 596.145455 288.973609 
L 596.709091 289.710121 
L 597.272727 289.175822 
L 597.836364 288.478893 
L 598.4 287.592425 
L 598.963636 288.570059 
L 599.527273 288.687218 
L 600.090909 285.892489 
L 600.654545 288.860166 
L 601.218182 284.337883 
L 601.781818 284.395894 
L 602.345455 285.63667 
L 602.909091 285.320155 
L 603.472727 287.97457 
L 604.036364 288.047463 
L 604.6 289.285812 
L 605.163636 288.749384 
L 605.727273 286.397975 
L 606.290909 286.407369 
L 606.854545 286.214246 
L 607.418182 287.507058 
L 607.981818 287.201171 
L 608.545455 289.107552 
L 609.109091 288.9332 
L 609.672727 289.063886 
L 610.236364 286.197077 
L 610.8 288.373632 
L 611.927273 284.521545 
L 612.490909 289.697374 
L 613.054545 286.42902 
L 613.618182 285.380238 
L 614.181818 287.024392 
L 614.745455 287.149392 
L 615.309091 288.295008 
L 615.872727 288.657045 
L 616.436364 289.260499 
L 617 287.887224 
L 617.563636 287.758621 
L 618.127273 287.221742 
L 618.690909 287.078733 
L 619.254545 289.495054 
L 619.818182 289.981069 
L 620.381818 288.572395 
L 620.945455 287.867651 
L 621.509091 287.784943 
L 622.072727 287.114263 
L 622.636364 289.518855 
L 622.636364 289.518855 
" clip-path="url(#pb352616e0e)" style="fill: none; stroke: #1f77b4; stroke-width: 1.5; stroke-linecap: square"/>
   </g>
   <g id="line2d_14">
    <path d="M 115.363636 304.824996 
L 115.927273 304.868917 
L 118.181818 305.455532 
L 118.745455 305.282992 
L 119.309091 305.624304 
L 119.872727 305.714325 
L 120.436364 305.401732 
L 121 306.086441 
L 121.563636 306.067343 
L 122.127273 306.274698 
L 122.690909 305.888658 
L 123.254545 305.671948 
L 123.818182 304.437058 
L 124.381818 304.711807 
L 124.945455 306.027962 
L 125.509091 305.370985 
L 126.072727 305.272738 
L 126.636364 304.745954 
L 127.2 305.835402 
L 127.763636 305.366301 
L 128.327273 305.185875 
L 129.454545 305.816901 
L 130.018182 305.19929 
L 131.145455 305.71136 
L 131.709091 306.24101 
L 132.836364 305.826062 
L 133.4 305.766956 
L 133.963636 305.003023 
L 134.527273 305.113561 
L 135.090909 306.207276 
L 135.654545 306.3426 
L 136.218182 305.658251 
L 136.781818 305.696873 
L 137.345455 305.148176 
L 137.909091 306.046455 
L 138.472727 306.540301 
L 139.036364 305.224006 
L 140.163636 306.524918 
L 140.727273 305.646433 
L 141.290909 305.773068 
L 141.854545 305.557045 
L 142.418182 305.69357 
L 142.981818 305.196421 
L 143.545455 305.156875 
L 144.109091 306.143933 
L 144.672727 305.573245 
L 145.236364 305.17802 
L 145.8 305.517244 
L 146.363636 306.230027 
L 146.927273 305.827595 
L 147.490909 305.585048 
L 148.054545 304.962598 
L 148.618182 304.765083 
L 149.181818 305.649574 
L 149.745455 305.694763 
L 150.872727 306.112667 
L 151.436364 305.895811 
L 152 305.089009 
L 152.563636 306.02813 
L 153.127273 306.141643 
L 153.690909 306.622754 
L 154.254545 305.098904 
L 154.818182 305.472806 
L 155.381818 305.386267 
L 155.945455 305.981169 
L 156.509091 305.264989 
L 157.072727 305.540046 
L 157.636364 304.05703 
L 158.2 306.117398 
L 158.763636 305.547674 
L 159.327273 305.657892 
L 159.890909 306.547687 
L 160.454545 306.030155 
L 161.018182 305.217097 
L 161.581818 305.576543 
L 162.145455 305.675121 
L 163.272727 304.741327 
L 163.836364 305.52771 
L 164.4 306.533651 
L 164.963636 305.136659 
L 165.527273 304.754889 
L 166.090909 304.900684 
L 166.654545 305.378706 
L 167.218182 305.549062 
L 167.781818 305.324255 
L 168.345455 305.78832 
L 168.909091 305.873206 
L 169.472727 306.440879 
L 170.036364 304.635417 
L 170.6 306.033555 
L 171.163636 305.579283 
L 171.727273 305.751184 
L 172.290909 306.477186 
L 172.854545 304.855839 
L 173.418182 306.343009 
L 173.981818 305.035348 
L 174.545455 306.446774 
L 175.109091 304.635305 
L 175.672727 305.923941 
L 176.236364 305.014743 
L 176.8 305.346829 
L 177.363636 304.984981 
L 177.927273 305.74424 
L 178.490909 305.998714 
L 179.054545 304.698916 
L 179.618182 305.794651 
L 180.181818 305.619399 
L 180.745455 304.58781 
L 181.309091 306.15448 
L 181.872727 305.03515 
L 182.436364 305.463435 
L 183 304.755514 
L 183.563636 304.896363 
L 184.127273 305.985418 
L 184.690909 306.195865 
L 185.254545 305.183096 
L 185.818182 304.821451 
L 186.381818 305.485357 
L 186.945455 304.851303 
L 188.072727 306.211665 
L 188.636364 306.017037 
L 189.2 304.892289 
L 189.763636 304.924925 
L 190.327273 305.89236 
L 190.890909 305.681698 
L 191.454545 304.97159 
L 192.018182 305.24063 
L 192.581818 305.377329 
L 193.145455 306.020286 
L 193.709091 305.25268 
L 194.272727 305.069085 
L 194.836364 305.804381 
L 195.4 305.46973 
L 195.963636 304.244476 
L 196.527273 305.471188 
L 197.090909 304.873306 
L 197.654545 305.864874 
L 198.218182 304.122038 
L 198.781818 304.615017 
L 199.345455 304.878325 
L 199.909091 305.909293 
L 200.472727 305.227112 
L 201.036364 305.372687 
L 201.6 306.332133 
L 202.163636 304.975368 
L 202.727273 304.599283 
L 203.290909 305.050422 
L 203.854545 304.94718 
L 204.981818 305.382572 
L 205.545455 306.081283 
L 206.109091 305.018771 
L 206.672727 305.440094 
L 207.8 305.591404 
L 208.363636 305.302579 
L 208.927273 304.772965 
L 209.490909 305.722214 
L 210.054545 305.061262 
L 211.181818 306.118492 
L 211.745455 305.565545 
L 212.309091 305.745437 
L 212.872727 305.516933 
L 213.436364 305.476372 
L 214 305.297793 
L 214.563636 305.631041 
L 215.127273 305.811089 
L 215.690909 305.074066 
L 216.254545 305.388658 
L 216.818182 305.44829 
L 217.381818 305.31431 
L 217.945455 305.442451 
L 218.509091 304.5125 
L 219.072727 304.944427 
L 219.636364 305.538539 
L 220.763636 304.602076 
L 221.327273 305.449002 
L 221.890909 305.870386 
L 222.454545 304.41646 
L 223.018182 305.441861 
L 223.581818 304.391035 
L 224.709091 304.979443 
L 225.272727 304.6094 
L 225.836364 305.363415 
L 226.4 305.461434 
L 226.963636 304.411432 
L 227.527273 305.078979 
L 228.090909 305.125665 
L 228.654545 304.539466 
L 229.218182 305.092005 
L 229.781818 305.295573 
L 230.345455 305.991943 
L 230.909091 305.612991 
L 231.472727 304.386185 
L 232.036364 304.644215 
L 232.6 306.313749 
L 233.163636 305.126394 
L 233.727273 305.40905 
L 235.418182 305.214309 
L 235.981818 305.566652 
L 237.109091 305.105341 
L 237.672727 305.013609 
L 238.236364 305.670106 
L 238.8 304.704854 
L 239.363636 305.423725 
L 239.927273 305.213456 
L 240.490909 304.725846 
L 242.181818 305.665028 
L 242.745455 305.359092 
L 243.309091 305.802272 
L 243.872727 304.659994 
L 244.436364 305.325796 
L 245 305.109159 
L 245.563636 305.059718 
L 246.127273 305.314451 
L 247.254545 305.574628 
L 247.818182 305.200318 
L 248.381818 305.038369 
L 248.945455 306.106927 
L 250.072727 305.8441 
L 250.636364 304.849821 
L 251.763636 305.320478 
L 252.327273 304.972561 
L 252.890909 305.573131 
L 253.454545 305.081062 
L 254.018182 305.463933 
L 254.581818 304.807266 
L 255.145455 304.595489 
L 255.709091 304.645532 
L 256.272727 305.637361 
L 257.4 305.431382 
L 257.963636 305.480867 
L 258.527273 305.197209 
L 259.090909 305.693036 
L 259.654545 305.473641 
L 260.218182 304.974548 
L 260.781818 305.205659 
L 262.472727 305.206341 
L 263.036364 304.987252 
L 263.6 305.526216 
L 264.163636 305.843342 
L 264.727273 305.153944 
L 265.290909 305.182033 
L 265.854545 305.425959 
L 266.418182 305.002295 
L 266.981818 304.866729 
L 267.545455 305.2456 
L 268.109091 305.321141 
L 269.236364 304.685764 
L 270.363636 305.514937 
L 270.927273 305.623525 
L 271.490909 294.209856 
L 272.054545 305.002114 
L 272.618182 305.301395 
L 273.181818 305.21802 
L 274.309091 305.430845 
L 274.872727 305.259534 
L 275.436364 305.589084 
L 276 305.384071 
L 276.563636 304.979491 
L 277.127273 305.395478 
L 277.690909 305.376988 
L 278.254545 305.544046 
L 278.818182 305.585944 
L 279.381818 305.007834 
L 279.945455 305.444871 
L 280.509091 305.47346 
L 281.072727 305.134502 
L 281.636364 305.127593 
L 282.2 305.746253 
L 283.327273 305.050271 
L 283.890909 305.342971 
L 285.018182 305.134129 
L 285.581818 305.239185 
L 286.145455 305.019016 
L 288.963636 305.42334 
L 289.527273 305.222775 
L 290.090909 305.231734 
L 290.654545 304.892942 
L 291.218182 305.355914 
L 291.781818 305.574172 
L 292.345455 305.107523 
L 292.909091 305.413451 
L 293.472727 305.166413 
L 294.036364 305.399422 
L 294.6 305.402538 
L 295.727273 304.886514 
L 296.290909 304.945202 
L 296.854545 305.320324 
L 297.418182 305.040811 
L 297.981818 305.122811 
L 298.545455 305.353196 
L 299.109091 304.385693 
L 299.672727 305.056175 
L 300.236364 305.158116 
L 300.8 305.630484 
L 301.363636 304.8897 
L 301.927273 305.141492 
L 303.054545 305.284141 
L 304.181818 304.888652 
L 304.745455 305.217643 
L 305.309091 305.138871 
L 305.872727 304.716257 
L 306.436364 305.47989 
L 307 304.851016 
L 307.563636 305.421513 
L 308.127273 305.431452 
L 308.690909 305.157239 
L 309.254545 305.069677 
L 309.818182 305.189336 
L 310.381818 304.972397 
L 310.945455 305.409682 
L 311.509091 304.889551 
L 312.072727 305.452374 
L 312.636364 304.908711 
L 313.2 304.881701 
L 313.763636 305.285482 
L 314.327273 305.396899 
L 314.890909 305.010509 
L 315.454545 305.048065 
L 316.018182 305.225115 
L 317.145455 305.340925 
L 317.709091 304.993674 
L 318.272727 305.666436 
L 318.836364 304.820964 
L 319.4 304.51241 
L 319.963636 305.290245 
L 320.527273 305.422018 
L 321.090909 305.042448 
L 321.654545 305.160157 
L 322.218182 305.884288 
L 322.781818 305.083418 
L 323.345455 305.162458 
L 323.909091 304.817276 
L 324.472727 305.160462 
L 325.036364 304.997212 
L 325.6 305.036528 
L 326.163636 304.821851 
L 326.727273 305.24932 
L 327.290909 304.859095 
L 327.854545 305.332267 
L 328.418182 304.790263 
L 328.981818 304.964388 
L 329.545455 305.254925 
L 330.672727 304.905694 
L 331.236364 304.920581 
L 331.8 305.395297 
L 332.363636 305.41312 
L 332.927273 305.159892 
L 333.490909 305.492364 
L 334.054545 305.142202 
L 334.618182 305.266806 
L 335.745455 304.64492 
L 336.309091 305.867219 
L 336.872727 305.586905 
L 337.436364 305.512187 
L 338 304.736348 
L 338.563636 304.949167 
L 339.127273 305.384367 
L 339.690909 305.114134 
L 341.381818 304.885086 
L 341.945455 305.197008 
L 342.509091 304.749605 
L 343.072727 300.358917 
L 343.636364 303.099143 
L 344.2 304.797591 
L 345.327273 304.738967 
L 345.890909 304.928073 
L 346.454545 304.833324 
L 347.581818 304.9407 
L 348.145455 304.869072 
L 350.4 304.994232 
L 350.963636 304.843273 
L 351.527273 305.164815 
L 352.654545 305.385593 
L 353.218182 305.253092 
L 353.781818 305.497342 
L 354.345455 304.921549 
L 355.472727 305.235537 
L 356.036364 304.791602 
L 356.6 305.280918 
L 357.163636 305.148764 
L 357.727273 305.317508 
L 358.290909 304.948346 
L 358.854545 305.35996 
L 359.418182 304.956108 
L 359.981818 305.431539 
L 360.545455 304.818531 
L 361.109091 305.369869 
L 361.672727 305.339712 
L 362.236364 304.605752 
L 362.8 305.661915 
L 363.927273 305.036174 
L 364.490909 305.387041 
L 365.054545 305.188709 
L 365.618182 305.287153 
L 366.181818 305.520796 
L 366.745455 304.630142 
L 367.309091 305.385157 
L 368.436364 305.072304 
L 369 305.232131 
L 369.563636 305.077688 
L 371.254545 305.233108 
L 371.818182 305.555616 
L 372.381818 305.297136 
L 372.945455 305.339335 
L 373.509091 304.917286 
L 374.072727 305.05196 
L 375.2 304.462807 
L 375.763636 305.077289 
L 376.327273 305.071816 
L 376.890909 305.449494 
L 378.018182 304.696626 
L 378.581818 305.516282 
L 379.709091 305.033777 
L 380.272727 304.937688 
L 380.836364 305.096454 
L 381.4 305.422206 
L 381.963636 304.976415 
L 382.527273 304.754295 
L 383.090909 304.99764 
L 383.654545 304.935779 
L 384.218182 305.486808 
L 385.345455 305.204745 
L 386.472727 305.558986 
L 387.036364 305.052243 
L 387.6 305.663993 
L 388.163636 304.97958 
L 388.727273 304.871552 
L 389.854545 305.176418 
L 390.981818 305.131549 
L 391.545455 305.101532 
L 392.109091 304.935903 
L 392.672727 305.471597 
L 393.236364 305.460281 
L 393.8 304.902077 
L 394.363636 305.447482 
L 394.927273 305.280092 
L 395.490909 305.50994 
L 396.054545 304.565145 
L 397.181818 305.48865 
L 397.745455 305.223419 
L 398.309091 305.922799 
L 398.872727 304.722482 
L 399.436364 305.007452 
L 400 305.001317 
L 400.563636 306.031757 
L 401.127273 305.711652 
L 401.690909 304.839272 
L 402.254545 304.653837 
L 402.818182 305.142523 
L 403.945455 305.205999 
L 404.509091 304.909986 
L 405.072727 305.894481 
L 405.636364 306.191048 
L 406.2 305.37345 
L 406.763636 306.335133 
L 407.327273 305.997972 
L 407.890909 305.02992 
L 408.454545 305.35412 
L 409.018182 305.024817 
L 409.581818 306.205473 
L 410.709091 304.652954 
L 412.4 306.00169 
L 412.963636 305.401133 
L 413.527273 305.906126 
L 414.090909 304.944228 
L 414.654545 304.776496 
L 415.218182 305.386143 
L 416.345455 305.824811 
L 417.472727 304.94172 
L 418.036364 305.563598 
L 418.6 305.44808 
L 419.163636 304.412286 
L 419.727273 305.145406 
L 420.290909 304.48522 
L 420.854545 305.375053 
L 421.418182 305.338965 
L 421.981818 305.706592 
L 422.545455 305.209443 
L 423.109091 302.654039 
L 423.672727 304.569433 
L 424.236364 304.78866 
L 425.363636 304.842772 
L 426.490909 304.86877 
L 427.054545 305.17871 
L 427.618182 304.9378 
L 428.181818 305.044988 
L 428.745455 305.459988 
L 429.872727 305.51627 
L 430.436364 304.976161 
L 431 304.657786 
L 431.563636 305.175175 
L 432.127273 304.919642 
L 432.690909 305.677118 
L 433.254545 305.817887 
L 433.818182 305.305829 
L 434.381818 305.250668 
L 434.945455 304.98996 
L 435.509091 306.159449 
L 436.072727 305.152818 
L 436.636364 305.568797 
L 437.763636 304.130616 
L 438.327273 305.710431 
L 438.890909 305.265022 
L 439.454545 304.364887 
L 440.018182 305.289429 
L 440.581818 305.240693 
L 441.145455 304.941693 
L 441.709091 305.588748 
L 442.272727 305.399388 
L 442.836364 306.168482 
L 443.4 306.16843 
L 443.963636 305.529145 
L 444.527273 305.345811 
L 445.090909 304.953518 
L 445.654545 304.302315 
L 446.218182 304.821859 
L 446.781818 304.913928 
L 447.909091 304.799857 
L 448.472727 304.938676 
L 449.036364 304.910592 
L 449.6 304.99571 
L 450.163636 305.283155 
L 450.727273 305.381245 
L 451.290909 305.315049 
L 451.854545 305.707658 
L 452.418182 305.707416 
L 452.981818 305.407573 
L 453.545455 305.763563 
L 454.109091 305.011364 
L 454.672727 304.584135 
L 455.236364 306.628979 
L 456.363636 305.911005 
L 456.927273 304.980687 
L 457.490909 305.908633 
L 458.054545 305.054369 
L 458.618182 305.642564 
L 459.181818 306.414553 
L 459.745455 306.388421 
L 460.309091 305.183765 
L 460.872727 305.863774 
L 461.436364 306.318585 
L 462 302.987955 
L 462.563636 304.704103 
L 463.127273 304.882535 
L 463.690909 304.724347 
L 465.381818 304.840035 
L 465.945455 304.929461 
L 466.509091 305.305462 
L 467.072727 306.022438 
L 467.636364 306.227069 
L 468.2 306.660709 
L 468.763636 303.929689 
L 469.327273 304.585081 
L 469.890909 305.628154 
L 470.454545 306.392114 
L 471.018182 306.911453 
L 471.581818 305.897911 
L 472.145455 307.119907 
L 472.709091 306.464491 
L 473.272727 306.556631 
L 473.836364 306.140805 
L 474.4 306.361392 
L 474.963636 306.27131 
L 475.527273 306.603051 
L 476.090909 300.015725 
L 476.654545 305.217411 
L 477.218182 305.616699 
L 477.781818 305.408669 
L 478.345455 305.519507 
L 478.909091 306.190356 
L 479.472727 306.364528 
L 480.036364 307.261655 
L 481.163636 307.01482 
L 481.727273 307.477299 
L 482.854545 306.483488 
L 483.418182 307.172955 
L 484.545455 306.580041 
L 485.109091 307.400807 
L 486.236364 307.658335 
L 487.927273 307.497211 
L 489.618182 307.672083 
L 490.181818 307.396452 
L 490.745455 307.684261 
L 491.309091 307.594327 
L 491.872727 307.722729 
L 493.563636 307.657924 
L 494.127273 307.402768 
L 494.690909 307.742719 
L 495.818182 307.749588 
L 496.381818 307.20908 
L 496.945455 307.646751 
L 497.509091 307.572985 
L 498.072727 307.728547 
L 500.327273 307.65837 
L 500.890909 307.197772 
L 501.454545 304.393121 
L 502.018182 304.789371 
L 502.581818 304.270416 
L 503.145455 304.794739 
L 505.4 304.721232 
L 505.963636 304.853887 
L 506.527273 304.683498 
L 507.090909 304.904793 
L 508.218182 304.877925 
L 508.781818 304.729186 
L 509.909091 304.892889 
L 510.472727 305.085396 
L 511.036364 305.119025 
L 511.6 305.498897 
L 512.163636 305.423413 
L 512.727273 304.917837 
L 513.290909 305.938709 
L 513.854545 304.919813 
L 514.418182 304.727207 
L 514.981818 302.910026 
L 515.545455 305.250034 
L 516.109091 303.490959 
L 516.672727 306.095344 
L 517.236364 304.707065 
L 517.8 305.263202 
L 518.363636 304.357769 
L 518.927273 304.768953 
L 520.054545 306.623109 
L 520.618182 304.623025 
L 521.181818 303.578167 
L 521.745455 303.464024 
L 522.309091 306.602183 
L 522.872727 307.216694 
L 523.436364 307.52213 
L 525.127273 307.642906 
L 526.254545 307.724643 
L 526.818182 307.661004 
L 527.381818 304.627496 
L 527.945455 304.203975 
L 528.509091 304.793158 
L 529.072727 304.684624 
L 530.2 304.924184 
L 530.763636 305.917883 
L 531.327273 306.003088 
L 531.890909 305.686921 
L 532.454545 303.726671 
L 533.018182 304.712336 
L 533.581818 305.173846 
L 534.145455 307.105073 
L 534.709091 304.069303 
L 535.272727 305.670489 
L 535.836364 306.608416 
L 536.4 305.874035 
L 536.963636 307.400726 
L 537.527273 307.270191 
L 538.090909 307.447463 
L 538.654545 306.817331 
L 539.218182 307.075867 
L 539.781818 307.64613 
L 540.909091 307.690449 
L 541.472727 307.738126 
L 542.036364 307.638568 
L 543.163636 307.723156 
L 545.418182 307.733947 
L 545.981818 307.425615 
L 546.545455 307.673568 
L 547.672727 307.735923 
L 548.8 307.723133 
L 549.363636 307.171356 
L 549.927273 304.431585 
L 551.054545 307.638822 
L 552.181818 307.70645 
L 552.745455 307.219414 
L 553.309091 307.481829 
L 553.872727 307.504032 
L 554.436364 307.695451 
L 555 304.763385 
L 556.127273 307.47572 
L 556.690909 307.587306 
L 557.254545 307.080281 
L 557.818182 307.74787 
L 558.381818 307.76007 
L 558.945455 305.561319 
L 559.509091 307.328335 
L 560.072727 307.33075 
L 560.636364 307.079318 
L 561.2 307.752268 
L 561.763636 307.622783 
L 562.890909 307.76958 
L 568.527273 307.748911 
L 569.090909 307.685998 
L 570.218182 307.73276 
L 572.472727 307.671083 
L 573.036364 295.599786 
L 573.6 304.075899 
L 574.163636 304.784557 
L 574.727273 304.486767 
L 575.854545 304.648996 
L 576.418182 304.32436 
L 576.981818 304.726386 
L 577.545455 304.85855 
L 578.109091 304.484532 
L 578.672727 304.808276 
L 580.363636 304.855764 
L 580.927273 304.843574 
L 582.054545 304.950185 
L 582.618182 304.935205 
L 583.181818 304.706992 
L 583.745455 304.653417 
L 584.309091 304.892148 
L 585.436364 304.928413 
L 586.563636 304.788332 
L 587.127273 304.920919 
L 588.254545 304.915663 
L 588.818182 304.491562 
L 589.381818 304.876269 
L 589.945455 304.93435 
L 591.072727 304.787801 
L 592.2 305.016816 
L 593.327273 304.936133 
L 593.890909 304.963311 
L 594.454545 304.699344 
L 595.018182 304.090847 
L 595.581818 304.73196 
L 596.709091 304.854194 
L 597.272727 304.625015 
L 597.836364 304.876399 
L 598.4 304.815594 
L 600.090909 304.978781 
L 600.654545 304.905283 
L 601.218182 305.043949 
L 601.781818 304.948333 
L 602.345455 305.04307 
L 602.909091 304.811777 
L 604.6 304.92905 
L 605.163636 304.221114 
L 605.727273 304.947401 
L 606.290909 305.034232 
L 606.854545 304.888196 
L 607.418182 304.997051 
L 607.981818 304.81391 
L 608.545455 304.940556 
L 609.109091 304.868351 
L 610.236364 305.010683 
L 610.8 304.946204 
L 611.363636 304.711615 
L 612.490909 305.01141 
L 613.054545 304.735471 
L 613.618182 304.809665 
L 614.181818 305.089133 
L 614.745455 304.76924 
L 615.309091 305.019019 
L 615.872727 304.907561 
L 616.436364 304.597543 
L 617 304.943211 
L 617.563636 304.811146 
L 618.127273 304.990095 
L 619.254545 304.924971 
L 619.818182 304.703943 
L 620.945455 304.90673 
L 622.072727 304.730342 
L 622.636364 304.980506 
L 622.636364 304.980506 
" clip-path="url(#pb352616e0e)" style="fill: none; stroke: #ff7f0e; stroke-width: 1.5; stroke-linecap: square"/>
   </g>
   <g id="patch_3">
    <path d="M 90 320.4 
L 90 43.2 
" style="fill: none; stroke: #000000; stroke-width: 0.8; stroke-linejoin: miter; stroke-linecap: square"/>
   </g>
   <g id="patch_4">
    <path d="M 648 320.4 
L 648 43.2 
" style="fill: none; stroke: #000000; stroke-width: 0.8; stroke-linejoin: miter; stroke-linecap: square"/>
   </g>
   <g id="patch_5">
    <path d="M 90 320.4 
L 648 320.4 
" style="fill: none; stroke: #000000; stroke-width: 0.8; stroke-linejoin: miter; stroke-linecap: square"/>
   </g>
   <g id="patch_6">
    <path d="M 90 43.2 
L 648 43.2 
" style="fill: none; stroke: #000000; stroke-width: 0.8; stroke-linejoin: miter; stroke-linecap: square"/>
   </g>
   <g id="text_13">
    <!-- Training -->
    <g transform="translate(345.329063 37.2) scale(0.12 -0.12)">
     <defs>
      <path id="DejaVuSans-54" d="M -19 4666 
L 3928 4666 
L 3928 4134 
L 2272 4134 
L 2272 0 
L 1638 0 
L 1638 4134 
L -19 4134 
L -19 4666 
z
" transform="scale(0.015625)"/>
      <path id="DejaVuSans-72" d="M 2631 2963 
Q 2534 3019 2420 3045 
Q 2306 3072 2169 3072 
Q 1681 3072 1420 2755 
Q 1159 2438 1159 1844 
L 1159 0 
L 581 0 
L 581 3500 
L 1159 3500 
L 1159 2956 
Q 1341 3275 1631 3429 
Q 1922 3584 2338 3584 
Q 2397 3584 2469 3576 
Q 2541 3569 2628 3553 
L 2631 2963 
z
" transform="scale(0.015625)"/>
      <path id="DejaVuSans-61" d="M 2194 1759 
Q 1497 1759 1228 1600 
Q 959 1441 959 1056 
Q 959 750 1161 570 
Q 1363 391 1709 391 
Q 2188 391 2477 730 
Q 2766 1069 2766 1631 
L 2766 1759 
L 2194 1759 
z
M 3341 1997 
L 3341 0 
L 2766 0 
L 2766 531 
Q 2569 213 2275 61 
Q 1981 -91 1556 -91 
Q 1019 -91 701 211 
Q 384 513 384 1019 
Q 384 1609 779 1909 
Q 1175 2209 1959 2209 
L 2766 2209 
L 2766 2266 
Q 2766 2663 2505 2880 
Q 2244 3097 1772 3097 
Q 1472 3097 1187 3025 
Q 903 2953 641 2809 
L 641 3341 
Q 956 3463 1253 3523 
Q 1550 3584 1831 3584 
Q 2591 3584 2966 3190 
Q 3341 2797 3341 1997 
z
" transform="scale(0.015625)"/>
      <path id="DejaVuSans-69" d="M 603 3500 
L 1178 3500 
L 1178 0 
L 603 0 
L 603 3500 
z
M 603 4863 
L 1178 4863 
L 1178 4134 
L 603 4134 
L 603 4863 
z
" transform="scale(0.015625)"/>
      <path id="DejaVuSans-6e" d="M 3513 2113 
L 3513 0 
L 2938 0 
L 2938 2094 
Q 2938 2591 2744 2837 
Q 2550 3084 2163 3084 
Q 1697 3084 1428 2787 
Q 1159 2491 1159 1978 
L 1159 0 
L 581 0 
L 581 3500 
L 1159 3500 
L 1159 2956 
Q 1366 3272 1645 3428 
Q 1925 3584 2291 3584 
Q 2894 3584 3203 3211 
Q 3513 2838 3513 2113 
z
" transform="scale(0.015625)"/>
      <path id="DejaVuSans-67" d="M 2906 1791 
Q 2906 2416 2648 2759 
Q 2391 3103 1925 3103 
Q 1463 3103 1205 2759 
Q 947 2416 947 1791 
Q 947 1169 1205 825 
Q 1463 481 1925 481 
Q 2391 481 2648 825 
Q 2906 1169 2906 1791 
z
M 3481 434 
Q 3481 -459 3084 -895 
Q 2688 -1331 1869 -1331 
Q 1566 -1331 1297 -1286 
Q 1028 -1241 775 -1147 
L 775 -588 
Q 1028 -725 1275 -790 
Q 1522 -856 1778 -856 
Q 2344 -856 2625 -561 
Q 2906 -266 2906 331 
L 2906 616 
Q 2728 306 2450 153 
Q 2172 0 1784 0 
Q 1141 0 747 490 
Q 353 981 353 1791 
Q 353 2603 747 3093 
Q 1141 3584 1784 3584 
Q 2172 3584 2450 3431 
Q 2728 3278 2906 2969 
L 2906 3500 
L 3481 3500 
L 3481 434 
z
" transform="scale(0.015625)"/>
     </defs>
     <use xlink:href="#DejaVuSans-54"/>
     <use xlink:href="#DejaVuSans-72" x="46.333984"/>
     <use xlink:href="#DejaVuSans-61" x="87.447266"/>
     <use xlink:href="#DejaVuSans-69" x="148.726562"/>
     <use xlink:href="#DejaVuSans-6e" x="176.509766"/>
     <use xlink:href="#DejaVuSans-69" x="239.888672"/>
     <use xlink:href="#DejaVuSans-6e" x="267.671875"/>
     <use xlink:href="#DejaVuSans-67" x="331.050781"/>
    </g>
   </g>
   <g id="legend_1">
    <g id="patch_7">
     <path d="M 601.251562 80.55625 
L 641 80.55625 
Q 643 80.55625 643 78.55625 
L 643 50.2 
Q 643 48.2 641 48.2 
L 601.251562 48.2 
Q 599.251562 48.2 599.251562 50.2 
L 599.251562 78.55625 
Q 599.251562 80.55625 601.251562 80.55625 
z
" style="fill: #ffffff; opacity: 0.8; stroke: #cccccc; stroke-linejoin: miter"/>
    </g>
    <g id="line2d_15">
     <path d="M 603.251562 56.298437 
L 613.251562 56.298437 
L 623.251562 56.298437 
" style="fill: none; stroke: #1f77b4; stroke-width: 1.5; stroke-linecap: square"/>
    </g>
    <g id="text_14">
     <!-- G -->
     <g transform="translate(631.251562 59.798437) scale(0.1 -0.1)">
      <defs>
       <path id="DejaVuSans-47" d="M 3809 666 
L 3809 1919 
L 2778 1919 
L 2778 2438 
L 4434 2438 
L 4434 434 
Q 4069 175 3628 42 
Q 3188 -91 2688 -91 
Q 1594 -91 976 548 
Q 359 1188 359 2328 
Q 359 3472 976 4111 
Q 1594 4750 2688 4750 
Q 3144 4750 3555 4637 
Q 3966 4525 4313 4306 
L 4313 3634 
Q 3963 3931 3569 4081 
Q 3175 4231 2741 4231 
Q 1884 4231 1454 3753 
Q 1025 3275 1025 2328 
Q 1025 1384 1454 906 
Q 1884 428 2741 428 
Q 3075 428 3337 486 
Q 3600 544 3809 666 
z
" transform="scale(0.015625)"/>
      </defs>
      <use xlink:href="#DejaVuSans-47"/>
     </g>
    </g>
    <g id="line2d_16">
     <path d="M 603.251562 70.976562 
L 613.251562 70.976562 
L 623.251562 70.976562 
" style="fill: none; stroke: #ff7f0e; stroke-width: 1.5; stroke-linecap: square"/>
    </g>
    <g id="text_15">
     <!-- D -->
     <g transform="translate(631.251562 74.476562) scale(0.1 -0.1)">
      <defs>
       <path id="DejaVuSans-44" d="M 1259 4147 
L 1259 519 
L 2022 519 
Q 2988 519 3436 956 
Q 3884 1394 3884 2338 
Q 3884 3275 3436 3711 
Q 2988 4147 2022 4147 
L 1259 4147 
z
M 628 4666 
L 1925 4666 
Q 3281 4666 3915 4102 
Q 4550 3538 4550 2338 
Q 4550 1131 3912 565 
Q 3275 0 1925 0 
L 628 0 
L 628 4666 
z
" transform="scale(0.015625)"/>
      </defs>
      <use xlink:href="#DejaVuSans-44"/>
     </g>
    </g>
   </g>
  </g>
 </g>
 <defs>
  <clipPath id="pb352616e0e">
   <rect x="90" y="43.2" width="558" height="277.2"/>
  </clipPath>
 </defs>
</svg>
