<?xml version="1.0" encoding="utf-8" standalone="no"?>
<!DOCTYPE svg PUBLIC "-//W3C//DTD SVG 1.1//EN"
  "http://www.w3.org/Graphics/SVG/1.1/DTD/svg11.dtd">
<svg xmlns:xlink="http://www.w3.org/1999/xlink" width="720pt" height="360pt" viewBox="0 0 720 360" xmlns="http://www.w3.org/2000/svg" version="1.1">
 <metadata>
  <rdf:RDF xmlns:dc="http://purl.org/dc/elements/1.1/" xmlns:cc="http://creativecommons.org/ns#" xmlns:rdf="http://www.w3.org/1999/02/22-rdf-syntax-ns#">
   <cc:Work>
    <dc:type rdf:resource="http://purl.org/dc/dcmitype/StillImage"/>
    <dc:date>2023-08-11T20:00:20.744685</dc:date>
    <dc:format>image/svg+xml</dc:format>
    <dc:creator>
     <cc:Agent>
      <dc:title>Matplotlib v3.7.2, https://matplotlib.org/</dc:title>
     </cc:Agent>
    </dc:creator>
   </cc:Work>
  </rdf:RDF>
 </metadata>
 <defs>
  <style type="text/css">*{stroke-linejoin: round; stroke-linecap: butt}</style>
 </defs>
 <g id="figure_1">
  <g id="patch_1">
   <path d="M 0 360 
L 720 360 
L 720 0 
L 0 0 
z
" style="fill: #ffffff"/>
  </g>
  <g id="axes_1">
   <g id="patch_2">
    <path d="M 90 320.4 
L 648 320.4 
L 648 43.2 
L 90 43.2 
z
" style="fill: #ffffff"/>
   </g>
   <g id="matplotlib.axis_1">
    <g id="xtick_1">
     <g id="line2d_1">
      <defs>
       <path id="mfdc6e83772" d="M 0 0 
L 0 3.5 
" style="stroke: #000000; stroke-width: 0.8"/>
      </defs>
      <g>
       <use xlink:href="#mfdc6e83772" x="115.363636" y="320.4" style="stroke: #000000; stroke-width: 0.8"/>
      </g>
     </g>
     <g id="text_1">
      <!-- 0 -->
      <g transform="translate(112.182386 334.998438) scale(0.1 -0.1)">
       <defs>
        <path id="DejaVuSans-30" d="M 2034 4250 
Q 1547 4250 1301 3770 
Q 1056 3291 1056 2328 
Q 1056 1369 1301 889 
Q 1547 409 2034 409 
Q 2525 409 2770 889 
Q 3016 1369 3016 2328 
Q 3016 3291 2770 3770 
Q 2525 4250 2034 4250 
z
M 2034 4750 
Q 2819 4750 3233 4129 
Q 3647 3509 3647 2328 
Q 3647 1150 3233 529 
Q 2819 -91 2034 -91 
Q 1250 -91 836 529 
Q 422 1150 422 2328 
Q 422 3509 836 4129 
Q 1250 4750 2034 4750 
z
" transform="scale(0.015625)"/>
       </defs>
       <use xlink:href="#DejaVuSans-30"/>
      </g>
     </g>
    </g>
    <g id="xtick_2">
     <g id="line2d_2">
      <g>
       <use xlink:href="#mfdc6e83772" x="228.090909" y="320.4" style="stroke: #000000; stroke-width: 0.8"/>
      </g>
     </g>
     <g id="text_2">
      <!-- 200 -->
      <g transform="translate(218.547159 334.998438) scale(0.1 -0.1)">
       <defs>
        <path id="DejaVuSans-32" d="M 1228 531 
L 3431 531 
L 3431 0 
L 469 0 
L 469 531 
Q 828 903 1448 1529 
Q 2069 2156 2228 2338 
Q 2531 2678 2651 2914 
Q 2772 3150 2772 3378 
Q 2772 3750 2511 3984 
Q 2250 4219 1831 4219 
Q 1534 4219 1204 4116 
Q 875 4013 500 3803 
L 500 4441 
Q 881 4594 1212 4672 
Q 1544 4750 1819 4750 
Q 2544 4750 2975 4387 
Q 3406 4025 3406 3419 
Q 3406 3131 3298 2873 
Q 3191 2616 2906 2266 
Q 2828 2175 2409 1742 
Q 1991 1309 1228 531 
z
" transform="scale(0.015625)"/>
       </defs>
       <use xlink:href="#DejaVuSans-32"/>
       <use xlink:href="#DejaVuSans-30" x="63.623047"/>
       <use xlink:href="#DejaVuSans-30" x="127.246094"/>
      </g>
     </g>
    </g>
    <g id="xtick_3">
     <g id="line2d_3">
      <g>
       <use xlink:href="#mfdc6e83772" x="340.818182" y="320.4" style="stroke: #000000; stroke-width: 0.8"/>
      </g>
     </g>
     <g id="text_3">
      <!-- 400 -->
      <g transform="translate(331.274432 334.998438) scale(0.1 -0.1)">
       <defs>
        <path id="DejaVuSans-34" d="M 2419 4116 
L 825 1625 
L 2419 1625 
L 2419 4116 
z
M 2253 4666 
L 3047 4666 
L 3047 1625 
L 3713 1625 
L 3713 1100 
L 3047 1100 
L 3047 0 
L 2419 0 
L 2419 1100 
L 313 1100 
L 313 1709 
L 2253 4666 
z
" transform="scale(0.015625)"/>
       </defs>
       <use xlink:href="#DejaVuSans-34"/>
       <use xlink:href="#DejaVuSans-30" x="63.623047"/>
       <use xlink:href="#DejaVuSans-30" x="127.246094"/>
      </g>
     </g>
    </g>
    <g id="xtick_4">
     <g id="line2d_4">
      <g>
       <use xlink:href="#mfdc6e83772" x="453.545455" y="320.4" style="stroke: #000000; stroke-width: 0.8"/>
      </g>
     </g>
     <g id="text_4">
      <!-- 600 -->
      <g transform="translate(444.001705 334.998438) scale(0.1 -0.1)">
       <defs>
        <path id="DejaVuSans-36" d="M 2113 2584 
Q 1688 2584 1439 2293 
Q 1191 2003 1191 1497 
Q 1191 994 1439 701 
Q 1688 409 2113 409 
Q 2538 409 2786 701 
Q 3034 994 3034 1497 
Q 3034 2003 2786 2293 
Q 2538 2584 2113 2584 
z
M 3366 4563 
L 3366 3988 
Q 3128 4100 2886 4159 
Q 2644 4219 2406 4219 
Q 1781 4219 1451 3797 
Q 1122 3375 1075 2522 
Q 1259 2794 1537 2939 
Q 1816 3084 2150 3084 
Q 2853 3084 3261 2657 
Q 3669 2231 3669 1497 
Q 3669 778 3244 343 
Q 2819 -91 2113 -91 
Q 1303 -91 875 529 
Q 447 1150 447 2328 
Q 447 3434 972 4092 
Q 1497 4750 2381 4750 
Q 2619 4750 2861 4703 
Q 3103 4656 3366 4563 
z
" transform="scale(0.015625)"/>
       </defs>
       <use xlink:href="#DejaVuSans-36"/>
       <use xlink:href="#DejaVuSans-30" x="63.623047"/>
       <use xlink:href="#DejaVuSans-30" x="127.246094"/>
      </g>
     </g>
    </g>
    <g id="xtick_5">
     <g id="line2d_5">
      <g>
       <use xlink:href="#mfdc6e83772" x="566.272727" y="320.4" style="stroke: #000000; stroke-width: 0.8"/>
      </g>
     </g>
     <g id="text_5">
      <!-- 800 -->
      <g transform="translate(556.728977 334.998438) scale(0.1 -0.1)">
       <defs>
        <path id="DejaVuSans-38" d="M 2034 2216 
Q 1584 2216 1326 1975 
Q 1069 1734 1069 1313 
Q 1069 891 1326 650 
Q 1584 409 2034 409 
Q 2484 409 2743 651 
Q 3003 894 3003 1313 
Q 3003 1734 2745 1975 
Q 2488 2216 2034 2216 
z
M 1403 2484 
Q 997 2584 770 2862 
Q 544 3141 544 3541 
Q 544 4100 942 4425 
Q 1341 4750 2034 4750 
Q 2731 4750 3128 4425 
Q 3525 4100 3525 3541 
Q 3525 3141 3298 2862 
Q 3072 2584 2669 2484 
Q 3125 2378 3379 2068 
Q 3634 1759 3634 1313 
Q 3634 634 3220 271 
Q 2806 -91 2034 -91 
Q 1263 -91 848 271 
Q 434 634 434 1313 
Q 434 1759 690 2068 
Q 947 2378 1403 2484 
z
M 1172 3481 
Q 1172 3119 1398 2916 
Q 1625 2713 2034 2713 
Q 2441 2713 2670 2916 
Q 2900 3119 2900 3481 
Q 2900 3844 2670 4047 
Q 2441 4250 2034 4250 
Q 1625 4250 1398 4047 
Q 1172 3844 1172 3481 
z
" transform="scale(0.015625)"/>
       </defs>
       <use xlink:href="#DejaVuSans-38"/>
       <use xlink:href="#DejaVuSans-30" x="63.623047"/>
       <use xlink:href="#DejaVuSans-30" x="127.246094"/>
      </g>
     </g>
    </g>
   </g>
   <g id="matplotlib.axis_2">
    <g id="ytick_1">
     <g id="line2d_6">
      <defs>
       <path id="m3a57489134" d="M 0 0 
L -3.5 0 
" style="stroke: #000000; stroke-width: 0.8"/>
      </defs>
      <g>
       <use xlink:href="#m3a57489134" x="90" y="307.935662" style="stroke: #000000; stroke-width: 0.8"/>
      </g>
     </g>
     <g id="text_6">
      <!-- 0 -->
      <g transform="translate(76.6375 311.73488) scale(0.1 -0.1)">
       <use xlink:href="#DejaVuSans-30"/>
      </g>
     </g>
    </g>
    <g id="ytick_2">
     <g id="line2d_7">
      <g>
       <use xlink:href="#m3a57489134" x="90" y="264.662271" style="stroke: #000000; stroke-width: 0.8"/>
      </g>
     </g>
     <g id="text_7">
      <!-- 10 -->
      <g transform="translate(70.275 268.461489) scale(0.1 -0.1)">
       <defs>
        <path id="DejaVuSans-31" d="M 794 531 
L 1825 531 
L 1825 4091 
L 703 3866 
L 703 4441 
L 1819 4666 
L 2450 4666 
L 2450 531 
L 3481 531 
L 3481 0 
L 794 0 
L 794 531 
z
" transform="scale(0.015625)"/>
       </defs>
       <use xlink:href="#DejaVuSans-31"/>
       <use xlink:href="#DejaVuSans-30" x="63.623047"/>
      </g>
     </g>
    </g>
    <g id="ytick_3">
     <g id="line2d_8">
      <g>
       <use xlink:href="#m3a57489134" x="90" y="221.38888" style="stroke: #000000; stroke-width: 0.8"/>
      </g>
     </g>
     <g id="text_8">
      <!-- 20 -->
      <g transform="translate(70.275 225.188099) scale(0.1 -0.1)">
       <use xlink:href="#DejaVuSans-32"/>
       <use xlink:href="#DejaVuSans-30" x="63.623047"/>
      </g>
     </g>
    </g>
    <g id="ytick_4">
     <g id="line2d_9">
      <g>
       <use xlink:href="#m3a57489134" x="90" y="178.115489" style="stroke: #000000; stroke-width: 0.8"/>
      </g>
     </g>
     <g id="text_9">
      <!-- 30 -->
      <g transform="translate(70.275 181.914708) scale(0.1 -0.1)">
       <defs>
        <path id="DejaVuSans-33" d="M 2597 2516 
Q 3050 2419 3304 2112 
Q 3559 1806 3559 1356 
Q 3559 666 3084 287 
Q 2609 -91 1734 -91 
Q 1441 -91 1130 -33 
Q 819 25 488 141 
L 488 750 
Q 750 597 1062 519 
Q 1375 441 1716 441 
Q 2309 441 2620 675 
Q 2931 909 2931 1356 
Q 2931 1769 2642 2001 
Q 2353 2234 1838 2234 
L 1294 2234 
L 1294 2753 
L 1863 2753 
Q 2328 2753 2575 2939 
Q 2822 3125 2822 3475 
Q 2822 3834 2567 4026 
Q 2313 4219 1838 4219 
Q 1578 4219 1281 4162 
Q 984 4106 628 3988 
L 628 4550 
Q 988 4650 1302 4700 
Q 1616 4750 1894 4750 
Q 2613 4750 3031 4423 
Q 3450 4097 3450 3541 
Q 3450 3153 3228 2886 
Q 3006 2619 2597 2516 
z
" transform="scale(0.015625)"/>
       </defs>
       <use xlink:href="#DejaVuSans-33"/>
       <use xlink:href="#DejaVuSans-30" x="63.623047"/>
      </g>
     </g>
    </g>
    <g id="ytick_5">
     <g id="line2d_10">
      <g>
       <use xlink:href="#m3a57489134" x="90" y="134.842098" style="stroke: #000000; stroke-width: 0.8"/>
      </g>
     </g>
     <g id="text_10">
      <!-- 40 -->
      <g transform="translate(70.275 138.641317) scale(0.1 -0.1)">
       <use xlink:href="#DejaVuSans-34"/>
       <use xlink:href="#DejaVuSans-30" x="63.623047"/>
      </g>
     </g>
    </g>
    <g id="ytick_6">
     <g id="line2d_11">
      <g>
       <use xlink:href="#m3a57489134" x="90" y="91.568707" style="stroke: #000000; stroke-width: 0.8"/>
      </g>
     </g>
     <g id="text_11">
      <!-- 50 -->
      <g transform="translate(70.275 95.367926) scale(0.1 -0.1)">
       <defs>
        <path id="DejaVuSans-35" d="M 691 4666 
L 3169 4666 
L 3169 4134 
L 1269 4134 
L 1269 2991 
Q 1406 3038 1543 3061 
Q 1681 3084 1819 3084 
Q 2600 3084 3056 2656 
Q 3513 2228 3513 1497 
Q 3513 744 3044 326 
Q 2575 -91 1722 -91 
Q 1428 -91 1123 -41 
Q 819 9 494 109 
L 494 744 
Q 775 591 1075 516 
Q 1375 441 1709 441 
Q 2250 441 2565 725 
Q 2881 1009 2881 1497 
Q 2881 1984 2565 2268 
Q 2250 2553 1709 2553 
Q 1456 2553 1204 2497 
Q 953 2441 691 2322 
L 691 4666 
z
" transform="scale(0.015625)"/>
       </defs>
       <use xlink:href="#DejaVuSans-35"/>
       <use xlink:href="#DejaVuSans-30" x="63.623047"/>
      </g>
     </g>
    </g>
    <g id="ytick_7">
     <g id="line2d_12">
      <g>
       <use xlink:href="#m3a57489134" x="90" y="48.295316" style="stroke: #000000; stroke-width: 0.8"/>
      </g>
     </g>
     <g id="text_12">
      <!-- 60 -->
      <g transform="translate(70.275 52.094535) scale(0.1 -0.1)">
       <use xlink:href="#DejaVuSans-36"/>
       <use xlink:href="#DejaVuSans-30" x="63.623047"/>
      </g>
     </g>
    </g>
   </g>
   <g id="line2d_13">
    <path d="M 115.363636 55.8 
L 115.927273 162.475799 
L 116.490909 188.53901 
L 117.054545 200.337226 
L 117.618182 229.745895 
L 118.181818 182.478657 
L 118.745455 224.128165 
L 119.309091 219.909305 
L 119.872727 231.146324 
L 120.436364 231.15882 
L 121 232.663577 
L 121.563636 222.286111 
L 122.127273 219.937145 
L 122.690909 240.683905 
L 123.254545 234.687874 
L 123.818182 249.325621 
L 124.381818 239.706369 
L 125.509091 245.612905 
L 126.072727 235.572329 
L 126.636364 250.972639 
L 127.2 239.818084 
L 127.763636 245.003102 
L 128.327273 243.54944 
L 128.890909 250.090813 
L 129.454545 247.250316 
L 130.018182 250.527729 
L 130.581818 237.244215 
L 131.145455 239.725018 
L 131.709091 237.625233 
L 132.272727 252.70378 
L 132.836364 255.198177 
L 133.4 248.861327 
L 133.963636 259.832679 
L 134.527273 241.4437 
L 135.090909 252.747186 
L 135.654545 260.010923 
L 136.218182 237.451904 
L 136.781818 257.244193 
L 137.345455 237.916045 
L 137.909091 234.723538 
L 138.472727 261.220513 
L 139.036364 235.526595 
L 139.6 251.570124 
L 140.727273 248.893335 
L 141.290909 255.35889 
L 141.854545 259.781386 
L 142.418182 239.621987 
L 142.981818 226.025726 
L 143.545455 267.14236 
L 144.109091 254.994371 
L 144.672727 256.949902 
L 145.236364 262.079497 
L 145.8 260.850667 
L 146.363636 248.623124 
L 146.927273 249.878593 
L 147.490909 241.728792 
L 148.054545 238.504059 
L 148.618182 253.770671 
L 149.181818 229.37758 
L 149.745455 253.524941 
L 150.309091 258.554087 
L 150.872727 256.210837 
L 151.436364 249.77647 
L 152 251.137669 
L 152.563636 258.808534 
L 153.127273 258.602285 
L 153.690909 249.897172 
L 154.254545 258.290454 
L 154.818182 259.485118 
L 155.381818 255.233127 
L 155.945455 263.082327 
L 156.509091 248.038664 
L 157.072727 257.578618 
L 157.636364 256.247599 
L 158.2 253.721116 
L 158.763636 247.776521 
L 159.327273 255.941298 
L 159.890909 255.419905 
L 160.454545 255.240403 
L 161.018182 238.199586 
L 161.581818 236.086017 
L 162.145455 246.656274 
L 162.709091 248.734694 
L 163.272727 258.724705 
L 163.836364 252.181503 
L 164.4 251.016974 
L 164.963636 249.306951 
L 165.527273 232.423839 
L 166.090909 260.781092 
L 166.654545 246.181543 
L 167.218182 263.958548 
L 167.781818 260.037945 
L 168.345455 259.049638 
L 168.909091 256.862693 
L 169.472727 237.450691 
L 170.036364 260.199339 
L 170.6 257.377813 
L 171.163636 255.471124 
L 171.727273 250.153649 
L 172.290909 268.452369 
L 172.854545 246.287855 
L 173.418182 252.491572 
L 173.981818 250.482474 
L 174.545455 262.041315 
L 175.109091 245.839413 
L 175.672727 257.650632 
L 176.236364 254.016418 
L 176.8 265.087607 
L 177.363636 263.190665 
L 177.927273 246.477576 
L 178.490909 249.943855 
L 179.054545 256.553796 
L 179.618182 254.605116 
L 180.181818 252.051924 
L 180.745455 257.561203 
L 181.309091 257.471588 
L 181.872727 259.862364 
L 182.436364 264.252134 
L 183 262.555428 
L 183.563636 260.057899 
L 184.127273 253.683837 
L 184.690909 264.125175 
L 185.254545 242.056132 
L 185.818182 257.798837 
L 186.381818 254.99083 
L 186.945455 258.412391 
L 187.509091 264.109674 
L 188.072727 258.253436 
L 188.636364 259.881157 
L 189.2 256.420271 
L 189.763636 248.422872 
L 190.327273 264.066701 
L 190.890909 249.557721 
L 191.454545 248.317402 
L 192.018182 260.473545 
L 192.581818 257.668778 
L 193.145455 272.460111 
L 193.709091 269.093343 
L 194.272727 248.589536 
L 194.836364 267.153928 
L 195.4 262.898157 
L 195.963636 257.265835 
L 196.527273 267.229647 
L 197.090909 264.760948 
L 197.654545 265.746379 
L 198.218182 265.843336 
L 198.781818 267.108008 
L 199.345455 259.320658 
L 199.909091 268.322088 
L 200.472727 261.241486 
L 201.036364 262.796384 
L 201.6 269.780678 
L 202.163636 260.857786 
L 202.727273 265.30754 
L 203.290909 268.74449 
L 203.854545 273.453971 
L 204.418182 259.119832 
L 205.545455 265.920785 
L 206.109091 268.735341 
L 206.672727 252.286532 
L 207.8 258.765788 
L 208.363636 265.095914 
L 208.927273 269.544294 
L 209.490909 269.377796 
L 210.054545 264.085194 
L 210.618182 270.935158 
L 211.181818 262.368724 
L 211.745455 262.312157 
L 212.309091 265.886173 
L 212.872727 266.59311 
L 213.436364 268.069239 
L 214 263.406278 
L 214.563636 263.011604 
L 215.127273 273.973623 
L 215.690909 266.116638 
L 216.254545 265.145152 
L 216.818182 271.194325 
L 217.381818 270.148497 
L 217.945455 259.633289 
L 218.509091 271.152586 
L 219.072727 266.214445 
L 219.636364 271.680557 
L 220.2 270.536089 
L 220.763636 273.008403 
L 221.327273 265.850826 
L 221.890909 263.233936 
L 222.454545 266.246267 
L 223.018182 267.856107 
L 223.581818 262.764954 
L 224.145455 266.867952 
L 224.709091 272.636849 
L 225.272727 269.268227 
L 225.836364 274.745381 
L 226.4 268.713163 
L 227.527273 272.966491 
L 228.090909 269.562597 
L 228.654545 262.036363 
L 229.218182 268.6095 
L 229.781818 272.173521 
L 230.345455 272.414988 
L 230.909091 270.470852 
L 231.472727 272.132206 
L 232.036364 265.431677 
L 232.6 265.090062 
L 233.163636 268.696911 
L 233.727273 274.561465 
L 234.290909 267.726259 
L 234.854545 269.40318 
L 235.418182 268.890152 
L 235.981818 269.250053 
L 236.545455 266.816234 
L 237.109091 273.149567 
L 237.672727 273.870383 
L 238.236364 263.195948 
L 238.8 274.43027 
L 239.363636 274.615659 
L 239.927273 269.266304 
L 240.490909 277.230893 
L 241.054545 272.493675 
L 241.618182 265.792815 
L 242.181818 268.749162 
L 242.745455 276.327834 
L 243.309091 270.274429 
L 243.872727 270.517952 
L 244.436364 275.47144 
L 245 272.302432 
L 245.563636 273.717359 
L 246.690909 268.80043 
L 247.254545 271.842318 
L 247.818182 272.078557 
L 248.945455 276.605988 
L 249.509091 273.794797 
L 250.072727 260.951668 
L 250.636364 274.892236 
L 251.2 273.696799 
L 251.763636 277.06808 
L 252.327273 270.184438 
L 252.890909 267.901709 
L 253.454545 272.662274 
L 254.018182 276.21195 
L 254.581818 270.982464 
L 255.145455 277.066998 
L 255.709091 277.239066 
L 256.272727 275.702417 
L 256.836364 274.97995 
L 257.4 277.866272 
L 257.963636 278.951013 
L 258.527273 267.245297 
L 259.090909 270.848873 
L 259.654545 273.236549 
L 260.218182 269.271096 
L 260.781818 277.452126 
L 261.345455 273.775316 
L 261.909091 272.704319 
L 262.472727 277.945678 
L 263.036364 273.373159 
L 263.6 274.401247 
L 264.163636 274.754349 
L 264.727273 276.223823 
L 265.290909 277.364424 
L 265.854545 268.458634 
L 266.418182 275.440947 
L 266.981818 278.654389 
L 267.545455 274.425908 
L 268.109091 275.653959 
L 268.672727 271.706705 
L 269.236364 278.565536 
L 269.8 274.76923 
L 270.927273 273.716038 
L 271.490909 278.280918 
L 272.054545 273.036594 
L 273.181818 281.869838 
L 273.745455 272.05888 
L 274.309091 278.845043 
L 274.872727 271.487242 
L 275.436364 274.290082 
L 276 280.874657 
L 276.563636 279.036129 
L 277.127273 274.515694 
L 277.690909 276.572081 
L 278.254545 277.806909 
L 278.818182 276.627249 
L 279.381818 271.783374 
L 279.945455 276.623807 
L 280.509091 278.870966 
L 281.072727 274.143353 
L 281.636364 273.293677 
L 282.2 281.206416 
L 282.763636 277.280628 
L 283.327273 278.441249 
L 283.890909 278.586292 
L 284.454545 278.277817 
L 285.018182 277.205486 
L 285.581818 279.574432 
L 286.145455 279.194597 
L 286.709091 269.586087 
L 287.272727 276.833814 
L 287.836364 278.978628 
L 288.4 276.763153 
L 288.963636 269.461278 
L 289.527273 278.070868 
L 290.090909 274.417367 
L 290.654545 265.776922 
L 291.218182 276.99802 
L 291.781818 278.832043 
L 292.345455 275.335121 
L 292.909091 281.014777 
L 293.472727 275.006466 
L 294.036364 276.592538 
L 294.6 271.609897 
L 295.163636 281.479394 
L 295.727273 281.257329 
L 296.290909 276.454905 
L 296.854545 280.137924 
L 297.418182 277.794997 
L 297.981818 277.007749 
L 298.545455 279.309281 
L 299.109091 278.723304 
L 299.672727 279.495231 
L 300.236364 281.265546 
L 300.8 277.764799 
L 301.363636 276.749611 
L 301.927273 282.280827 
L 302.490909 279.229174 
L 303.054545 272.486205 
L 304.181818 281.725319 
L 304.745455 280.334202 
L 305.309091 281.849278 
L 305.872727 276.635198 
L 306.436364 278.313048 
L 307 282.449882 
L 307.563636 281.824162 
L 308.127273 276.651047 
L 308.690909 277.474315 
L 309.254545 276.431867 
L 309.818182 280.338906 
L 310.381818 277.547084 
L 310.945455 280.465709 
L 311.509091 279.849676 
L 312.072727 282.057229 
L 312.636364 275.470858 
L 313.763636 279.838827 
L 314.327273 276.144632 
L 314.890909 265.906193 
L 315.454545 281.356901 
L 316.018182 276.752108 
L 316.581818 276.684402 
L 317.145455 279.932038 
L 317.709091 282.048765 
L 318.272727 278.909399 
L 318.836364 278.767348 
L 319.4 279.539148 
L 319.963636 267.121234 
L 320.527273 273.85527 
L 321.090909 273.315315 
L 321.654545 278.517235 
L 322.218182 279.429643 
L 322.781818 281.408352 
L 323.345455 281.129205 
L 323.909091 271.210734 
L 324.472727 279.042623 
L 325.036364 277.527735 
L 325.6 280.483234 
L 326.163636 278.400812 
L 326.727273 283.884932 
L 327.290909 277.71551 
L 327.854545 275.817487 
L 328.418182 278.845821 
L 328.981818 283.557287 
L 329.545455 275.185741 
L 330.109091 281.86165 
L 330.672727 281.563944 
L 331.236364 273.112029 
L 331.8 278.78056 
L 332.363636 278.55811 
L 332.927273 281.424439 
L 333.490909 279.117313 
L 334.054545 279.590075 
L 334.618182 273.556307 
L 335.181818 281.152608 
L 335.745455 280.441131 
L 336.309091 275.311148 
L 336.872727 273.772739 
L 337.436364 279.374409 
L 338 271.258589 
L 338.563636 278.518776 
L 339.127273 283.086279 
L 339.690909 278.359855 
L 340.254545 282.102684 
L 340.818182 281.909245 
L 341.381818 281.885873 
L 341.945455 281.114612 
L 342.509091 278.701492 
L 343.072727 282.242437 
L 343.636364 276.458757 
L 344.2 275.658553 
L 344.763636 282.111893 
L 345.327273 278.326278 
L 345.890909 281.55121 
L 346.454545 283.788115 
L 347.018182 281.395392 
L 347.581818 269.333308 
L 348.145455 284.180847 
L 348.709091 284.904215 
L 349.272727 284.127631 
L 349.836364 282.353179 
L 350.4 281.494786 
L 350.963636 281.985479 
L 351.527273 283.355281 
L 352.090909 280.416005 
L 352.654545 284.035777 
L 353.218182 281.738673 
L 353.781818 282.154736 
L 354.345455 284.088628 
L 355.472727 277.34118 
L 356.036364 283.014979 
L 356.6 283.078929 
L 357.163636 284.968648 
L 358.290909 281.092391 
L 358.854545 284.624686 
L 359.418182 280.307678 
L 359.981818 279.877667 
L 360.545455 285.739569 
L 361.109091 279.321207 
L 361.672727 281.789025 
L 362.236364 282.705191 
L 362.8 281.708258 
L 363.363636 280.158407 
L 363.927273 283.59336 
L 364.490909 282.947709 
L 365.054545 283.686825 
L 365.618182 284.168155 
L 366.181818 283.466294 
L 366.745455 281.222429 
L 367.309091 282.923754 
L 367.872727 283.112154 
L 368.436364 283.544958 
L 369.563636 280.670967 
L 370.127273 282.854978 
L 370.690909 281.871489 
L 371.254545 280.633625 
L 371.818182 281.480521 
L 372.381818 278.241797 
L 374.072727 283.4095 
L 374.636364 281.43898 
L 375.2 281.592582 
L 375.763636 282.400797 
L 376.327273 284.972759 
L 376.890909 277.073886 
L 377.454545 276.312113 
L 378.018182 273.852225 
L 378.581818 281.800513 
L 379.145455 279.872785 
L 379.709091 280.977637 
L 380.272727 280.126655 
L 380.836364 278.104975 
L 381.4 283.989876 
L 381.963636 275.250564 
L 383.090909 266.761487 
L 383.654545 278.854023 
L 384.218182 270.495501 
L 385.345455 281.038479 
L 385.909091 280.140259 
L 386.472727 281.605157 
L 387.036364 284.473343 
L 387.6 281.997212 
L 388.163636 284.883998 
L 388.727273 285.413587 
L 389.290909 285.348725 
L 389.854545 285.533683 
L 390.418182 282.040628 
L 390.981818 284.674995 
L 391.545455 283.666521 
L 392.109091 284.543655 
L 392.672727 282.212804 
L 393.236364 282.965033 
L 393.8 281.554093 
L 394.363636 282.611746 
L 394.927273 282.52585 
L 395.490909 278.372844 
L 396.054545 281.684376 
L 396.618182 282.243095 
L 397.181818 284.715003 
L 397.745455 280.68466 
L 398.309091 279.631918 
L 398.872727 285.293588 
L 399.436364 282.444818 
L 400 283.512481 
L 401.127273 283.287674 
L 401.690909 281.710248 
L 402.254545 282.275416 
L 402.818182 284.060988 
L 403.381818 283.73271 
L 403.945455 282.506177 
L 404.509091 272.611947 
L 405.072727 288.023561 
L 405.636364 284.614934 
L 406.2 284.577151 
L 406.763636 284.046548 
L 407.327273 282.138609 
L 407.890909 284.657276 
L 408.454545 284.678583 
L 409.018182 282.279178 
L 409.581818 283.4095 
L 410.145455 287.120034 
L 410.709091 281.222146 
L 411.272727 280.670577 
L 411.836364 282.681257 
L 412.963636 282.269329 
L 413.527273 284.394516 
L 414.090909 279.96253 
L 414.654545 284.106338 
L 415.218182 278.971998 
L 415.781818 282.143559 
L 416.345455 279.521643 
L 416.909091 287.037389 
L 417.472727 286.040546 
L 418.036364 285.651183 
L 418.6 283.207568 
L 419.727273 273.352188 
L 420.290909 280.436278 
L 420.854545 281.885567 
L 421.418182 279.198674 
L 421.981818 281.505414 
L 422.545455 281.635384 
L 423.109091 280.860723 
L 423.672727 284.574908 
L 424.236364 283.11248 
L 424.8 283.522268 
L 425.363636 282.933523 
L 425.927273 283.623257 
L 426.490909 280.948353 
L 427.054545 287.107125 
L 427.618182 280.127675 
L 428.745455 285.2487 
L 429.309091 286.126083 
L 429.872727 281.815359 
L 430.436364 275.317727 
L 431 277.757872 
L 431.563636 282.121608 
L 432.127273 277.878723 
L 432.690909 282.236461 
L 433.254545 285.717913 
L 433.818182 279.833905 
L 434.381818 278.226144 
L 434.945455 279.874584 
L 435.509091 282.05161 
L 436.636364 282.455519 
L 437.2 280.297613 
L 437.763636 281.363753 
L 438.327273 281.106695 
L 438.890909 280.453175 
L 440.018182 277.540054 
L 440.581818 279.614081 
L 441.145455 281.136532 
L 441.709091 279.028332 
L 442.272727 275.913802 
L 442.836364 277.646178 
L 443.4 277.667155 
L 443.963636 277.464635 
L 444.527273 276.054961 
L 445.090909 280.244118 
L 446.218182 270.790783 
L 447.345455 283.430468 
L 447.909091 282.952246 
L 448.472727 276.535319 
L 449.036364 275.434104 
L 449.6 284.133627 
L 450.727273 274.990623 
L 451.290909 266.96885 
L 451.854545 274.448801 
L 452.418182 272.45194 
L 452.981818 267.389675 
L 453.545455 273.019765 
L 454.109091 274.114038 
L 454.672727 271.96648 
L 455.236364 261.247024 
L 455.8 265.258389 
L 456.363636 274.355951 
L 456.927273 271.944822 
L 457.490909 271.497605 
L 458.054545 279.695395 
L 458.618182 277.35506 
L 459.181818 278.668074 
L 459.745455 276.147335 
L 460.309091 263.36472 
L 460.872727 263.22947 
L 461.436364 274.482912 
L 462 274.468012 
L 462.563636 270.975106 
L 463.127273 269.013034 
L 463.690909 274.022929 
L 464.254545 273.815948 
L 464.818182 273.73315 
L 465.381818 271.592263 
L 465.945455 254.349213 
L 466.509091 253.518272 
L 467.072727 253.706577 
L 467.636364 261.511907 
L 468.2 267.115804 
L 468.763636 265.157714 
L 469.327273 266.992472 
L 469.890909 260.838909 
L 470.454545 267.253773 
L 471.018182 268.749678 
L 471.581818 257.341311 
L 472.145455 253.926374 
L 472.709091 266.20582 
L 473.272727 264.210993 
L 473.836364 267.75225 
L 474.4 267.148984 
L 474.963636 270.130104 
L 475.527273 270.080515 
L 476.090909 276.421065 
L 476.654545 265.745352 
L 477.218182 272.442762 
L 477.781818 271.011344 
L 478.345455 275.5614 
L 478.909091 279.021599 
L 479.472727 280.637465 
L 480.036364 284.447476 
L 480.6 282.589391 
L 481.163636 281.703096 
L 481.727273 286.641152 
L 482.290909 284.602405 
L 483.418182 284.044299 
L 483.981818 285.191652 
L 484.545455 286.841811 
L 485.109091 284.270999 
L 485.672727 284.362898 
L 486.236364 285.342436 
L 486.8 285.246591 
L 487.363636 283.138383 
L 487.927273 288.19044 
L 488.490909 283.701191 
L 489.054545 282.899274 
L 489.618182 284.07112 
L 490.181818 281.031127 
L 490.745455 284.529033 
L 491.309091 285.671944 
L 491.872727 284.752943 
L 492.436364 279.940519 
L 493 287.021557 
L 493.563636 287.385584 
L 494.127273 284.502105 
L 494.690909 285.923739 
L 495.254545 285.850016 
L 495.818182 286.275944 
L 496.381818 287.936402 
L 496.945455 284.788451 
L 497.509091 287.49937 
L 498.072727 285.509238 
L 498.636364 286.517055 
L 499.2 284.374699 
L 499.763636 284.960801 
L 500.327273 286.659494 
L 500.890909 285.260307 
L 501.454545 283.302744 
L 502.018182 287.595213 
L 502.581818 286.113859 
L 503.145455 288.406046 
L 503.709091 284.377389 
L 504.272727 283.925433 
L 504.836364 287.753978 
L 505.4 284.452802 
L 505.963636 286.107391 
L 506.527273 284.912372 
L 507.090909 286.944628 
L 507.654545 286.799638 
L 508.218182 281.578749 
L 508.781818 279.762855 
L 509.345455 288.722804 
L 509.909091 289.261957 
L 510.472727 286.808418 
L 511.036364 287.96387 
L 511.6 286.569128 
L 512.163636 286.024389 
L 512.727273 289.634932 
L 513.290909 285.202242 
L 513.854545 285.601333 
L 514.418182 278.045983 
L 514.981818 285.694786 
L 515.545455 285.813594 
L 516.109091 284.674307 
L 516.672727 287.086033 
L 517.236364 280.815298 
L 517.8 277.855701 
L 518.363636 285.858606 
L 518.927273 286.68102 
L 519.490909 287.760845 
L 520.054545 287.112119 
L 520.618182 286.201628 
L 521.181818 277.567388 
L 521.745455 286.252029 
L 522.309091 281.323145 
L 522.872727 280.915016 
L 523.436364 286.707972 
L 524 287.905846 
L 524.563636 288.149503 
L 525.127273 289.598019 
L 525.690909 289.224273 
L 526.254545 286.542807 
L 526.818182 289.364522 
L 527.381818 287.25105 
L 527.945455 289.339819 
L 528.509091 289.05984 
L 529.072727 285.515921 
L 529.636364 285.643002 
L 530.2 287.563991 
L 530.763636 288.080875 
L 531.327273 287.264345 
L 531.890909 281.397468 
L 532.454545 284.569466 
L 533.018182 284.516931 
L 533.581818 286.065185 
L 534.145455 283.489883 
L 534.709091 287.730015 
L 535.272727 288.958634 
L 535.836364 283.703696 
L 536.4 287.316791 
L 536.963636 285.842953 
L 537.527273 285.974006 
L 538.090909 280.745948 
L 538.654545 284.913369 
L 539.218182 285.621132 
L 539.781818 288.144943 
L 540.345455 286.689897 
L 540.909091 286.34627 
L 541.472727 288.585282 
L 542.036364 288.728497 
L 542.6 282.510613 
L 543.163636 288.12844 
L 543.727273 285.519526 
L 544.290909 283.799685 
L 544.854545 290.255597 
L 545.418182 287.02178 
L 545.981818 286.951934 
L 546.545455 288.659339 
L 547.109091 286.731202 
L 547.672727 287.568144 
L 548.236364 287.313715 
L 548.8 285.294244 
L 549.363636 288.617371 
L 549.927273 287.116621 
L 550.490909 285.011149 
L 551.054545 289.491777 
L 551.618182 288.998752 
L 552.181818 289.06277 
L 552.745455 288.544612 
L 553.309091 286.057998 
L 553.872727 289.851788 
L 554.436364 288.894814 
L 555.563636 285.851147 
L 556.127273 286.687152 
L 556.690909 281.498939 
L 557.254545 284.705754 
L 557.818182 281.45278 
L 558.381818 288.840049 
L 558.945455 289.65186 
L 559.509091 287.229693 
L 560.072727 290.38094 
L 560.636364 289.832047 
L 561.2 289.689394 
L 561.763636 287.147884 
L 562.327273 286.151096 
L 562.890909 289.764486 
L 563.454545 287.466048 
L 564.018182 286.816841 
L 564.581818 285.606017 
L 565.145455 287.577005 
L 565.709091 286.558786 
L 566.272727 285.071358 
L 566.836364 285.0033 
L 567.4 283.71215 
L 567.963636 286.986111 
L 568.527273 287.73544 
L 569.090909 288.281152 
L 569.654545 285.935591 
L 570.781818 285.27829 
L 571.345455 288.543312 
L 571.909091 285.607796 
L 572.472727 283.451734 
L 573.036364 281.932244 
L 573.6 287.160205 
L 574.163636 287.855928 
L 574.727273 286.542326 
L 575.290909 290.200305 
L 575.854545 287.955889 
L 576.418182 288.040675 
L 576.981818 286.104943 
L 577.545455 285.65622 
L 578.109091 289.081308 
L 578.672727 290.295031 
L 579.236364 290.267897 
L 580.363636 287.28994 
L 580.927273 290.183713 
L 581.490909 287.107367 
L 582.054545 287.737571 
L 582.618182 290.104196 
L 583.181818 290.025653 
L 583.745455 285.817269 
L 584.309091 282.810571 
L 584.872727 290.516704 
L 585.436364 290.23866 
L 586 289.087108 
L 586.563636 291.063599 
L 587.127273 292.143762 
L 588.254545 286.897068 
L 588.818182 290.862202 
L 589.381818 289.816336 
L 589.945455 290.203546 
L 590.509091 289.190548 
L 591.072727 289.353326 
L 591.636364 289.82061 
L 592.2 292.000113 
L 592.763636 290.973708 
L 593.327273 290.898116 
L 593.890909 288.640787 
L 594.454545 290.119986 
L 595.018182 287.777433 
L 595.581818 292.944124 
L 596.145455 291.9155 
L 596.709091 289.442068 
L 597.272727 289.130999 
L 597.836364 289.122719 
L 598.4 290.020967 
L 599.527273 292.16409 
L 600.090909 289.195337 
L 600.654545 290.98563 
L 601.218182 291.655698 
L 601.781818 288.112413 
L 602.345455 291.213265 
L 602.909091 290.422364 
L 603.472727 286.805133 
L 604.036364 288.050376 
L 604.6 291.507905 
L 605.163636 292.805159 
L 605.727273 291.639085 
L 606.290909 291.703917 
L 606.854545 290.366717 
L 607.418182 287.437007 
L 607.981818 289.579274 
L 608.545455 290.204029 
L 609.109091 290.479634 
L 609.672727 291.937919 
L 610.236364 290.541803 
L 610.8 290.494592 
L 611.363636 291.161964 
L 611.927273 289.429122 
L 612.490909 292.570898 
L 613.054545 290.512775 
L 613.618182 292.886014 
L 614.181818 291.435723 
L 614.745455 292.29042 
L 615.309091 288.261605 
L 615.872727 290.35693 
L 616.436364 290.235627 
L 617 289.116596 
L 617.563636 292.719984 
L 618.127273 291.373231 
L 618.690909 290.976304 
L 619.254545 289.84683 
L 619.818182 290.727002 
L 620.381818 290.49506 
L 620.945455 291.840059 
L 621.509091 291.611741 
L 622.072727 290.528684 
L 622.636364 289.895085 
L 622.636364 289.895085 
" clip-path="url(#pdbf364b42e)" style="fill: none; stroke: #1f77b4; stroke-width: 1.5; stroke-linecap: square"/>
   </g>
   <g id="line2d_14">
    <path d="M 115.363636 304.864691 
L 119.872727 305.633798 
L 120.436364 305.968843 
L 121.563636 306.229338 
L 122.127273 305.636799 
L 122.690909 305.690383 
L 123.254545 305.585837 
L 123.818182 305.364705 
L 124.381818 305.010508 
L 124.945455 304.926244 
L 125.509091 305.621142 
L 126.072727 305.950652 
L 126.636364 305.211611 
L 127.2 305.634784 
L 128.327273 305.59619 
L 128.890909 305.299157 
L 129.454545 305.493279 
L 130.018182 305.505521 
L 130.581818 306.078525 
L 131.145455 305.51442 
L 131.709091 306.458843 
L 132.836364 305.013998 
L 133.4 305.754321 
L 133.963636 305.378786 
L 134.527273 305.817424 
L 135.090909 305.768052 
L 135.654545 305.257705 
L 136.218182 305.435161 
L 136.781818 305.485585 
L 137.345455 306.319692 
L 138.472727 305.131324 
L 139.036364 306.307826 
L 139.6 305.955098 
L 140.163636 305.802801 
L 140.727273 304.585163 
L 141.290909 306.065065 
L 141.854545 305.635978 
L 142.418182 305.54206 
L 142.981818 306.707617 
L 143.545455 304.990847 
L 144.109091 305.488599 
L 145.236364 306.117128 
L 145.8 304.86323 
L 146.363636 304.984165 
L 147.490909 306.417264 
L 148.054545 305.939776 
L 148.618182 306.16884 
L 149.181818 306.788206 
L 150.309091 305.899007 
L 150.872727 304.858004 
L 151.436364 305.935972 
L 152.563636 305.707291 
L 153.127273 305.449416 
L 153.690909 304.787493 
L 154.254545 305.376785 
L 155.381818 306.097059 
L 155.945455 305.095088 
L 156.509091 306.338835 
L 157.072727 303.979279 
L 158.2 305.658449 
L 158.763636 305.756226 
L 159.327273 305.28264 
L 159.890909 305.055523 
L 160.454545 305.923469 
L 161.018182 305.776857 
L 161.581818 306.393112 
L 162.145455 306.149274 
L 162.709091 306.14969 
L 163.272727 305.025337 
L 163.836364 306.452502 
L 164.4 305.998926 
L 164.963636 305.830423 
L 165.527273 306.086414 
L 166.090909 305.682198 
L 166.654545 305.901171 
L 167.781818 304.643833 
L 168.345455 304.537311 
L 168.909091 305.986767 
L 169.472727 306.47256 
L 170.6 305.107105 
L 171.163636 306.183278 
L 171.727273 305.977726 
L 172.290909 304.909031 
L 172.854545 305.473269 
L 173.418182 305.828559 
L 173.981818 304.789601 
L 174.545455 305.674906 
L 175.109091 306.174981 
L 175.672727 305.798348 
L 176.236364 304.787062 
L 176.8 305.120996 
L 177.363636 305.155634 
L 177.927273 306.605508 
L 178.490909 305.660349 
L 179.054545 305.603522 
L 179.618182 306.040386 
L 180.181818 305.430662 
L 180.745455 305.515697 
L 181.309091 305.829668 
L 182.436364 305.49233 
L 183 305.627299 
L 183.563636 305.42301 
L 184.127273 305.4971 
L 184.690909 304.92061 
L 185.254545 306.280887 
L 185.818182 306.036866 
L 186.381818 305.529556 
L 186.945455 304.774379 
L 187.509091 304.78523 
L 188.072727 305.602329 
L 188.636364 304.842361 
L 189.2 305.491407 
L 189.763636 305.665897 
L 190.327273 305.013476 
L 190.890909 306.066225 
L 191.454545 305.838881 
L 192.018182 305.036157 
L 192.581818 305.977496 
L 193.145455 304.28041 
L 193.709091 305.375367 
L 194.272727 306.050512 
L 194.836364 304.354744 
L 195.963636 305.929146 
L 196.527273 305.362763 
L 197.090909 305.397325 
L 197.654545 305.024246 
L 198.218182 305.193815 
L 198.781818 304.666445 
L 199.345455 303.985981 
L 199.909091 305.579155 
L 200.472727 305.73345 
L 201.036364 304.194361 
L 201.6 305.228539 
L 202.163636 305.725996 
L 202.727273 305.402066 
L 203.290909 304.676199 
L 203.854545 305.027353 
L 204.418182 305.777382 
L 204.981818 305.771628 
L 205.545455 304.829664 
L 206.672727 306.216742 
L 207.236364 306.172159 
L 208.363636 305.287957 
L 208.927273 305.431266 
L 209.490909 304.696949 
L 210.054545 305.482561 
L 210.618182 305.272772 
L 211.181818 304.700923 
L 211.745455 305.586966 
L 212.309091 305.015403 
L 214.563636 305.532281 
L 215.127273 305.20161 
L 215.690909 305.436234 
L 216.254545 305.403966 
L 216.818182 305.009243 
L 217.381818 305.127989 
L 217.945455 305.689484 
L 218.509091 304.816581 
L 219.072727 305.220885 
L 219.636364 304.537094 
L 220.2 305.203266 
L 221.327273 304.990073 
L 221.890909 305.902977 
L 222.454545 305.045079 
L 223.581818 305.598555 
L 224.145455 306.059764 
L 224.709091 304.897456 
L 225.272727 305.465636 
L 225.836364 305.002601 
L 226.963636 305.353496 
L 227.527273 305.229853 
L 228.090909 305.307262 
L 228.654545 305.006339 
L 229.218182 305.605914 
L 229.781818 305.306439 
L 230.345455 304.2872 
L 230.909091 304.755817 
L 231.472727 305.023168 
L 232.036364 305.671155 
L 232.6 305.843592 
L 233.163636 305.277007 
L 233.727273 305.178381 
L 234.290909 305.710825 
L 234.854545 305.697872 
L 235.418182 305.31248 
L 235.981818 305.540042 
L 236.545455 305.092678 
L 237.109091 305.203735 
L 237.672727 305.021744 
L 238.236364 305.687882 
L 238.8 304.749118 
L 239.363636 305.441707 
L 239.927273 305.820647 
L 241.054545 304.804447 
L 241.618182 305.270124 
L 242.181818 305.053519 
L 242.745455 305.540706 
L 243.309091 305.446213 
L 243.872727 304.895545 
L 244.436364 304.708367 
L 245 305.611119 
L 245.563636 305.577583 
L 246.127273 305.27242 
L 246.690909 305.148091 
L 247.254545 305.515235 
L 247.818182 305.709769 
L 248.381818 304.995059 
L 248.945455 305.00671 
L 249.509091 304.832979 
L 250.072727 305.490076 
L 250.636364 305.539456 
L 251.763636 304.97454 
L 252.327273 305.750914 
L 252.890909 305.123992 
L 254.018182 305.023199 
L 254.581818 300.34261 
L 255.145455 305.425077 
L 255.709091 305.33468 
L 256.272727 305.661985 
L 256.836364 305.489691 
L 257.4 304.855229 
L 257.963636 304.775898 
L 258.527273 306.06188 
L 259.090909 305.869576 
L 259.654545 305.384261 
L 260.781818 305.507917 
L 261.345455 305.105304 
L 261.909091 304.962131 
L 262.472727 305.168358 
L 263.036364 304.901891 
L 264.163636 305.369197 
L 264.727273 305.176346 
L 265.290909 305.382675 
L 265.854545 305.893737 
L 266.418182 305.463198 
L 266.981818 305.19955 
L 267.545455 304.599833 
L 268.109091 305.191288 
L 268.672727 305.596973 
L 269.236364 305.302858 
L 269.8 305.244706 
L 270.363636 305.552224 
L 271.490909 304.859725 
L 272.054545 305.490217 
L 272.618182 305.563189 
L 273.181818 305.215375 
L 273.745455 305.195805 
L 274.309091 305.587697 
L 274.872727 304.608721 
L 275.436364 305.205473 
L 276 305.46664 
L 276.563636 305.034945 
L 277.690909 305.304352 
L 278.254545 305.296845 
L 278.818182 304.930734 
L 279.381818 305.560765 
L 279.945455 305.559048 
L 281.072727 305.094312 
L 281.636364 303.462819 
L 282.2 304.677939 
L 282.763636 305.108792 
L 283.327273 305.241467 
L 283.890909 304.908652 
L 284.454545 305.367511 
L 285.018182 305.404822 
L 285.581818 305.123379 
L 286.709091 305.731771 
L 287.272727 305.356205 
L 288.963636 305.215795 
L 289.527273 305.234849 
L 290.090909 305.622793 
L 290.654545 305.770911 
L 291.218182 305.169357 
L 291.781818 305.53594 
L 292.345455 305.503838 
L 292.909091 305.005955 
L 293.472727 305.740135 
L 295.163636 305.109547 
L 295.727273 305.155698 
L 296.854545 304.883363 
L 297.418182 305.071609 
L 297.981818 305.506331 
L 298.545455 305.081318 
L 299.109091 305.206672 
L 299.672727 305.453495 
L 300.236364 304.971758 
L 300.8 305.410796 
L 301.927273 305.161926 
L 303.054545 305.203285 
L 303.618182 301.159917 
L 304.181818 304.921984 
L 304.745455 305.329422 
L 305.309091 305.386497 
L 305.872727 305.643726 
L 306.436364 305.714615 
L 307 305.169408 
L 307.563636 305.227461 
L 308.127273 305.438599 
L 308.690909 305.209287 
L 309.254545 305.583083 
L 309.818182 305.135252 
L 310.381818 305.328783 
L 310.945455 305.206811 
L 311.509091 305.650441 
L 312.072727 305.375904 
L 313.2 305.220527 
L 313.763636 305.759576 
L 314.327273 304.598863 
L 314.890909 305.445606 
L 315.454545 305.076193 
L 316.018182 305.026602 
L 316.581818 305.213686 
L 317.145455 305.554213 
L 317.709091 305.237764 
L 318.272727 305.07626 
L 318.836364 305.461225 
L 319.4 305.560785 
L 319.963636 305.94753 
L 320.527273 305.41688 
L 321.090909 304.433278 
L 321.654545 304.884013 
L 322.218182 304.986865 
L 322.781818 305.252401 
L 325.036364 305.26717 
L 326.163636 305.225664 
L 327.854545 305.867137 
L 328.418182 305.270089 
L 328.981818 305.4339 
L 329.545455 305.305895 
L 330.109091 305.475866 
L 330.672727 305.18733 
L 331.236364 305.686565 
L 331.8 305.423539 
L 332.363636 305.517378 
L 332.927273 305.003708 
L 333.490909 305.450363 
L 334.054545 305.470779 
L 334.618182 305.626299 
L 335.181818 305.255757 
L 335.745455 305.475078 
L 336.309091 305.546553 
L 336.872727 305.370773 
L 337.436364 305.421044 
L 338 305.625821 
L 338.563636 305.48602 
L 339.127273 304.925992 
L 339.690909 305.21019 
L 340.254545 305.207198 
L 340.818182 304.797388 
L 341.381818 305.466743 
L 342.509091 305.683822 
L 343.072727 305.31967 
L 343.636364 305.660624 
L 344.2 305.289192 
L 344.763636 305.216554 
L 345.890909 305.481045 
L 346.454545 305.072933 
L 347.018182 305.601605 
L 347.581818 291.685327 
L 348.145455 304.689869 
L 349.272727 304.930474 
L 350.4 305.202671 
L 350.963636 305.326064 
L 351.527273 305.134642 
L 352.090909 305.666471 
L 352.654545 305.183068 
L 353.218182 304.895943 
L 354.345455 305.280337 
L 354.909091 305.205499 
L 355.472727 305.725193 
L 356.036364 305.357295 
L 356.6 305.562982 
L 357.163636 305.147691 
L 357.727273 305.466175 
L 358.854545 305.338623 
L 359.418182 305.041114 
L 359.981818 305.192949 
L 360.545455 304.993627 
L 361.109091 305.055536 
L 361.672727 305.837257 
L 362.236364 304.609595 
L 362.8 305.589088 
L 363.363636 305.111878 
L 363.927273 305.19025 
L 364.490909 305.748321 
L 365.054545 304.857771 
L 365.618182 304.683974 
L 366.181818 305.361176 
L 366.745455 305.229226 
L 367.872727 305.571744 
L 368.436364 305.203921 
L 369.563636 305.364506 
L 370.127273 305.748492 
L 370.690909 305.416291 
L 371.254545 305.358669 
L 371.818182 305.528024 
L 372.381818 305.378269 
L 372.945455 304.939952 
L 373.509091 304.17815 
L 374.072727 305.663194 
L 374.636364 305.34016 
L 375.2 305.247939 
L 375.763636 305.43729 
L 376.327273 305.017495 
L 376.890909 305.462472 
L 377.454545 305.270673 
L 378.018182 305.593281 
L 378.581818 305.128537 
L 379.145455 305.714764 
L 379.709091 304.133358 
L 380.272727 304.628006 
L 380.836364 305.32508 
L 381.4 305.438891 
L 381.963636 304.945479 
L 382.527273 305.960012 
L 383.090909 306.007033 
L 383.654545 305.588142 
L 384.218182 305.310818 
L 384.781818 305.653542 
L 385.345455 304.375099 
L 385.909091 304.026976 
L 386.472727 304.752513 
L 387.036364 304.78433 
L 387.6 305.11087 
L 388.727273 305.054715 
L 389.290909 305.366642 
L 389.854545 305.143362 
L 390.418182 305.482687 
L 390.981818 305.27671 
L 391.545455 305.487186 
L 392.109091 305.407172 
L 392.672727 305.837241 
L 393.236364 305.024482 
L 393.8 305.853217 
L 394.363636 305.625028 
L 394.927273 303.775262 
L 395.490909 304.777964 
L 396.054545 306.181237 
L 396.618182 305.218931 
L 397.181818 305.434723 
L 397.745455 305.922334 
L 398.309091 305.340141 
L 398.872727 304.568666 
L 399.436364 305.56394 
L 400 305.454404 
L 400.563636 305.551965 
L 401.127273 304.9794 
L 401.690909 305.376376 
L 402.254545 306.024558 
L 402.818182 305.583454 
L 403.381818 305.436401 
L 403.945455 306.102477 
L 404.509091 306.394102 
L 405.072727 305.585219 
L 405.636364 304.16295 
L 406.2 305.108818 
L 406.763636 305.624193 
L 407.327273 305.238442 
L 407.890909 305.049294 
L 408.454545 305.574575 
L 409.018182 304.889659 
L 409.581818 306.092175 
L 410.145455 304.742132 
L 410.709091 305.556716 
L 411.272727 304.863044 
L 411.836364 305.662656 
L 412.4 305.300395 
L 412.963636 305.598008 
L 413.527273 305.768373 
L 414.090909 305.705921 
L 414.654545 304.630665 
L 415.218182 305.483171 
L 415.781818 306.015351 
L 416.345455 303.285 
L 416.909091 304.995672 
L 417.472727 305.143329 
L 418.036364 305.070719 
L 418.6 306.099136 
L 419.163636 305.976657 
L 419.727273 306.083344 
L 420.290909 306.047219 
L 420.854545 305.848537 
L 421.418182 306.496016 
L 421.981818 304.509321 
L 422.545455 304.999078 
L 423.109091 306.167272 
L 423.672727 305.379799 
L 424.236364 306.736155 
L 424.8 304.528993 
L 425.363636 304.459804 
L 425.927273 305.735292 
L 426.490909 306.639222 
L 427.054545 305.234165 
L 427.618182 306.245714 
L 428.181818 306.069557 
L 428.745455 305.388831 
L 429.309091 304.246642 
L 429.872727 304.912631 
L 430.436364 306.323738 
L 431 306.114768 
L 431.563636 304.37475 
L 432.127273 304.052851 
L 432.690909 306.06515 
L 433.254545 305.023564 
L 433.818182 305.684535 
L 434.381818 306.836609 
L 434.945455 306.767709 
L 435.509091 304.87562 
L 436.072727 305.803889 
L 437.2 305.322086 
L 437.763636 305.784271 
L 438.327273 306.869246 
L 438.890909 305.70826 
L 439.454545 306.138426 
L 440.018182 305.821984 
L 440.581818 306.900467 
L 441.145455 306.928321 
L 441.709091 306.655863 
L 442.272727 306.934663 
L 443.4 307.192799 
L 443.963636 307.399948 
L 445.090909 307.375237 
L 445.654545 307.531192 
L 446.218182 307.252886 
L 446.781818 306.838457 
L 447.345455 303.224815 
L 447.909091 305.18381 
L 448.472727 306.121307 
L 449.036364 306.305962 
L 449.6 305.162925 
L 450.163636 305.655747 
L 450.727273 306.400621 
L 451.290909 306.914876 
L 452.418182 307.510588 
L 452.981818 307.57059 
L 453.545455 307.343044 
L 454.109091 307.614766 
L 455.8 307.638864 
L 456.363636 307.284395 
L 456.927273 307.572094 
L 457.490909 302.460997 
L 458.054545 305.289069 
L 458.618182 305.956552 
L 459.181818 304.873724 
L 459.745455 307.49086 
L 460.309091 304.49951 
L 460.872727 304.787602 
L 462 306.90414 
L 462.563636 305.56566 
L 463.690909 307.363165 
L 464.254545 306.367036 
L 464.818182 306.720814 
L 465.381818 306.895508 
L 465.945455 307.688105 
L 466.509091 307.728069 
L 467.072727 307.520353 
L 467.636364 307.716072 
L 469.327273 307.580857 
L 469.890909 307.774531 
L 470.454545 307.8 
L 471.018182 305.830488 
L 471.581818 307.490963 
L 472.145455 305.021841 
L 472.709091 307.540265 
L 473.836364 307.612336 
L 474.4 306.338843 
L 474.963636 307.718783 
L 475.527273 306.970908 
L 476.090909 305.055729 
L 476.654545 306.206286 
L 477.218182 306.99777 
L 477.781818 306.913452 
L 478.345455 303.799169 
L 478.909091 304.953927 
L 479.472727 304.700403 
L 480.036364 304.791558 
L 480.6 304.501803 
L 481.163636 305.053099 
L 481.727273 305.028417 
L 482.290909 304.821211 
L 482.854545 304.746554 
L 483.418182 304.94349 
L 483.981818 304.901706 
L 484.545455 305.048269 
L 485.672727 305.113098 
L 486.236364 304.775453 
L 486.8 305.035397 
L 487.363636 305.128387 
L 487.927273 304.925314 
L 488.490909 304.919957 
L 489.054545 305.292582 
L 490.181818 305.122698 
L 490.745455 305.250143 
L 491.309091 305.107416 
L 491.872727 305.172234 
L 492.436364 305.49693 
L 493 304.885134 
L 494.127273 305.319105 
L 494.690909 305.263333 
L 495.254545 305.003971 
L 496.381818 305.272058 
L 496.945455 305.399187 
L 497.509091 305.054649 
L 498.072727 305.089784 
L 498.636364 305.278219 
L 499.763636 305.30815 
L 500.327273 305.285609 
L 500.890909 305.507751 
L 501.454545 305.52773 
L 502.018182 305.048808 
L 502.581818 305.16803 
L 503.145455 304.959852 
L 504.272727 305.208642 
L 504.836364 305.295189 
L 505.4 304.856517 
L 505.963636 305.042616 
L 507.090909 305.104942 
L 507.654545 305.396613 
L 508.218182 305.990058 
L 508.781818 302.472235 
L 509.345455 304.630416 
L 510.472727 304.987261 
L 511.6 305.207691 
L 512.727273 304.860835 
L 513.290909 305.171215 
L 513.854545 305.277668 
L 514.418182 304.899261 
L 514.981818 305.416984 
L 515.545455 306.17802 
L 517.236364 304.690905 
L 517.8 305.681035 
L 518.363636 304.666282 
L 518.927273 305.143399 
L 519.490909 305.139067 
L 520.054545 304.848655 
L 520.618182 305.046973 
L 521.181818 305.538722 
L 521.745455 305.603793 
L 522.309091 306.477294 
L 522.872727 299.6712 
L 523.436364 304.759427 
L 524 304.753389 
L 525.690909 305.010388 
L 526.254545 305.049475 
L 526.818182 304.894801 
L 527.381818 305.217735 
L 528.509091 305.170942 
L 529.072727 304.972823 
L 530.2 305.08662 
L 530.763636 305.273115 
L 531.327273 305.24747 
L 531.890909 306.108894 
L 532.454545 305.08359 
L 533.018182 305.712866 
L 533.581818 304.78457 
L 534.145455 305.13371 
L 534.709091 304.98664 
L 535.272727 305.520138 
L 535.836364 304.529511 
L 536.4 304.922739 
L 536.963636 304.969713 
L 537.527273 305.217623 
L 538.090909 305.927244 
L 538.654545 304.812862 
L 539.218182 304.803929 
L 539.781818 305.129259 
L 540.909091 305.346482 
L 541.472727 305.308361 
L 542.036364 304.958134 
L 542.6 305.435529 
L 543.727273 305.108366 
L 544.290909 305.530644 
L 544.854545 305.04655 
L 545.981818 305.146733 
L 546.545455 305.000623 
L 548.236364 305.147813 
L 548.8 303.619674 
L 549.363636 304.623322 
L 549.927273 305.064281 
L 551.054545 305.265157 
L 551.618182 304.959172 
L 552.745455 305.226028 
L 553.309091 305.357115 
L 553.872727 305.120128 
L 554.436364 305.146076 
L 555 305.319941 
L 555.563636 305.234869 
L 556.127273 305.361069 
L 556.690909 306.609887 
L 557.254545 305.037411 
L 557.818182 305.165282 
L 558.381818 303.985582 
L 558.945455 304.953056 
L 559.509091 305.228655 
L 560.072727 304.994721 
L 560.636364 305.137087 
L 561.763636 305.086313 
L 562.327273 305.27996 
L 562.890909 304.956418 
L 563.454545 305.386022 
L 565.145455 305.060819 
L 566.272727 305.427371 
L 566.836364 305.19107 
L 567.4 305.355025 
L 567.963636 305.285442 
L 568.527273 305.0165 
L 569.654545 305.102903 
L 570.218182 304.278805 
L 571.345455 305.800403 
L 571.909091 305.0104 
L 572.472727 305.088884 
L 573.036364 305.875725 
L 573.6 304.745174 
L 574.163636 305.268414 
L 575.854545 305.253517 
L 576.418182 305.429749 
L 576.981818 305.211071 
L 577.545455 305.507302 
L 578.109091 304.92622 
L 579.236364 305.202962 
L 580.363636 305.270991 
L 580.927273 305.179732 
L 581.490909 305.502972 
L 582.618182 305.066841 
L 583.745455 305.524511 
L 584.309091 291.39328 
L 584.872727 304.72988 
L 586 304.85133 
L 586.563636 304.789057 
L 587.127273 304.908972 
L 588.818182 304.870918 
L 597.272727 304.842162 
L 598.4 304.942285 
L 607.418182 304.914481 
L 609.672727 304.926407 
L 622.636364 304.957074 
L 622.636364 304.957074 
" clip-path="url(#pdbf364b42e)" style="fill: none; stroke: #ff7f0e; stroke-width: 1.5; stroke-linecap: square"/>
   </g>
   <g id="patch_3">
    <path d="M 90 320.4 
L 90 43.2 
" style="fill: none; stroke: #000000; stroke-width: 0.8; stroke-linejoin: miter; stroke-linecap: square"/>
   </g>
   <g id="patch_4">
    <path d="M 648 320.4 
L 648 43.2 
" style="fill: none; stroke: #000000; stroke-width: 0.8; stroke-linejoin: miter; stroke-linecap: square"/>
   </g>
   <g id="patch_5">
    <path d="M 90 320.4 
L 648 320.4 
" style="fill: none; stroke: #000000; stroke-width: 0.8; stroke-linejoin: miter; stroke-linecap: square"/>
   </g>
   <g id="patch_6">
    <path d="M 90 43.2 
L 648 43.2 
" style="fill: none; stroke: #000000; stroke-width: 0.8; stroke-linejoin: miter; stroke-linecap: square"/>
   </g>
   <g id="text_13">
    <!-- Training -->
    <g transform="translate(345.329063 37.2) scale(0.12 -0.12)">
     <defs>
      <path id="DejaVuSans-54" d="M -19 4666 
L 3928 4666 
L 3928 4134 
L 2272 4134 
L 2272 0 
L 1638 0 
L 1638 4134 
L -19 4134 
L -19 4666 
z
" transform="scale(0.015625)"/>
      <path id="DejaVuSans-72" d="M 2631 2963 
Q 2534 3019 2420 3045 
Q 2306 3072 2169 3072 
Q 1681 3072 1420 2755 
Q 1159 2438 1159 1844 
L 1159 0 
L 581 0 
L 581 3500 
L 1159 3500 
L 1159 2956 
Q 1341 3275 1631 3429 
Q 1922 3584 2338 3584 
Q 2397 3584 2469 3576 
Q 2541 3569 2628 3553 
L 2631 2963 
z
" transform="scale(0.015625)"/>
      <path id="DejaVuSans-61" d="M 2194 1759 
Q 1497 1759 1228 1600 
Q 959 1441 959 1056 
Q 959 750 1161 570 
Q 1363 391 1709 391 
Q 2188 391 2477 730 
Q 2766 1069 2766 1631 
L 2766 1759 
L 2194 1759 
z
M 3341 1997 
L 3341 0 
L 2766 0 
L 2766 531 
Q 2569 213 2275 61 
Q 1981 -91 1556 -91 
Q 1019 -91 701 211 
Q 384 513 384 1019 
Q 384 1609 779 1909 
Q 1175 2209 1959 2209 
L 2766 2209 
L 2766 2266 
Q 2766 2663 2505 2880 
Q 2244 3097 1772 3097 
Q 1472 3097 1187 3025 
Q 903 2953 641 2809 
L 641 3341 
Q 956 3463 1253 3523 
Q 1550 3584 1831 3584 
Q 2591 3584 2966 3190 
Q 3341 2797 3341 1997 
z
" transform="scale(0.015625)"/>
      <path id="DejaVuSans-69" d="M 603 3500 
L 1178 3500 
L 1178 0 
L 603 0 
L 603 3500 
z
M 603 4863 
L 1178 4863 
L 1178 4134 
L 603 4134 
L 603 4863 
z
" transform="scale(0.015625)"/>
      <path id="DejaVuSans-6e" d="M 3513 2113 
L 3513 0 
L 2938 0 
L 2938 2094 
Q 2938 2591 2744 2837 
Q 2550 3084 2163 3084 
Q 1697 3084 1428 2787 
Q 1159 2491 1159 1978 
L 1159 0 
L 581 0 
L 581 3500 
L 1159 3500 
L 1159 2956 
Q 1366 3272 1645 3428 
Q 1925 3584 2291 3584 
Q 2894 3584 3203 3211 
Q 3513 2838 3513 2113 
z
" transform="scale(0.015625)"/>
      <path id="DejaVuSans-67" d="M 2906 1791 
Q 2906 2416 2648 2759 
Q 2391 3103 1925 3103 
Q 1463 3103 1205 2759 
Q 947 2416 947 1791 
Q 947 1169 1205 825 
Q 1463 481 1925 481 
Q 2391 481 2648 825 
Q 2906 1169 2906 1791 
z
M 3481 434 
Q 3481 -459 3084 -895 
Q 2688 -1331 1869 -1331 
Q 1566 -1331 1297 -1286 
Q 1028 -1241 775 -1147 
L 775 -588 
Q 1028 -725 1275 -790 
Q 1522 -856 1778 -856 
Q 2344 -856 2625 -561 
Q 2906 -266 2906 331 
L 2906 616 
Q 2728 306 2450 153 
Q 2172 0 1784 0 
Q 1141 0 747 490 
Q 353 981 353 1791 
Q 353 2603 747 3093 
Q 1141 3584 1784 3584 
Q 2172 3584 2450 3431 
Q 2728 3278 2906 2969 
L 2906 3500 
L 3481 3500 
L 3481 434 
z
" transform="scale(0.015625)"/>
     </defs>
     <use xlink:href="#DejaVuSans-54"/>
     <use xlink:href="#DejaVuSans-72" x="46.333984"/>
     <use xlink:href="#DejaVuSans-61" x="87.447266"/>
     <use xlink:href="#DejaVuSans-69" x="148.726562"/>
     <use xlink:href="#DejaVuSans-6e" x="176.509766"/>
     <use xlink:href="#DejaVuSans-69" x="239.888672"/>
     <use xlink:href="#DejaVuSans-6e" x="267.671875"/>
     <use xlink:href="#DejaVuSans-67" x="331.050781"/>
    </g>
   </g>
   <g id="legend_1">
    <g id="patch_7">
     <path d="M 601.251562 80.55625 
L 641 80.55625 
Q 643 80.55625 643 78.55625 
L 643 50.2 
Q 643 48.2 641 48.2 
L 601.251562 48.2 
Q 599.251562 48.2 599.251562 50.2 
L 599.251562 78.55625 
Q 599.251562 80.55625 601.251562 80.55625 
z
" style="fill: #ffffff; opacity: 0.8; stroke: #cccccc; stroke-linejoin: miter"/>
    </g>
    <g id="line2d_15">
     <path d="M 603.251562 56.298437 
L 613.251562 56.298437 
L 623.251562 56.298437 
" style="fill: none; stroke: #1f77b4; stroke-width: 1.5; stroke-linecap: square"/>
    </g>
    <g id="text_14">
     <!-- G -->
     <g transform="translate(631.251562 59.798437) scale(0.1 -0.1)">
      <defs>
       <path id="DejaVuSans-47" d="M 3809 666 
L 3809 1919 
L 2778 1919 
L 2778 2438 
L 4434 2438 
L 4434 434 
Q 4069 175 3628 42 
Q 3188 -91 2688 -91 
Q 1594 -91 976 548 
Q 359 1188 359 2328 
Q 359 3472 976 4111 
Q 1594 4750 2688 4750 
Q 3144 4750 3555 4637 
Q 3966 4525 4313 4306 
L 4313 3634 
Q 3963 3931 3569 4081 
Q 3175 4231 2741 4231 
Q 1884 4231 1454 3753 
Q 1025 3275 1025 2328 
Q 1025 1384 1454 906 
Q 1884 428 2741 428 
Q 3075 428 3337 486 
Q 3600 544 3809 666 
z
" transform="scale(0.015625)"/>
      </defs>
      <use xlink:href="#DejaVuSans-47"/>
     </g>
    </g>
    <g id="line2d_16">
     <path d="M 603.251562 70.976562 
L 613.251562 70.976562 
L 623.251562 70.976562 
" style="fill: none; stroke: #ff7f0e; stroke-width: 1.5; stroke-linecap: square"/>
    </g>
    <g id="text_15">
     <!-- D -->
     <g transform="translate(631.251562 74.476562) scale(0.1 -0.1)">
      <defs>
       <path id="DejaVuSans-44" d="M 1259 4147 
L 1259 519 
L 2022 519 
Q 2988 519 3436 956 
Q 3884 1394 3884 2338 
Q 3884 3275 3436 3711 
Q 2988 4147 2022 4147 
L 1259 4147 
z
M 628 4666 
L 1925 4666 
Q 3281 4666 3915 4102 
Q 4550 3538 4550 2338 
Q 4550 1131 3912 565 
Q 3275 0 1925 0 
L 628 0 
L 628 4666 
z
" transform="scale(0.015625)"/>
      </defs>
      <use xlink:href="#DejaVuSans-44"/>
     </g>
    </g>
   </g>
  </g>
 </g>
 <defs>
  <clipPath id="pdbf364b42e">
   <rect x="90" y="43.2" width="558" height="277.2"/>
  </clipPath>
 </defs>
</svg>
