<?xml version="1.0" encoding="utf-8" standalone="no"?>
<!DOCTYPE svg PUBLIC "-//W3C//DTD SVG 1.1//EN"
  "http://www.w3.org/Graphics/SVG/1.1/DTD/svg11.dtd">
<svg xmlns:xlink="http://www.w3.org/1999/xlink" width="720pt" height="360pt" viewBox="0 0 720 360" xmlns="http://www.w3.org/2000/svg" version="1.1">
 <metadata>
  <rdf:RDF xmlns:dc="http://purl.org/dc/elements/1.1/" xmlns:cc="http://creativecommons.org/ns#" xmlns:rdf="http://www.w3.org/1999/02/22-rdf-syntax-ns#">
   <cc:Work>
    <dc:type rdf:resource="http://purl.org/dc/dcmitype/StillImage"/>
    <dc:date>2023-08-11T19:33:25.857373</dc:date>
    <dc:format>image/svg+xml</dc:format>
    <dc:creator>
     <cc:Agent>
      <dc:title>Matplotlib v3.7.2, https://matplotlib.org/</dc:title>
     </cc:Agent>
    </dc:creator>
   </cc:Work>
  </rdf:RDF>
 </metadata>
 <defs>
  <style type="text/css">*{stroke-linejoin: round; stroke-linecap: butt}</style>
 </defs>
 <g id="figure_1">
  <g id="patch_1">
   <path d="M 0 360 
L 720 360 
L 720 0 
L 0 0 
z
" style="fill: #ffffff"/>
  </g>
  <g id="axes_1">
   <g id="patch_2">
    <path d="M 90 320.4 
L 648 320.4 
L 648 43.2 
L 90 43.2 
z
" style="fill: #ffffff"/>
   </g>
   <g id="matplotlib.axis_1">
    <g id="xtick_1">
     <g id="line2d_1">
      <defs>
       <path id="m6a345b0358" d="M 0 0 
L 0 3.5 
" style="stroke: #000000; stroke-width: 0.8"/>
      </defs>
      <g>
       <use xlink:href="#m6a345b0358" x="115.363636" y="320.4" style="stroke: #000000; stroke-width: 0.8"/>
      </g>
     </g>
     <g id="text_1">
      <!-- 0 -->
      <g transform="translate(112.182386 334.998438) scale(0.1 -0.1)">
       <defs>
        <path id="DejaVuSans-30" d="M 2034 4250 
Q 1547 4250 1301 3770 
Q 1056 3291 1056 2328 
Q 1056 1369 1301 889 
Q 1547 409 2034 409 
Q 2525 409 2770 889 
Q 3016 1369 3016 2328 
Q 3016 3291 2770 3770 
Q 2525 4250 2034 4250 
z
M 2034 4750 
Q 2819 4750 3233 4129 
Q 3647 3509 3647 2328 
Q 3647 1150 3233 529 
Q 2819 -91 2034 -91 
Q 1250 -91 836 529 
Q 422 1150 422 2328 
Q 422 3509 836 4129 
Q 1250 4750 2034 4750 
z
" transform="scale(0.015625)"/>
       </defs>
       <use xlink:href="#DejaVuSans-30"/>
      </g>
     </g>
    </g>
    <g id="xtick_2">
     <g id="line2d_2">
      <g>
       <use xlink:href="#m6a345b0358" x="228.090909" y="320.4" style="stroke: #000000; stroke-width: 0.8"/>
      </g>
     </g>
     <g id="text_2">
      <!-- 200 -->
      <g transform="translate(218.547159 334.998438) scale(0.1 -0.1)">
       <defs>
        <path id="DejaVuSans-32" d="M 1228 531 
L 3431 531 
L 3431 0 
L 469 0 
L 469 531 
Q 828 903 1448 1529 
Q 2069 2156 2228 2338 
Q 2531 2678 2651 2914 
Q 2772 3150 2772 3378 
Q 2772 3750 2511 3984 
Q 2250 4219 1831 4219 
Q 1534 4219 1204 4116 
Q 875 4013 500 3803 
L 500 4441 
Q 881 4594 1212 4672 
Q 1544 4750 1819 4750 
Q 2544 4750 2975 4387 
Q 3406 4025 3406 3419 
Q 3406 3131 3298 2873 
Q 3191 2616 2906 2266 
Q 2828 2175 2409 1742 
Q 1991 1309 1228 531 
z
" transform="scale(0.015625)"/>
       </defs>
       <use xlink:href="#DejaVuSans-32"/>
       <use xlink:href="#DejaVuSans-30" x="63.623047"/>
       <use xlink:href="#DejaVuSans-30" x="127.246094"/>
      </g>
     </g>
    </g>
    <g id="xtick_3">
     <g id="line2d_3">
      <g>
       <use xlink:href="#m6a345b0358" x="340.818182" y="320.4" style="stroke: #000000; stroke-width: 0.8"/>
      </g>
     </g>
     <g id="text_3">
      <!-- 400 -->
      <g transform="translate(331.274432 334.998438) scale(0.1 -0.1)">
       <defs>
        <path id="DejaVuSans-34" d="M 2419 4116 
L 825 1625 
L 2419 1625 
L 2419 4116 
z
M 2253 4666 
L 3047 4666 
L 3047 1625 
L 3713 1625 
L 3713 1100 
L 3047 1100 
L 3047 0 
L 2419 0 
L 2419 1100 
L 313 1100 
L 313 1709 
L 2253 4666 
z
" transform="scale(0.015625)"/>
       </defs>
       <use xlink:href="#DejaVuSans-34"/>
       <use xlink:href="#DejaVuSans-30" x="63.623047"/>
       <use xlink:href="#DejaVuSans-30" x="127.246094"/>
      </g>
     </g>
    </g>
    <g id="xtick_4">
     <g id="line2d_4">
      <g>
       <use xlink:href="#m6a345b0358" x="453.545455" y="320.4" style="stroke: #000000; stroke-width: 0.8"/>
      </g>
     </g>
     <g id="text_4">
      <!-- 600 -->
      <g transform="translate(444.001705 334.998438) scale(0.1 -0.1)">
       <defs>
        <path id="DejaVuSans-36" d="M 2113 2584 
Q 1688 2584 1439 2293 
Q 1191 2003 1191 1497 
Q 1191 994 1439 701 
Q 1688 409 2113 409 
Q 2538 409 2786 701 
Q 3034 994 3034 1497 
Q 3034 2003 2786 2293 
Q 2538 2584 2113 2584 
z
M 3366 4563 
L 3366 3988 
Q 3128 4100 2886 4159 
Q 2644 4219 2406 4219 
Q 1781 4219 1451 3797 
Q 1122 3375 1075 2522 
Q 1259 2794 1537 2939 
Q 1816 3084 2150 3084 
Q 2853 3084 3261 2657 
Q 3669 2231 3669 1497 
Q 3669 778 3244 343 
Q 2819 -91 2113 -91 
Q 1303 -91 875 529 
Q 447 1150 447 2328 
Q 447 3434 972 4092 
Q 1497 4750 2381 4750 
Q 2619 4750 2861 4703 
Q 3103 4656 3366 4563 
z
" transform="scale(0.015625)"/>
       </defs>
       <use xlink:href="#DejaVuSans-36"/>
       <use xlink:href="#DejaVuSans-30" x="63.623047"/>
       <use xlink:href="#DejaVuSans-30" x="127.246094"/>
      </g>
     </g>
    </g>
    <g id="xtick_5">
     <g id="line2d_5">
      <g>
       <use xlink:href="#m6a345b0358" x="566.272727" y="320.4" style="stroke: #000000; stroke-width: 0.8"/>
      </g>
     </g>
     <g id="text_5">
      <!-- 800 -->
      <g transform="translate(556.728977 334.998438) scale(0.1 -0.1)">
       <defs>
        <path id="DejaVuSans-38" d="M 2034 2216 
Q 1584 2216 1326 1975 
Q 1069 1734 1069 1313 
Q 1069 891 1326 650 
Q 1584 409 2034 409 
Q 2484 409 2743 651 
Q 3003 894 3003 1313 
Q 3003 1734 2745 1975 
Q 2488 2216 2034 2216 
z
M 1403 2484 
Q 997 2584 770 2862 
Q 544 3141 544 3541 
Q 544 4100 942 4425 
Q 1341 4750 2034 4750 
Q 2731 4750 3128 4425 
Q 3525 4100 3525 3541 
Q 3525 3141 3298 2862 
Q 3072 2584 2669 2484 
Q 3125 2378 3379 2068 
Q 3634 1759 3634 1313 
Q 3634 634 3220 271 
Q 2806 -91 2034 -91 
Q 1263 -91 848 271 
Q 434 634 434 1313 
Q 434 1759 690 2068 
Q 947 2378 1403 2484 
z
M 1172 3481 
Q 1172 3119 1398 2916 
Q 1625 2713 2034 2713 
Q 2441 2713 2670 2916 
Q 2900 3119 2900 3481 
Q 2900 3844 2670 4047 
Q 2441 4250 2034 4250 
Q 1625 4250 1398 4047 
Q 1172 3844 1172 3481 
z
" transform="scale(0.015625)"/>
       </defs>
       <use xlink:href="#DejaVuSans-38"/>
       <use xlink:href="#DejaVuSans-30" x="63.623047"/>
       <use xlink:href="#DejaVuSans-30" x="127.246094"/>
      </g>
     </g>
    </g>
   </g>
   <g id="matplotlib.axis_2">
    <g id="ytick_1">
     <g id="line2d_6">
      <defs>
       <path id="m0c8e41e5a0" d="M 0 0 
L -3.5 0 
" style="stroke: #000000; stroke-width: 0.8"/>
      </defs>
      <g>
       <use xlink:href="#m0c8e41e5a0" x="90" y="307.835622" style="stroke: #000000; stroke-width: 0.8"/>
      </g>
     </g>
     <g id="text_6">
      <!-- 0 -->
      <g transform="translate(76.6375 311.634841) scale(0.1 -0.1)">
       <use xlink:href="#DejaVuSans-30"/>
      </g>
     </g>
    </g>
    <g id="ytick_2">
     <g id="line2d_7">
      <g>
       <use xlink:href="#m0c8e41e5a0" x="90" y="268.106466" style="stroke: #000000; stroke-width: 0.8"/>
      </g>
     </g>
     <g id="text_7">
      <!-- 10 -->
      <g transform="translate(70.275 271.905685) scale(0.1 -0.1)">
       <defs>
        <path id="DejaVuSans-31" d="M 794 531 
L 1825 531 
L 1825 4091 
L 703 3866 
L 703 4441 
L 1819 4666 
L 2450 4666 
L 2450 531 
L 3481 531 
L 3481 0 
L 794 0 
L 794 531 
z
" transform="scale(0.015625)"/>
       </defs>
       <use xlink:href="#DejaVuSans-31"/>
       <use xlink:href="#DejaVuSans-30" x="63.623047"/>
      </g>
     </g>
    </g>
    <g id="ytick_3">
     <g id="line2d_8">
      <g>
       <use xlink:href="#m0c8e41e5a0" x="90" y="228.37731" style="stroke: #000000; stroke-width: 0.8"/>
      </g>
     </g>
     <g id="text_8">
      <!-- 20 -->
      <g transform="translate(70.275 232.176529) scale(0.1 -0.1)">
       <use xlink:href="#DejaVuSans-32"/>
       <use xlink:href="#DejaVuSans-30" x="63.623047"/>
      </g>
     </g>
    </g>
    <g id="ytick_4">
     <g id="line2d_9">
      <g>
       <use xlink:href="#m0c8e41e5a0" x="90" y="188.648154" style="stroke: #000000; stroke-width: 0.8"/>
      </g>
     </g>
     <g id="text_9">
      <!-- 30 -->
      <g transform="translate(70.275 192.447373) scale(0.1 -0.1)">
       <defs>
        <path id="DejaVuSans-33" d="M 2597 2516 
Q 3050 2419 3304 2112 
Q 3559 1806 3559 1356 
Q 3559 666 3084 287 
Q 2609 -91 1734 -91 
Q 1441 -91 1130 -33 
Q 819 25 488 141 
L 488 750 
Q 750 597 1062 519 
Q 1375 441 1716 441 
Q 2309 441 2620 675 
Q 2931 909 2931 1356 
Q 2931 1769 2642 2001 
Q 2353 2234 1838 2234 
L 1294 2234 
L 1294 2753 
L 1863 2753 
Q 2328 2753 2575 2939 
Q 2822 3125 2822 3475 
Q 2822 3834 2567 4026 
Q 2313 4219 1838 4219 
Q 1578 4219 1281 4162 
Q 984 4106 628 3988 
L 628 4550 
Q 988 4650 1302 4700 
Q 1616 4750 1894 4750 
Q 2613 4750 3031 4423 
Q 3450 4097 3450 3541 
Q 3450 3153 3228 2886 
Q 3006 2619 2597 2516 
z
" transform="scale(0.015625)"/>
       </defs>
       <use xlink:href="#DejaVuSans-33"/>
       <use xlink:href="#DejaVuSans-30" x="63.623047"/>
      </g>
     </g>
    </g>
    <g id="ytick_5">
     <g id="line2d_10">
      <g>
       <use xlink:href="#m0c8e41e5a0" x="90" y="148.918998" style="stroke: #000000; stroke-width: 0.8"/>
      </g>
     </g>
     <g id="text_10">
      <!-- 40 -->
      <g transform="translate(70.275 152.718217) scale(0.1 -0.1)">
       <use xlink:href="#DejaVuSans-34"/>
       <use xlink:href="#DejaVuSans-30" x="63.623047"/>
      </g>
     </g>
    </g>
    <g id="ytick_6">
     <g id="line2d_11">
      <g>
       <use xlink:href="#m0c8e41e5a0" x="90" y="109.189842" style="stroke: #000000; stroke-width: 0.8"/>
      </g>
     </g>
     <g id="text_11">
      <!-- 50 -->
      <g transform="translate(70.275 112.989061) scale(0.1 -0.1)">
       <defs>
        <path id="DejaVuSans-35" d="M 691 4666 
L 3169 4666 
L 3169 4134 
L 1269 4134 
L 1269 2991 
Q 1406 3038 1543 3061 
Q 1681 3084 1819 3084 
Q 2600 3084 3056 2656 
Q 3513 2228 3513 1497 
Q 3513 744 3044 326 
Q 2575 -91 1722 -91 
Q 1428 -91 1123 -41 
Q 819 9 494 109 
L 494 744 
Q 775 591 1075 516 
Q 1375 441 1709 441 
Q 2250 441 2565 725 
Q 2881 1009 2881 1497 
Q 2881 1984 2565 2268 
Q 2250 2553 1709 2553 
Q 1456 2553 1204 2497 
Q 953 2441 691 2322 
L 691 4666 
z
" transform="scale(0.015625)"/>
       </defs>
       <use xlink:href="#DejaVuSans-35"/>
       <use xlink:href="#DejaVuSans-30" x="63.623047"/>
      </g>
     </g>
    </g>
    <g id="ytick_7">
     <g id="line2d_12">
      <g>
       <use xlink:href="#m0c8e41e5a0" x="90" y="69.460686" style="stroke: #000000; stroke-width: 0.8"/>
      </g>
     </g>
     <g id="text_12">
      <!-- 60 -->
      <g transform="translate(70.275 73.259905) scale(0.1 -0.1)">
       <use xlink:href="#DejaVuSans-36"/>
       <use xlink:href="#DejaVuSans-30" x="63.623047"/>
      </g>
     </g>
    </g>
   </g>
   <g id="line2d_13">
    <path d="M 115.363636 55.8 
L 116.490909 214.084383 
L 117.054545 218.088405 
L 117.618182 233.858028 
L 118.181818 229.27124 
L 118.745455 238.820157 
L 119.309091 236.575677 
L 119.872727 231.981031 
L 120.436364 238.341479 
L 121 249.465579 
L 121.563636 227.410634 
L 122.127273 232.932537 
L 122.690909 244.651921 
L 123.254545 234.069652 
L 123.818182 252.105313 
L 124.381818 257.173037 
L 124.945455 245.2287 
L 125.509091 242.875586 
L 126.072727 245.523057 
L 126.636364 260.563077 
L 127.2 254.936264 
L 127.763636 247.971011 
L 128.327273 260.401164 
L 128.890909 245.43281 
L 129.454545 251.981281 
L 130.018182 245.095597 
L 130.581818 253.308422 
L 131.145455 239.330237 
L 131.709091 237.56545 
L 132.272727 259.27992 
L 132.836364 253.500859 
L 133.4 260.48201 
L 133.963636 247.891073 
L 134.527273 249.716504 
L 135.090909 254.170219 
L 135.654545 246.344605 
L 136.218182 245.57043 
L 136.781818 243.452032 
L 137.345455 259.165193 
L 137.909091 251.865258 
L 138.472727 252.851432 
L 139.036364 263.182279 
L 139.6 255.778544 
L 140.163636 261.119203 
L 140.727273 255.524936 
L 141.290909 251.201619 
L 141.854545 245.667292 
L 142.418182 257.143211 
L 142.981818 255.500782 
L 143.545455 266.98498 
L 144.109091 252.592069 
L 144.672727 244.872016 
L 145.8 255.78217 
L 146.363636 252.795781 
L 147.490909 261.898039 
L 148.054545 237.043147 
L 148.618182 257.264807 
L 149.181818 255.991335 
L 149.745455 265.100757 
L 150.309091 261.779137 
L 150.872727 247.656932 
L 151.436364 246.869526 
L 152 250.22702 
L 152.563636 255.551856 
L 153.127273 250.878466 
L 153.690909 255.01536 
L 154.254545 243.770426 
L 154.818182 261.417179 
L 155.381818 250.618186 
L 155.945455 259.048723 
L 157.072727 245.962358 
L 157.636364 255.305599 
L 158.2 258.926605 
L 158.763636 260.282564 
L 159.327273 252.459697 
L 159.890909 264.93842 
L 160.454545 260.474402 
L 161.018182 250.570155 
L 161.581818 257.108566 
L 162.145455 267.654333 
L 162.709091 265.327476 
L 163.272727 255.321766 
L 163.836364 254.423289 
L 164.4 259.947716 
L 165.527273 262.349767 
L 166.090909 258.138217 
L 166.654545 263.002634 
L 167.218182 254.719855 
L 167.781818 266.164308 
L 168.345455 268.145241 
L 168.909091 266.714019 
L 169.472727 254.65169 
L 170.036364 265.390276 
L 170.6 254.166631 
L 171.163636 248.815659 
L 171.727273 257.951111 
L 172.290909 261.793754 
L 172.854545 252.276377 
L 173.418182 262.060862 
L 173.981818 262.764814 
L 174.545455 258.311111 
L 175.672727 268.539947 
L 176.236364 255.499115 
L 176.8 260.184721 
L 177.363636 258.31698 
L 177.927273 255.107892 
L 178.490909 256.339607 
L 179.618182 268.765759 
L 180.181818 258.351704 
L 180.745455 270.128717 
L 181.309091 262.613582 
L 181.872727 247.350315 
L 182.436364 254.164494 
L 183 259.360418 
L 183.563636 261.173854 
L 184.127273 267.061728 
L 184.690909 262.256818 
L 185.254545 261.660333 
L 185.818182 270.176972 
L 186.381818 268.240274 
L 186.945455 255.9163 
L 187.509091 267.184252 
L 188.072727 263.395066 
L 188.636364 261.946283 
L 189.2 268.253368 
L 189.763636 262.03118 
L 190.327273 251.383943 
L 190.890909 263.83631 
L 191.454545 268.189351 
L 192.018182 267.75539 
L 192.581818 263.837261 
L 193.145455 258.872984 
L 193.709091 267.150531 
L 194.272727 257.650821 
L 194.836364 262.244432 
L 195.4 268.961754 
L 195.963636 268.062871 
L 196.527273 258.695014 
L 197.090909 267.266736 
L 197.654545 269.410405 
L 198.218182 257.782594 
L 198.781818 262.158781 
L 199.909091 269.772291 
L 200.472727 268.415876 
L 201.036364 256.982987 
L 201.6 251.028066 
L 202.163636 268.122967 
L 202.727273 256.46802 
L 203.290909 268.59831 
L 203.854545 267.519283 
L 204.418182 268.978326 
L 204.981818 269.0103 
L 206.109091 257.974042 
L 206.672727 272.853004 
L 207.236364 262.784032 
L 207.8 267.253634 
L 208.363636 263.214849 
L 208.927273 264.525028 
L 209.490909 273.901539 
L 210.054545 270.313762 
L 210.618182 271.481339 
L 211.181818 256.893513 
L 211.745455 265.729092 
L 212.309091 269.291836 
L 213.436364 269.783138 
L 214 273.01516 
L 214.563636 259.493116 
L 215.127273 261.884365 
L 215.690909 270.701367 
L 216.254545 261.365237 
L 216.818182 270.602909 
L 217.381818 261.572075 
L 217.945455 268.661296 
L 218.509091 268.86721 
L 219.072727 265.788013 
L 219.636364 269.237939 
L 220.2 263.2211 
L 220.763636 272.128152 
L 221.327273 272.697471 
L 221.890909 272.709868 
L 222.454545 261.58387 
L 223.018182 271.336476 
L 223.581818 265.271412 
L 224.145455 255.430313 
L 224.709091 275.169097 
L 225.272727 266.063876 
L 225.836364 270.078591 
L 226.4 264.873797 
L 226.963636 261.78781 
L 227.527273 278.727512 
L 228.090909 270.363612 
L 228.654545 266.760058 
L 229.218182 272.473242 
L 229.781818 276.125756 
L 230.345455 266.712424 
L 230.909091 269.292321 
L 231.472727 273.007052 
L 232.036364 269.523184 
L 232.6 273.192703 
L 233.163636 272.066678 
L 233.727273 276.47665 
L 234.854545 272.484328 
L 235.418182 267.726253 
L 235.981818 270.545648 
L 236.545455 269.433206 
L 237.109091 264.350971 
L 237.672727 271.630829 
L 238.236364 272.8337 
L 238.8 274.395585 
L 239.363636 276.33546 
L 239.927273 265.043504 
L 240.490909 276.955253 
L 241.054545 277.461868 
L 241.618182 266.301825 
L 242.181818 277.010917 
L 243.309091 266.552129 
L 243.872727 276.797715 
L 244.436364 275.07921 
L 245 274.653804 
L 245.563636 273.389144 
L 246.127273 277.850085 
L 246.690909 270.93755 
L 247.254545 275.985416 
L 248.381818 267.704725 
L 248.945455 279.970242 
L 249.509091 274.306527 
L 250.072727 263.654168 
L 250.636364 269.848606 
L 251.2 278.637688 
L 251.763636 273.126818 
L 252.327273 278.01714 
L 252.890909 275.239134 
L 253.454545 273.301523 
L 254.018182 277.068261 
L 254.581818 275.119478 
L 255.145455 275.423773 
L 255.709091 277.145571 
L 256.272727 268.993391 
L 256.836364 274.191486 
L 257.4 274.092775 
L 257.963636 267.928768 
L 258.527273 275.794919 
L 259.090909 279.094766 
L 259.654545 277.113243 
L 260.218182 274.646919 
L 260.781818 276.25802 
L 261.345455 265.962066 
L 261.909091 272.1189 
L 262.472727 276.755818 
L 263.6 272.091961 
L 264.163636 268.516899 
L 264.727273 277.522514 
L 265.290909 271.631287 
L 265.854545 276.036717 
L 266.418182 277.446354 
L 266.981818 271.959945 
L 268.109091 277.83725 
L 268.672727 279.610796 
L 269.8 271.384575 
L 270.927273 280.122225 
L 271.490909 282.890618 
L 272.054545 276.721832 
L 272.618182 273.373685 
L 273.181818 274.86903 
L 273.745455 276.725121 
L 274.309091 280.307237 
L 274.872727 275.604597 
L 275.436364 275.993202 
L 276 275.774672 
L 276.563636 273.226685 
L 277.127273 282.511587 
L 277.690909 274.065741 
L 278.818182 280.846891 
L 279.381818 279.726324 
L 279.945455 276.13763 
L 280.509091 277.012311 
L 281.072727 275.183965 
L 281.636364 276.062955 
L 282.2 276.619305 
L 282.763636 282.166389 
L 283.327273 280.138064 
L 283.890909 276.518409 
L 284.454545 280.637973 
L 285.018182 280.502904 
L 285.581818 274.920373 
L 286.145455 275.830785 
L 286.709091 271.156683 
L 287.272727 280.171365 
L 287.836364 279.432732 
L 288.4 280.561125 
L 288.963636 279.283104 
L 289.527273 278.959607 
L 290.090909 276.397764 
L 291.218182 280.760827 
L 291.781818 279.058294 
L 292.345455 282.749092 
L 292.909091 279.158131 
L 293.472727 278.100506 
L 294.036364 278.358331 
L 294.6 280.857197 
L 295.163636 275.269782 
L 295.727273 282.84148 
L 296.290909 282.402483 
L 296.854545 278.104833 
L 297.418182 271.140735 
L 297.981818 279.012685 
L 298.545455 276.98032 
L 299.109091 281.130399 
L 299.672727 281.058225 
L 300.236364 280.020268 
L 300.8 278.31349 
L 301.363636 277.372138 
L 301.927273 281.53329 
L 302.490909 281.241257 
L 303.054545 284.618215 
L 303.618182 277.204412 
L 304.181818 282.442086 
L 304.745455 282.259089 
L 305.309091 282.671373 
L 305.872727 280.880643 
L 306.436364 278.314956 
L 307 278.88275 
L 307.563636 278.26733 
L 308.127273 277.288349 
L 308.690909 278.376749 
L 309.254545 281.227826 
L 309.818182 273.849344 
L 310.381818 275.427377 
L 310.945455 279.556043 
L 311.509091 280.830234 
L 312.072727 281.191794 
L 312.636364 280.678967 
L 313.2 282.004883 
L 313.763636 282.114878 
L 314.327273 280.134599 
L 314.890909 277.033807 
L 315.454545 277.807202 
L 316.018182 283.571947 
L 316.581818 280.136039 
L 317.145455 279.507235 
L 317.709091 280.611464 
L 318.272727 285.191917 
L 318.836364 281.483487 
L 319.4 280.520598 
L 319.963636 278.607303 
L 320.527273 280.76782 
L 321.090909 275.241942 
L 321.654545 279.376256 
L 322.781818 277.251595 
L 323.345455 280.663059 
L 323.909091 277.774129 
L 324.472727 282.125412 
L 325.036364 276.17223 
L 325.6 283.38983 
L 326.163636 282.732688 
L 326.727273 280.638589 
L 327.290909 280.827386 
L 327.854545 277.9209 
L 328.418182 282.572567 
L 328.981818 283.573271 
L 329.545455 287.22262 
L 330.109091 279.73803 
L 330.672727 282.726569 
L 331.236364 281.937477 
L 331.8 281.458765 
L 332.363636 276.864543 
L 332.927273 268.697056 
L 333.490909 272.497017 
L 334.054545 270.953967 
L 334.618182 280.706788 
L 335.181818 277.281076 
L 335.745455 282.820478 
L 336.309091 279.806927 
L 337.436364 282.664337 
L 338 284.667419 
L 338.563636 279.384023 
L 339.127273 284.400626 
L 339.690909 286.47522 
L 340.254545 284.846801 
L 340.818182 279.154336 
L 341.381818 278.085851 
L 341.945455 282.948017 
L 342.509091 281.332869 
L 343.072727 284.569886 
L 343.636364 283.412813 
L 344.2 284.920375 
L 344.763636 274.183999 
L 345.327273 281.761463 
L 345.890909 285.171832 
L 346.454545 285.264891 
L 347.018182 280.289975 
L 347.581818 282.931846 
L 348.145455 287.030024 
L 348.709091 285.578552 
L 349.272727 285.574167 
L 349.836364 280.28821 
L 350.4 284.770188 
L 350.963636 276.647006 
L 351.527273 283.912515 
L 352.090909 281.898562 
L 352.654545 275.885621 
L 353.218182 285.300044 
L 353.781818 286.886862 
L 354.345455 279.964672 
L 354.909091 284.861899 
L 355.472727 282.591206 
L 356.036364 283.930846 
L 356.6 285.85352 
L 357.163636 286.586096 
L 357.727273 283.488149 
L 358.290909 283.412112 
L 358.854545 280.233002 
L 359.418182 283.699873 
L 359.981818 284.643494 
L 360.545455 281.425768 
L 361.109091 284.679354 
L 361.672727 279.872196 
L 362.236364 278.553444 
L 362.8 281.802868 
L 363.363636 283.825006 
L 363.927273 281.613686 
L 364.490909 282.701803 
L 365.054545 279.267254 
L 365.618182 282.396417 
L 366.181818 282.634572 
L 366.745455 285.785349 
L 367.309091 281.160128 
L 367.872727 282.37533 
L 368.436364 280.423741 
L 369 276.47838 
L 369.563636 279.200539 
L 370.127273 288.271693 
L 370.690909 285.601303 
L 371.254545 283.480645 
L 371.818182 284.017641 
L 372.381818 277.286464 
L 372.945455 285.141514 
L 373.509091 284.37144 
L 374.072727 285.996684 
L 374.636364 284.148315 
L 375.2 277.741604 
L 375.763636 280.112332 
L 376.327273 281.785839 
L 376.890909 273.589833 
L 377.454545 276.902434 
L 378.018182 278.8292 
L 378.581818 278.366568 
L 379.145455 280.993615 
L 379.709091 282.587241 
L 380.272727 276.091878 
L 380.836364 280.428883 
L 381.4 280.336483 
L 381.963636 278.983922 
L 382.527273 281.796478 
L 383.090909 279.591791 
L 383.654545 280.252225 
L 384.218182 285.718136 
L 384.781818 284.443775 
L 385.345455 284.614066 
L 385.909091 282.036168 
L 386.472727 282.36665 
L 387.036364 281.407723 
L 387.6 278.849406 
L 388.163636 282.097471 
L 388.727273 283.341281 
L 389.290909 277.478427 
L 389.854545 280.681736 
L 390.418182 281.03797 
L 390.981818 284.004194 
L 391.545455 284.026702 
L 392.109091 286.88778 
L 392.672727 279.842408 
L 393.236364 284.019788 
L 393.8 282.715896 
L 394.363636 282.698126 
L 394.927273 285.850093 
L 395.490909 271.080329 
L 396.054545 277.192294 
L 396.618182 281.359495 
L 397.181818 273.739671 
L 397.745455 283.964739 
L 398.309091 283.370893 
L 398.872727 286.960068 
L 399.436364 286.706006 
L 400 285.913433 
L 400.563636 286.795393 
L 401.127273 287.258659 
L 401.690909 286.815981 
L 402.254545 288.684221 
L 402.818182 287.421332 
L 403.381818 285.02143 
L 403.945455 286.825906 
L 404.509091 285.490829 
L 405.072727 286.265377 
L 405.636364 284.572964 
L 406.2 284.030372 
L 406.763636 280.201484 
L 407.890909 284.927896 
L 408.454545 279.769481 
L 409.018182 286.318397 
L 409.581818 278.254851 
L 410.145455 279.737719 
L 410.709091 271.235377 
L 411.272727 272.861044 
L 412.4 280.184614 
L 412.963636 280.484632 
L 413.527273 282.765265 
L 414.090909 283.214714 
L 414.654545 283.366854 
L 415.218182 281.319494 
L 415.781818 284.279092 
L 416.345455 284.547308 
L 416.909091 284.991759 
L 417.472727 284.597624 
L 418.036364 286.103557 
L 418.6 285.471729 
L 419.163636 286.064041 
L 419.727273 284.273795 
L 420.290909 287.759184 
L 420.854545 283.218429 
L 421.418182 284.684258 
L 421.981818 280.814968 
L 422.545455 283.012303 
L 423.109091 283.428012 
L 423.672727 282.792875 
L 424.236364 286.322978 
L 424.8 280.597574 
L 425.363636 281.354761 
L 425.927273 284.926015 
L 426.490909 277.652427 
L 427.054545 277.363632 
L 427.618182 282.575253 
L 428.181818 281.277435 
L 428.745455 288.119454 
L 429.309091 289.086873 
L 430.436364 286.693557 
L 431 284.83856 
L 431.563636 285.150223 
L 432.127273 277.545407 
L 433.254545 274.615275 
L 433.818182 280.624153 
L 434.381818 277.596662 
L 434.945455 280.505562 
L 435.509091 278.349764 
L 436.072727 277.162155 
L 436.636364 278.17368 
L 437.2 275.653189 
L 437.763636 277.944429 
L 438.327273 275.508761 
L 438.890909 275.820525 
L 439.454545 281.752406 
L 440.018182 280.998304 
L 440.581818 273.945846 
L 441.145455 277.085082 
L 441.709091 275.880222 
L 442.272727 263.069636 
L 443.4 273.34847 
L 443.963636 271.019935 
L 444.527273 273.069496 
L 445.090909 276.809591 
L 445.654545 275.965657 
L 446.218182 276.195164 
L 446.781818 278.420946 
L 447.345455 286.657233 
L 447.909091 286.284276 
L 448.472727 288.719535 
L 449.036364 288.451817 
L 449.6 287.656011 
L 450.163636 289.730265 
L 450.727273 287.067339 
L 451.290909 287.97191 
L 451.854545 283.313901 
L 452.418182 286.699824 
L 452.981818 288.625073 
L 453.545455 289.223407 
L 454.109091 288.809962 
L 454.672727 287.753199 
L 455.8 289.591702 
L 456.363636 287.754548 
L 456.927273 289.937502 
L 457.490909 287.091826 
L 458.054545 288.372611 
L 458.618182 283.075528 
L 459.181818 288.678361 
L 459.745455 288.152457 
L 460.309091 278.689281 
L 460.872727 278.271628 
L 461.436364 267.984836 
L 462 274.886239 
L 462.563636 273.635898 
L 463.127273 281.828252 
L 463.690909 282.930433 
L 464.254545 278.279505 
L 464.818182 276.263724 
L 465.381818 277.827922 
L 465.945455 282.199405 
L 466.509091 276.531941 
L 467.072727 279.956189 
L 467.636364 281.607641 
L 468.2 281.188909 
L 469.327273 278.115095 
L 469.890909 282.432582 
L 470.454545 279.258043 
L 471.018182 281.212629 
L 471.581818 261.592285 
L 472.145455 257.971287 
L 472.709091 264.868811 
L 473.272727 266.889239 
L 473.836364 272.933821 
L 474.4 267.920831 
L 474.963636 272.069591 
L 475.527273 271.728525 
L 476.090909 271.921227 
L 476.654545 265.78081 
L 477.218182 283.297968 
L 477.781818 282.078493 
L 478.345455 277.407693 
L 478.909091 281.044073 
L 479.472727 276.246704 
L 480.036364 277.626547 
L 480.6 270.914396 
L 481.163636 274.143818 
L 481.727273 274.585581 
L 482.290909 273.301913 
L 482.854545 270.553237 
L 483.418182 271.945945 
L 483.981818 278.513083 
L 484.545455 267.549078 
L 485.109091 271.763511 
L 485.672727 270.763534 
L 486.236364 281.140176 
L 486.8 284.951051 
L 487.363636 285.67837 
L 487.927273 284.018844 
L 488.490909 284.159739 
L 489.054545 280.198275 
L 489.618182 288.127352 
L 490.181818 283.919038 
L 490.745455 289.364616 
L 491.309091 286.297604 
L 491.872727 284.682504 
L 492.436364 289.262186 
L 493 288.778412 
L 493.563636 286.309736 
L 494.127273 275.378966 
L 494.690909 273.576519 
L 495.254545 279.222111 
L 495.818182 276.107933 
L 496.381818 285.949774 
L 497.509091 275.729293 
L 498.072727 273.47054 
L 498.636364 280.707948 
L 499.2 277.707788 
L 499.763636 280.022186 
L 500.327273 274.08104 
L 500.890909 276.189378 
L 501.454545 272.985864 
L 502.018182 274.133482 
L 502.581818 272.716764 
L 503.709091 272.714483 
L 504.272727 265.668754 
L 504.836364 274.253684 
L 505.4 269.989802 
L 505.963636 261.103407 
L 506.527273 258.915098 
L 507.090909 264.764382 
L 507.654545 261.430966 
L 508.218182 271.513658 
L 508.781818 268.964561 
L 509.345455 265.113685 
L 509.909091 268.571989 
L 510.472727 270.451858 
L 511.036364 269.876542 
L 511.6 267.080482 
L 512.163636 271.604189 
L 512.727273 272.630219 
L 513.290909 269.088306 
L 513.854545 270.564547 
L 514.418182 269.515959 
L 514.981818 255.694568 
L 515.545455 256.297862 
L 516.109091 266.251315 
L 516.672727 268.251921 
L 517.236364 264.408372 
L 517.8 264.273307 
L 518.363636 268.393666 
L 518.927273 265.116678 
L 519.490909 267.052558 
L 520.054545 266.717482 
L 520.618182 267.089155 
L 521.181818 266.870939 
L 521.745455 268.686383 
L 522.309091 267.425819 
L 522.872727 267.223508 
L 524 269.710938 
L 524.563636 265.602847 
L 525.127273 267.265648 
L 525.690909 266.856807 
L 526.254545 261.183591 
L 526.818182 266.798216 
L 527.381818 269.325625 
L 527.945455 265.646104 
L 528.509091 263.150521 
L 529.072727 266.535511 
L 530.2 263.856349 
L 530.763636 258.510492 
L 531.327273 264.004161 
L 531.890909 271.033703 
L 532.454545 282.736672 
L 533.018182 286.94816 
L 534.145455 287.367826 
L 534.709091 282.547276 
L 535.272727 287.838297 
L 535.836364 285.729003 
L 536.4 280.683623 
L 536.963636 288.214481 
L 537.527273 285.894498 
L 538.090909 284.747191 
L 538.654545 289.974192 
L 539.218182 288.036859 
L 539.781818 286.792547 
L 540.345455 288.757192 
L 540.909091 289.211211 
L 541.472727 287.615686 
L 542.036364 286.375006 
L 542.6 289.386813 
L 543.163636 286.07113 
L 543.727273 288.502283 
L 544.290909 283.789671 
L 544.854545 286.499967 
L 545.418182 287.582158 
L 545.981818 290.19717 
L 546.545455 289.408969 
L 547.109091 289.175292 
L 547.672727 285.274911 
L 548.236364 289.358751 
L 548.8 289.274212 
L 549.363636 287.483479 
L 549.927273 290.182894 
L 551.054545 286.253196 
L 551.618182 289.716799 
L 552.181818 288.07853 
L 552.745455 288.271905 
L 553.309091 289.087919 
L 553.872727 286.407185 
L 554.436364 289.035867 
L 555 287.208559 
L 556.127273 292.146072 
L 556.690909 289.946516 
L 557.254545 289.49127 
L 557.818182 291.252563 
L 558.381818 290.168434 
L 558.945455 285.915447 
L 559.509091 289.00392 
L 560.072727 290.394692 
L 560.636364 285.376623 
L 561.763636 289.436127 
L 562.327273 289.417351 
L 562.890909 288.683486 
L 563.454545 289.4354 
L 564.018182 289.958263 
L 564.581818 290.768051 
L 565.145455 289.814182 
L 565.709091 290.301251 
L 566.272727 291.458178 
L 566.836364 291.695239 
L 567.4 289.294323 
L 567.963636 290.929672 
L 568.527273 290.001216 
L 569.090909 289.949193 
L 569.654545 291.380875 
L 570.218182 290.247585 
L 570.781818 290.737912 
L 571.345455 291.464598 
L 571.909091 291.392085 
L 572.472727 288.989907 
L 573.036364 290.270208 
L 573.6 285.988974 
L 574.163636 290.077639 
L 574.727273 288.068695 
L 575.290909 290.306792 
L 575.854545 290.761467 
L 576.418182 287.83842 
L 576.981818 287.673285 
L 577.545455 289.011706 
L 578.109091 285.966191 
L 578.672727 283.759606 
L 579.236364 283.502651 
L 579.8 283.528195 
L 580.927273 278.338716 
L 581.490909 279.795522 
L 582.054545 266.929644 
L 582.618182 267.889773 
L 583.181818 270.982751 
L 583.745455 274.812822 
L 584.872727 278.98544 
L 585.436364 276.664139 
L 586 272.687336 
L 586.563636 270.536487 
L 587.127273 271.505429 
L 587.690909 268.874848 
L 588.254545 270.75199 
L 588.818182 270.047579 
L 589.381818 270.380673 
L 589.945455 262.70517 
L 590.509091 261.05724 
L 591.072727 273.414238 
L 591.636364 265.683284 
L 592.2 276.831539 
L 592.763636 268.784109 
L 593.327273 276.861781 
L 593.890909 267.731698 
L 595.018182 261.873423 
L 595.581818 272.203755 
L 596.145455 270.708372 
L 596.709091 256.755114 
L 597.272727 259.99056 
L 597.836364 257.630842 
L 598.4 256.840155 
L 598.963636 262.171891 
L 599.527273 265.015887 
L 600.090909 257.337618 
L 600.654545 265.465966 
L 601.218182 265.620802 
L 601.781818 264.835719 
L 602.345455 253.424377 
L 602.909091 274.943231 
L 603.472727 277.850971 
L 604.036364 284.493536 
L 604.6 285.483209 
L 605.163636 278.383019 
L 606.290909 272.329583 
L 606.854545 275.327388 
L 607.418182 271.383511 
L 607.981818 281.787453 
L 608.545455 276.661032 
L 609.109091 273.865014 
L 609.672727 269.346146 
L 610.236364 285.648516 
L 610.8 275.890672 
L 611.363636 272.318895 
L 611.927273 257.838396 
L 612.490909 267.369944 
L 613.054545 271.944703 
L 613.618182 273.315477 
L 614.181818 265.936347 
L 614.745455 262.419452 
L 615.309091 270.200039 
L 615.872727 270.956399 
L 616.436364 261.717545 
L 617 264.831172 
L 617.563636 272.938068 
L 618.690909 270.332486 
L 619.254545 267.478893 
L 619.818182 277.594982 
L 620.381818 269.024547 
L 620.945455 276.594336 
L 621.509091 273.695182 
L 622.072727 271.935704 
L 622.636364 272.464997 
L 622.636364 272.464997 
" clip-path="url(#p3645625d80)" style="fill: none; stroke: #1f77b4; stroke-width: 1.5; stroke-linecap: square"/>
   </g>
   <g id="line2d_14">
    <path d="M 115.363636 305.008482 
L 118.745455 305.534607 
L 119.309091 305.554603 
L 119.872727 305.737589 
L 120.436364 305.638035 
L 121 305.916892 
L 121.563636 305.913885 
L 122.127273 306.2682 
L 122.690909 306.319345 
L 123.254545 305.327956 
L 123.818182 305.367582 
L 124.381818 305.597848 
L 124.945455 305.165222 
L 126.072727 305.39244 
L 126.636364 304.879057 
L 127.2 305.584148 
L 127.763636 304.956259 
L 128.890909 305.244612 
L 129.454545 305.735917 
L 130.018182 305.921454 
L 130.581818 305.630407 
L 131.145455 306.209247 
L 132.272727 305.305803 
L 132.836364 305.909638 
L 133.4 305.71525 
L 133.963636 304.8013 
L 134.527273 306.121753 
L 135.090909 305.937715 
L 135.654545 306.121729 
L 136.218182 306.088392 
L 136.781818 305.811647 
L 138.472727 306.060305 
L 139.036364 305.4015 
L 139.6 305.546743 
L 140.163636 305.46045 
L 140.727273 306.28647 
L 141.290909 305.453485 
L 141.854545 305.996724 
L 142.418182 305.544529 
L 142.981818 305.860123 
L 143.545455 305.172023 
L 144.109091 305.620012 
L 144.672727 305.519425 
L 145.236364 306.182332 
L 145.8 305.764329 
L 146.363636 305.637943 
L 146.927273 304.878525 
L 147.490909 305.103186 
L 148.054545 305.917921 
L 148.618182 305.680047 
L 149.181818 306.235768 
L 149.745455 305.633197 
L 150.309091 306.102906 
L 151.436364 306.599149 
L 152 305.885462 
L 152.563636 306.268207 
L 153.127273 305.647665 
L 153.690909 306.244285 
L 154.254545 304.907414 
L 155.381818 306.054119 
L 155.945455 306.193197 
L 156.509091 305.345514 
L 157.072727 305.998357 
L 158.2 306.205409 
L 158.763636 304.70149 
L 159.327273 304.836917 
L 160.454545 305.767813 
L 161.018182 305.521457 
L 161.581818 304.916982 
L 162.145455 305.585293 
L 163.272727 305.822591 
L 164.4 305.703305 
L 164.963636 305.418341 
L 165.527273 305.710569 
L 166.090909 304.596288 
L 166.654545 306.218256 
L 167.218182 305.88733 
L 167.781818 306.148093 
L 168.345455 305.708692 
L 168.909091 305.985806 
L 169.472727 305.564878 
L 170.6 305.641523 
L 171.163636 306.09455 
L 171.727273 305.332067 
L 172.854545 306.047848 
L 173.418182 305.450723 
L 173.981818 305.827661 
L 174.545455 305.210388 
L 175.109091 305.879073 
L 175.672727 305.776102 
L 176.236364 306.103268 
L 177.363636 305.263061 
L 177.927273 306.103728 
L 178.490909 306.659933 
L 179.054545 305.207881 
L 179.618182 305.733994 
L 180.745455 305.533577 
L 181.309091 305.512298 
L 181.872727 305.941689 
L 182.436364 306.518373 
L 183 305.680077 
L 183.563636 305.991324 
L 184.127273 305.666105 
L 184.690909 305.580643 
L 185.254545 306.045936 
L 185.818182 305.807009 
L 186.381818 306.171129 
L 186.945455 305.350828 
L 187.509091 305.870357 
L 188.636364 305.286392 
L 189.2 305.355507 
L 189.763636 306.145186 
L 190.327273 306.599493 
L 190.890909 305.979225 
L 191.454545 305.734937 
L 192.581818 305.996073 
L 193.145455 305.465805 
L 193.709091 305.630986 
L 194.272727 305.968597 
L 194.836364 305.834903 
L 195.4 305.462817 
L 195.963636 305.33593 
L 196.527273 305.986096 
L 197.090909 305.251846 
L 197.654545 304.995036 
L 198.218182 305.828075 
L 198.781818 306.003543 
L 199.345455 305.081541 
L 199.909091 305.683119 
L 200.472727 305.413373 
L 201.036364 306.411997 
L 201.6 306.520408 
L 202.163636 305.467758 
L 202.727273 306.110947 
L 203.290909 305.655058 
L 203.854545 305.520644 
L 204.418182 305.014876 
L 204.981818 305.050872 
L 205.545455 306.06589 
L 206.109091 305.399446 
L 206.672727 305.237042 
L 207.8 305.538393 
L 208.363636 306.268338 
L 208.927273 304.802959 
L 209.490909 305.69723 
L 210.618182 304.963181 
L 211.181818 304.221106 
L 211.745455 305.748656 
L 212.309091 305.106282 
L 212.872727 304.816547 
L 213.436364 305.931552 
L 214 305.434455 
L 214.563636 305.404556 
L 215.127273 304.813002 
L 215.690909 305.553498 
L 216.254545 305.19723 
L 216.818182 304.994113 
L 217.381818 305.699886 
L 217.945455 304.433101 
L 218.509091 305.273362 
L 219.072727 305.722742 
L 219.636364 305.07007 
L 220.2 306.082641 
L 220.763636 305.601438 
L 221.327273 305.684992 
L 221.890909 305.301922 
L 222.454545 306.036123 
L 223.581818 305.265429 
L 224.145455 306.095053 
L 224.709091 305.668858 
L 225.272727 305.846058 
L 225.836364 305.429071 
L 226.4 305.879996 
L 226.963636 305.788275 
L 227.527273 305.081877 
L 228.090909 305.370598 
L 228.654545 306.06344 
L 229.218182 305.254775 
L 230.345455 304.758528 
L 230.909091 305.406774 
L 231.472727 304.955052 
L 232.036364 304.969637 
L 232.6 305.600534 
L 233.727273 305.383146 
L 234.290909 305.695124 
L 234.854545 305.251002 
L 235.418182 305.543883 
L 235.981818 305.131604 
L 236.545455 305.285588 
L 237.109091 306.050976 
L 237.672727 305.937134 
L 238.236364 305.420444 
L 238.8 304.571595 
L 239.927273 306.113407 
L 240.490909 305.228271 
L 241.054545 305.630814 
L 241.618182 305.572601 
L 242.181818 305.361269 
L 242.745455 305.723557 
L 243.309091 305.695366 
L 244.436364 305.121492 
L 245 305.766643 
L 245.563636 305.119268 
L 246.127273 305.200441 
L 246.690909 305.534592 
L 247.254545 305.161228 
L 247.818182 305.862119 
L 248.381818 305.783307 
L 248.945455 305.225638 
L 249.509091 305.78443 
L 250.636364 305.726977 
L 251.2 305.366719 
L 251.763636 305.596081 
L 252.327273 304.942205 
L 252.890909 305.835221 
L 253.454545 305.471448 
L 254.018182 305.515438 
L 254.581818 304.819025 
L 255.145455 305.368722 
L 255.709091 305.329701 
L 256.272727 306.000974 
L 256.836364 305.650705 
L 257.4 305.586937 
L 257.963636 305.342279 
L 258.527273 305.62067 
L 259.090909 305.234624 
L 259.654545 305.314338 
L 260.218182 305.553597 
L 261.345455 305.75418 
L 261.909091 305.825271 
L 262.472727 305.19461 
L 263.036364 305.066931 
L 263.6 305.989314 
L 264.727273 305.292853 
L 265.290909 305.675494 
L 265.854545 305.748423 
L 266.418182 305.591489 
L 266.981818 305.986852 
L 267.545455 305.252926 
L 268.109091 305.148471 
L 268.672727 304.588429 
L 269.236364 305.642809 
L 269.8 305.883911 
L 270.927273 305.036652 
L 271.490909 305.37598 
L 272.054545 305.50327 
L 272.618182 305.812753 
L 273.181818 305.612371 
L 273.745455 305.225178 
L 274.309091 305.22779 
L 274.872727 305.460942 
L 275.436364 305.255312 
L 276.563636 305.745978 
L 277.127273 305.281665 
L 277.690909 305.726277 
L 278.818182 305.483417 
L 279.381818 305.088193 
L 279.945455 305.68699 
L 280.509091 305.220413 
L 281.072727 305.334216 
L 281.636364 305.866463 
L 282.2 305.476993 
L 282.763636 305.488421 
L 283.327273 305.074408 
L 283.890909 305.599646 
L 284.454545 305.34666 
L 285.018182 305.32247 
L 285.581818 305.831545 
L 286.145455 305.51738 
L 286.709091 305.887166 
L 287.272727 305.372282 
L 287.836364 305.528807 
L 288.4 305.353162 
L 289.527273 305.222673 
L 290.090909 305.44408 
L 290.654545 305.325787 
L 291.218182 305.536324 
L 291.781818 305.573594 
L 292.345455 305.209873 
L 292.909091 305.152326 
L 293.472727 305.404708 
L 294.036364 305.363215 
L 294.6 304.811851 
L 295.163636 305.57481 
L 295.727273 305.280105 
L 296.854545 305.333279 
L 297.418182 305.308118 
L 297.981818 305.986202 
L 298.545455 305.552162 
L 299.109091 305.294783 
L 299.672727 305.710845 
L 300.236364 305.463243 
L 300.8 305.344054 
L 301.363636 305.678252 
L 301.927273 305.340175 
L 302.490909 305.339336 
L 303.054545 305.16175 
L 303.618182 305.187062 
L 304.745455 305.640697 
L 305.309091 305.073912 
L 306.436364 305.940041 
L 307 305.395014 
L 307.563636 305.534275 
L 308.127273 305.944434 
L 308.690909 305.358636 
L 309.254545 305.530968 
L 309.818182 305.282047 
L 310.381818 305.726537 
L 310.945455 305.656661 
L 311.509091 305.006321 
L 312.636364 305.192542 
L 313.2 303.076921 
L 313.763636 305.354219 
L 314.327273 305.634281 
L 314.890909 305.58771 
L 315.454545 305.284424 
L 316.581818 305.739808 
L 317.145455 305.69106 
L 317.709091 305.299287 
L 318.272727 305.501672 
L 318.836364 305.349774 
L 319.4 305.504734 
L 319.963636 305.856707 
L 320.527273 305.267183 
L 321.090909 305.27451 
L 321.654545 304.970442 
L 322.218182 305.459708 
L 323.345455 305.555925 
L 323.909091 305.879411 
L 324.472727 305.126159 
L 325.036364 305.943578 
L 325.6 305.310623 
L 326.163636 305.494327 
L 326.727273 305.135975 
L 327.854545 305.64574 
L 328.418182 305.321187 
L 328.981818 305.467099 
L 329.545455 305.068551 
L 330.672727 305.671053 
L 331.236364 305.623181 
L 331.8 305.288964 
L 332.927273 305.816865 
L 333.490909 305.345402 
L 334.054545 301.223838 
L 334.618182 304.647658 
L 335.181818 305.332407 
L 335.745455 305.063569 
L 336.309091 305.347543 
L 336.872727 305.484176 
L 338 305.402974 
L 339.690909 305.599875 
L 340.254545 305.658158 
L 340.818182 305.602104 
L 341.381818 305.980385 
L 341.945455 305.441098 
L 342.509091 305.587149 
L 343.072727 305.288595 
L 344.763636 305.443577 
L 345.327273 305.71622 
L 345.890909 305.311144 
L 346.454545 305.30268 
L 347.018182 305.52715 
L 348.145455 304.723142 
L 348.709091 305.039921 
L 349.272727 305.619721 
L 349.836364 305.632043 
L 350.4 305.062751 
L 350.963636 305.98366 
L 351.527273 305.581195 
L 352.090909 305.698269 
L 352.654545 302.851217 
L 353.218182 304.881066 
L 355.472727 305.383469 
L 356.036364 305.181467 
L 357.163636 305.267251 
L 357.727273 305.715423 
L 358.290909 305.587036 
L 358.854545 305.82126 
L 359.418182 305.578039 
L 359.981818 305.132493 
L 360.545455 305.314463 
L 361.109091 305.325781 
L 361.672727 305.538482 
L 362.236364 306.046169 
L 363.363636 305.901478 
L 363.927273 304.870095 
L 364.490909 305.250883 
L 365.054545 305.432683 
L 365.618182 305.098601 
L 366.181818 305.485655 
L 366.745455 305.331357 
L 367.309091 305.91737 
L 367.872727 305.808243 
L 368.436364 305.463701 
L 369 305.755281 
L 369.563636 305.05091 
L 370.127273 304.773767 
L 371.254545 304.589103 
L 372.381818 305.830105 
L 372.945455 305.208272 
L 373.509091 305.326291 
L 374.072727 305.920012 
L 375.2 305.528207 
L 375.763636 306.060167 
L 376.327273 305.642307 
L 376.890909 306.10556 
L 377.454545 306.127385 
L 378.018182 304.889453 
L 378.581818 305.593624 
L 379.145455 305.063497 
L 379.709091 305.726088 
L 380.272727 305.931581 
L 380.836364 304.977929 
L 381.4 305.95594 
L 382.527273 305.200269 
L 383.090909 306.037715 
L 383.654545 305.450791 
L 384.218182 305.702376 
L 384.781818 304.953449 
L 385.345455 305.330644 
L 386.472727 305.561085 
L 387.036364 305.168445 
L 387.6 305.162054 
L 388.163636 305.498233 
L 388.727273 305.386779 
L 389.290909 305.785237 
L 389.854545 305.826461 
L 390.981818 305.033252 
L 391.545455 304.44489 
L 392.672727 306.017318 
L 393.8 305.508338 
L 394.363636 305.328804 
L 394.927273 306.42385 
L 395.490909 306.601892 
L 396.054545 306.144326 
L 396.618182 306.485616 
L 397.181818 297.442884 
L 397.745455 304.896278 
L 398.309091 305.013627 
L 400 305.046551 
L 400.563636 305.147225 
L 401.127273 305.129246 
L 401.690909 305.265809 
L 402.254545 305.107211 
L 402.818182 305.256867 
L 403.945455 305.174718 
L 404.509091 305.18099 
L 405.072727 305.366181 
L 405.636364 306.156777 
L 406.2 305.460475 
L 406.763636 305.236715 
L 407.327273 305.599492 
L 407.890909 305.633482 
L 408.454545 306.082966 
L 409.018182 304.886784 
L 409.581818 306.359463 
L 410.145455 305.57628 
L 410.709091 305.910686 
L 411.272727 305.907403 
L 411.836364 306.619632 
L 412.4 306.066954 
L 413.527273 305.97314 
L 414.090909 306.189739 
L 414.654545 304.84496 
L 415.218182 305.94825 
L 415.781818 305.11305 
L 416.909091 305.464779 
L 417.472727 304.624625 
L 418.036364 306.194953 
L 418.6 306.008159 
L 419.163636 306.070165 
L 419.727273 305.415451 
L 420.290909 305.258055 
L 420.854545 305.909292 
L 421.981818 304.776409 
L 422.545455 306.50117 
L 423.109091 306.414259 
L 423.672727 306.517925 
L 424.236364 305.626506 
L 424.8 305.144608 
L 425.363636 306.320727 
L 425.927273 305.421335 
L 426.490909 306.265405 
L 427.054545 306.005827 
L 427.618182 305.431133 
L 428.181818 306.16291 
L 428.745455 304.123606 
L 429.872727 306.220285 
L 430.436364 304.891509 
L 431 306.415827 
L 431.563636 306.544767 
L 432.690909 306.367284 
L 433.254545 306.95381 
L 434.381818 305.726016 
L 434.945455 306.642062 
L 435.509091 307.177453 
L 436.072727 306.76933 
L 436.636364 306.780415 
L 437.2 305.223239 
L 437.763636 306.894321 
L 438.327273 306.133886 
L 438.890909 305.775557 
L 439.454545 303.686553 
L 440.018182 305.285892 
L 440.581818 304.23087 
L 441.145455 306.325517 
L 441.709091 306.846942 
L 442.272727 306.889331 
L 443.4 307.218452 
L 444.527273 307.448531 
L 445.090909 307.207729 
L 445.654545 307.409548 
L 446.218182 307.046204 
L 446.781818 303.648954 
L 447.345455 304.145465 
L 447.909091 304.964335 
L 448.472727 305.010139 
L 449.036364 304.863181 
L 449.6 305.046231 
L 450.163636 305.072102 
L 450.727273 304.954325 
L 452.418182 305.303235 
L 452.981818 305.051218 
L 453.545455 305.162455 
L 455.236364 305.092993 
L 455.8 305.283308 
L 456.927273 305.07482 
L 458.054545 305.245053 
L 458.618182 305.800484 
L 459.181818 303.976482 
L 459.745455 304.959133 
L 460.309091 305.072826 
L 461.436364 307.346978 
L 462 307.21187 
L 462.563636 305.389468 
L 463.127273 305.723053 
L 463.690909 305.083907 
L 464.254545 305.769257 
L 464.818182 307.12788 
L 465.381818 306.709627 
L 465.945455 306.88381 
L 466.509091 306.418681 
L 467.072727 303.138386 
L 467.636364 306.729543 
L 468.2 304.580417 
L 468.763636 306.327752 
L 469.327273 305.805271 
L 469.890909 305.80661 
L 470.454545 307.438052 
L 471.018182 305.736985 
L 471.581818 307.331016 
L 472.145455 307.195071 
L 472.709091 307.37315 
L 473.272727 306.774869 
L 474.4 307.447788 
L 474.963636 307.27151 
L 475.527273 307.267385 
L 476.090909 307.569963 
L 477.218182 304.713742 
L 477.781818 305.080466 
L 478.345455 306.157233 
L 478.909091 303.182608 
L 479.472727 307.437252 
L 480.036364 307.361562 
L 481.163636 307.578385 
L 481.727273 307.453183 
L 482.290909 303.616009 
L 482.854545 306.957645 
L 483.418182 305.442655 
L 483.981818 306.859971 
L 484.545455 307.446145 
L 485.109091 307.60331 
L 485.672727 306.5591 
L 486.236364 305.187765 
L 486.8 304.800704 
L 487.363636 304.657296 
L 487.927273 304.949927 
L 489.618182 305.210847 
L 490.181818 305.003783 
L 490.745455 305.005926 
L 491.309091 305.19805 
L 491.872727 305.127311 
L 492.436364 305.196945 
L 493 305.822565 
L 493.563636 305.73457 
L 494.127273 306.60122 
L 494.690909 307.126194 
L 495.254545 306.579004 
L 495.818182 307.201632 
L 496.381818 305.095967 
L 496.945455 306.024614 
L 497.509091 307.461739 
L 498.072727 306.251183 
L 498.636364 305.438846 
L 499.2 307.34012 
L 500.327273 307.453404 
L 501.454545 307.646796 
L 502.018182 307.539638 
L 503.145455 307.645048 
L 503.709091 307.527987 
L 504.272727 307.726388 
L 505.4 307.65083 
L 506.527273 307.767148 
L 508.218182 307.596061 
L 508.781818 307.744393 
L 509.345455 307.641215 
L 510.472727 307.711298 
L 512.163636 307.685006 
L 512.727273 307.640055 
L 513.290909 307.755283 
L 531.327273 307.78624 
L 531.890909 306.339416 
L 532.454545 304.231071 
L 533.018182 304.799639 
L 533.581818 305.023775 
L 535.272727 304.99918 
L 535.836364 304.764655 
L 536.963636 305.070136 
L 537.527273 304.693093 
L 538.090909 304.743959 
L 538.654545 305.092582 
L 539.781818 305.036381 
L 540.345455 305.093596 
L 540.909091 304.937526 
L 545.418182 305.094022 
L 546.545455 305.081375 
L 548.8 305.104584 
L 549.927273 305.096191 
L 553.309091 305.076633 
L 554.436364 305.103224 
L 555 305.168267 
L 555.563636 305.008537 
L 556.690909 305.063446 
L 557.818182 305.033862 
L 558.381818 304.923399 
L 558.945455 305.132338 
L 561.763636 305.087674 
L 562.890909 305.119646 
L 564.018182 305.14785 
L 566.272727 305.044049 
L 567.4 305.165846 
L 568.527273 305.076324 
L 569.654545 305.012208 
L 570.218182 305.18402 
L 571.345455 305.108328 
L 573.036364 305.301037 
L 573.6 305.522174 
L 574.163636 304.994418 
L 575.290909 305.217419 
L 575.854545 305.203469 
L 576.418182 304.947745 
L 576.981818 305.209661 
L 577.545455 304.721596 
L 578.109091 306.282335 
L 579.236364 307.074141 
L 579.8 306.490687 
L 580.363636 306.909571 
L 580.927273 306.713758 
L 581.490909 305.864145 
L 582.054545 307.571645 
L 582.618182 306.681 
L 583.181818 307.522713 
L 583.745455 307.410555 
L 584.309091 307.179491 
L 584.872727 306.624583 
L 586 307.672158 
L 587.127273 307.76233 
L 588.818182 307.789434 
L 589.945455 307.74675 
L 590.509091 303.942595 
L 591.072727 307.351256 
L 591.636364 307.417809 
L 592.2 307.272758 
L 592.763636 307.608565 
L 593.327273 305.60904 
L 593.890909 307.712715 
L 598.4 307.772302 
L 599.527273 307.70525 
L 600.654545 307.757907 
L 601.781818 307.779358 
L 602.345455 307.720331 
L 602.909091 305.475369 
L 603.472727 304.587612 
L 604.036364 305.017782 
L 604.6 305.13452 
L 605.163636 305.081851 
L 605.727273 306.299544 
L 606.290909 306.183351 
L 606.854545 306.97625 
L 607.418182 307.486849 
L 607.981818 304.374689 
L 608.545455 306.616929 
L 609.109091 305.448458 
L 609.672727 307.688539 
L 610.236364 306.479535 
L 610.8 301.178694 
L 611.363636 303.286496 
L 611.927273 307.079799 
L 612.490909 306.696316 
L 613.054545 306.674682 
L 613.618182 306.983239 
L 614.181818 306.073879 
L 614.745455 307.52543 
L 615.309091 306.547874 
L 615.872727 307.317946 
L 616.436364 307.672662 
L 617.563636 307.562404 
L 618.127273 307.044386 
L 618.690909 307.736038 
L 619.254545 307.395672 
L 619.818182 307.302415 
L 620.381818 307.618917 
L 620.945455 306.388221 
L 621.509091 307.256241 
L 622.072727 307.721848 
L 622.636364 307.738992 
L 622.636364 307.738992 
" clip-path="url(#p3645625d80)" style="fill: none; stroke: #ff7f0e; stroke-width: 1.5; stroke-linecap: square"/>
   </g>
   <g id="patch_3">
    <path d="M 90 320.4 
L 90 43.2 
" style="fill: none; stroke: #000000; stroke-width: 0.8; stroke-linejoin: miter; stroke-linecap: square"/>
   </g>
   <g id="patch_4">
    <path d="M 648 320.4 
L 648 43.2 
" style="fill: none; stroke: #000000; stroke-width: 0.8; stroke-linejoin: miter; stroke-linecap: square"/>
   </g>
   <g id="patch_5">
    <path d="M 90 320.4 
L 648 320.4 
" style="fill: none; stroke: #000000; stroke-width: 0.8; stroke-linejoin: miter; stroke-linecap: square"/>
   </g>
   <g id="patch_6">
    <path d="M 90 43.2 
L 648 43.2 
" style="fill: none; stroke: #000000; stroke-width: 0.8; stroke-linejoin: miter; stroke-linecap: square"/>
   </g>
   <g id="text_13">
    <!-- Training -->
    <g transform="translate(345.329063 37.2) scale(0.12 -0.12)">
     <defs>
      <path id="DejaVuSans-54" d="M -19 4666 
L 3928 4666 
L 3928 4134 
L 2272 4134 
L 2272 0 
L 1638 0 
L 1638 4134 
L -19 4134 
L -19 4666 
z
" transform="scale(0.015625)"/>
      <path id="DejaVuSans-72" d="M 2631 2963 
Q 2534 3019 2420 3045 
Q 2306 3072 2169 3072 
Q 1681 3072 1420 2755 
Q 1159 2438 1159 1844 
L 1159 0 
L 581 0 
L 581 3500 
L 1159 3500 
L 1159 2956 
Q 1341 3275 1631 3429 
Q 1922 3584 2338 3584 
Q 2397 3584 2469 3576 
Q 2541 3569 2628 3553 
L 2631 2963 
z
" transform="scale(0.015625)"/>
      <path id="DejaVuSans-61" d="M 2194 1759 
Q 1497 1759 1228 1600 
Q 959 1441 959 1056 
Q 959 750 1161 570 
Q 1363 391 1709 391 
Q 2188 391 2477 730 
Q 2766 1069 2766 1631 
L 2766 1759 
L 2194 1759 
z
M 3341 1997 
L 3341 0 
L 2766 0 
L 2766 531 
Q 2569 213 2275 61 
Q 1981 -91 1556 -91 
Q 1019 -91 701 211 
Q 384 513 384 1019 
Q 384 1609 779 1909 
Q 1175 2209 1959 2209 
L 2766 2209 
L 2766 2266 
Q 2766 2663 2505 2880 
Q 2244 3097 1772 3097 
Q 1472 3097 1187 3025 
Q 903 2953 641 2809 
L 641 3341 
Q 956 3463 1253 3523 
Q 1550 3584 1831 3584 
Q 2591 3584 2966 3190 
Q 3341 2797 3341 1997 
z
" transform="scale(0.015625)"/>
      <path id="DejaVuSans-69" d="M 603 3500 
L 1178 3500 
L 1178 0 
L 603 0 
L 603 3500 
z
M 603 4863 
L 1178 4863 
L 1178 4134 
L 603 4134 
L 603 4863 
z
" transform="scale(0.015625)"/>
      <path id="DejaVuSans-6e" d="M 3513 2113 
L 3513 0 
L 2938 0 
L 2938 2094 
Q 2938 2591 2744 2837 
Q 2550 3084 2163 3084 
Q 1697 3084 1428 2787 
Q 1159 2491 1159 1978 
L 1159 0 
L 581 0 
L 581 3500 
L 1159 3500 
L 1159 2956 
Q 1366 3272 1645 3428 
Q 1925 3584 2291 3584 
Q 2894 3584 3203 3211 
Q 3513 2838 3513 2113 
z
" transform="scale(0.015625)"/>
      <path id="DejaVuSans-67" d="M 2906 1791 
Q 2906 2416 2648 2759 
Q 2391 3103 1925 3103 
Q 1463 3103 1205 2759 
Q 947 2416 947 1791 
Q 947 1169 1205 825 
Q 1463 481 1925 481 
Q 2391 481 2648 825 
Q 2906 1169 2906 1791 
z
M 3481 434 
Q 3481 -459 3084 -895 
Q 2688 -1331 1869 -1331 
Q 1566 -1331 1297 -1286 
Q 1028 -1241 775 -1147 
L 775 -588 
Q 1028 -725 1275 -790 
Q 1522 -856 1778 -856 
Q 2344 -856 2625 -561 
Q 2906 -266 2906 331 
L 2906 616 
Q 2728 306 2450 153 
Q 2172 0 1784 0 
Q 1141 0 747 490 
Q 353 981 353 1791 
Q 353 2603 747 3093 
Q 1141 3584 1784 3584 
Q 2172 3584 2450 3431 
Q 2728 3278 2906 2969 
L 2906 3500 
L 3481 3500 
L 3481 434 
z
" transform="scale(0.015625)"/>
     </defs>
     <use xlink:href="#DejaVuSans-54"/>
     <use xlink:href="#DejaVuSans-72" x="46.333984"/>
     <use xlink:href="#DejaVuSans-61" x="87.447266"/>
     <use xlink:href="#DejaVuSans-69" x="148.726562"/>
     <use xlink:href="#DejaVuSans-6e" x="176.509766"/>
     <use xlink:href="#DejaVuSans-69" x="239.888672"/>
     <use xlink:href="#DejaVuSans-6e" x="267.671875"/>
     <use xlink:href="#DejaVuSans-67" x="331.050781"/>
    </g>
   </g>
   <g id="legend_1">
    <g id="patch_7">
     <path d="M 601.251562 80.55625 
L 641 80.55625 
Q 643 80.55625 643 78.55625 
L 643 50.2 
Q 643 48.2 641 48.2 
L 601.251562 48.2 
Q 599.251562 48.2 599.251562 50.2 
L 599.251562 78.55625 
Q 599.251562 80.55625 601.251562 80.55625 
z
" style="fill: #ffffff; opacity: 0.8; stroke: #cccccc; stroke-linejoin: miter"/>
    </g>
    <g id="line2d_15">
     <path d="M 603.251562 56.298437 
L 613.251562 56.298437 
L 623.251562 56.298437 
" style="fill: none; stroke: #1f77b4; stroke-width: 1.5; stroke-linecap: square"/>
    </g>
    <g id="text_14">
     <!-- G -->
     <g transform="translate(631.251562 59.798437) scale(0.1 -0.1)">
      <defs>
       <path id="DejaVuSans-47" d="M 3809 666 
L 3809 1919 
L 2778 1919 
L 2778 2438 
L 4434 2438 
L 4434 434 
Q 4069 175 3628 42 
Q 3188 -91 2688 -91 
Q 1594 -91 976 548 
Q 359 1188 359 2328 
Q 359 3472 976 4111 
Q 1594 4750 2688 4750 
Q 3144 4750 3555 4637 
Q 3966 4525 4313 4306 
L 4313 3634 
Q 3963 3931 3569 4081 
Q 3175 4231 2741 4231 
Q 1884 4231 1454 3753 
Q 1025 3275 1025 2328 
Q 1025 1384 1454 906 
Q 1884 428 2741 428 
Q 3075 428 3337 486 
Q 3600 544 3809 666 
z
" transform="scale(0.015625)"/>
      </defs>
      <use xlink:href="#DejaVuSans-47"/>
     </g>
    </g>
    <g id="line2d_16">
     <path d="M 603.251562 70.976562 
L 613.251562 70.976562 
L 623.251562 70.976562 
" style="fill: none; stroke: #ff7f0e; stroke-width: 1.5; stroke-linecap: square"/>
    </g>
    <g id="text_15">
     <!-- D -->
     <g transform="translate(631.251562 74.476562) scale(0.1 -0.1)">
      <defs>
       <path id="DejaVuSans-44" d="M 1259 4147 
L 1259 519 
L 2022 519 
Q 2988 519 3436 956 
Q 3884 1394 3884 2338 
Q 3884 3275 3436 3711 
Q 2988 4147 2022 4147 
L 1259 4147 
z
M 628 4666 
L 1925 4666 
Q 3281 4666 3915 4102 
Q 4550 3538 4550 2338 
Q 4550 1131 3912 565 
Q 3275 0 1925 0 
L 628 0 
L 628 4666 
z
" transform="scale(0.015625)"/>
      </defs>
      <use xlink:href="#DejaVuSans-44"/>
     </g>
    </g>
   </g>
  </g>
 </g>
 <defs>
  <clipPath id="p3645625d80">
   <rect x="90" y="43.2" width="558" height="277.2"/>
  </clipPath>
 </defs>
</svg>
