<?xml version="1.0" encoding="utf-8" standalone="no"?>
<!DOCTYPE svg PUBLIC "-//W3C//DTD SVG 1.1//EN"
  "http://www.w3.org/Graphics/SVG/1.1/DTD/svg11.dtd">
<svg xmlns:xlink="http://www.w3.org/1999/xlink" width="720pt" height="360pt" viewBox="0 0 720 360" xmlns="http://www.w3.org/2000/svg" version="1.1">
 <metadata>
  <rdf:RDF xmlns:dc="http://purl.org/dc/elements/1.1/" xmlns:cc="http://creativecommons.org/ns#" xmlns:rdf="http://www.w3.org/1999/02/22-rdf-syntax-ns#">
   <cc:Work>
    <dc:type rdf:resource="http://purl.org/dc/dcmitype/StillImage"/>
    <dc:date>2023-08-11T19:33:54.735647</dc:date>
    <dc:format>image/svg+xml</dc:format>
    <dc:creator>
     <cc:Agent>
      <dc:title>Matplotlib v3.7.2, https://matplotlib.org/</dc:title>
     </cc:Agent>
    </dc:creator>
   </cc:Work>
  </rdf:RDF>
 </metadata>
 <defs>
  <style type="text/css">*{stroke-linejoin: round; stroke-linecap: butt}</style>
 </defs>
 <g id="figure_1">
  <g id="patch_1">
   <path d="M 0 360 
L 720 360 
L 720 0 
L 0 0 
z
" style="fill: #ffffff"/>
  </g>
  <g id="axes_1">
   <g id="patch_2">
    <path d="M 90 320.4 
L 648 320.4 
L 648 43.2 
L 90 43.2 
z
" style="fill: #ffffff"/>
   </g>
   <g id="matplotlib.axis_1">
    <g id="xtick_1">
     <g id="line2d_1">
      <defs>
       <path id="mc30c76f489" d="M 0 0 
L 0 3.5 
" style="stroke: #000000; stroke-width: 0.8"/>
      </defs>
      <g>
       <use xlink:href="#mc30c76f489" x="115.363636" y="320.4" style="stroke: #000000; stroke-width: 0.8"/>
      </g>
     </g>
     <g id="text_1">
      <!-- 0 -->
      <g transform="translate(112.182386 334.998438) scale(0.1 -0.1)">
       <defs>
        <path id="DejaVuSans-30" d="M 2034 4250 
Q 1547 4250 1301 3770 
Q 1056 3291 1056 2328 
Q 1056 1369 1301 889 
Q 1547 409 2034 409 
Q 2525 409 2770 889 
Q 3016 1369 3016 2328 
Q 3016 3291 2770 3770 
Q 2525 4250 2034 4250 
z
M 2034 4750 
Q 2819 4750 3233 4129 
Q 3647 3509 3647 2328 
Q 3647 1150 3233 529 
Q 2819 -91 2034 -91 
Q 1250 -91 836 529 
Q 422 1150 422 2328 
Q 422 3509 836 4129 
Q 1250 4750 2034 4750 
z
" transform="scale(0.015625)"/>
       </defs>
       <use xlink:href="#DejaVuSans-30"/>
      </g>
     </g>
    </g>
    <g id="xtick_2">
     <g id="line2d_2">
      <g>
       <use xlink:href="#mc30c76f489" x="228.090909" y="320.4" style="stroke: #000000; stroke-width: 0.8"/>
      </g>
     </g>
     <g id="text_2">
      <!-- 200 -->
      <g transform="translate(218.547159 334.998438) scale(0.1 -0.1)">
       <defs>
        <path id="DejaVuSans-32" d="M 1228 531 
L 3431 531 
L 3431 0 
L 469 0 
L 469 531 
Q 828 903 1448 1529 
Q 2069 2156 2228 2338 
Q 2531 2678 2651 2914 
Q 2772 3150 2772 3378 
Q 2772 3750 2511 3984 
Q 2250 4219 1831 4219 
Q 1534 4219 1204 4116 
Q 875 4013 500 3803 
L 500 4441 
Q 881 4594 1212 4672 
Q 1544 4750 1819 4750 
Q 2544 4750 2975 4387 
Q 3406 4025 3406 3419 
Q 3406 3131 3298 2873 
Q 3191 2616 2906 2266 
Q 2828 2175 2409 1742 
Q 1991 1309 1228 531 
z
" transform="scale(0.015625)"/>
       </defs>
       <use xlink:href="#DejaVuSans-32"/>
       <use xlink:href="#DejaVuSans-30" x="63.623047"/>
       <use xlink:href="#DejaVuSans-30" x="127.246094"/>
      </g>
     </g>
    </g>
    <g id="xtick_3">
     <g id="line2d_3">
      <g>
       <use xlink:href="#mc30c76f489" x="340.818182" y="320.4" style="stroke: #000000; stroke-width: 0.8"/>
      </g>
     </g>
     <g id="text_3">
      <!-- 400 -->
      <g transform="translate(331.274432 334.998438) scale(0.1 -0.1)">
       <defs>
        <path id="DejaVuSans-34" d="M 2419 4116 
L 825 1625 
L 2419 1625 
L 2419 4116 
z
M 2253 4666 
L 3047 4666 
L 3047 1625 
L 3713 1625 
L 3713 1100 
L 3047 1100 
L 3047 0 
L 2419 0 
L 2419 1100 
L 313 1100 
L 313 1709 
L 2253 4666 
z
" transform="scale(0.015625)"/>
       </defs>
       <use xlink:href="#DejaVuSans-34"/>
       <use xlink:href="#DejaVuSans-30" x="63.623047"/>
       <use xlink:href="#DejaVuSans-30" x="127.246094"/>
      </g>
     </g>
    </g>
    <g id="xtick_4">
     <g id="line2d_4">
      <g>
       <use xlink:href="#mc30c76f489" x="453.545455" y="320.4" style="stroke: #000000; stroke-width: 0.8"/>
      </g>
     </g>
     <g id="text_4">
      <!-- 600 -->
      <g transform="translate(444.001705 334.998438) scale(0.1 -0.1)">
       <defs>
        <path id="DejaVuSans-36" d="M 2113 2584 
Q 1688 2584 1439 2293 
Q 1191 2003 1191 1497 
Q 1191 994 1439 701 
Q 1688 409 2113 409 
Q 2538 409 2786 701 
Q 3034 994 3034 1497 
Q 3034 2003 2786 2293 
Q 2538 2584 2113 2584 
z
M 3366 4563 
L 3366 3988 
Q 3128 4100 2886 4159 
Q 2644 4219 2406 4219 
Q 1781 4219 1451 3797 
Q 1122 3375 1075 2522 
Q 1259 2794 1537 2939 
Q 1816 3084 2150 3084 
Q 2853 3084 3261 2657 
Q 3669 2231 3669 1497 
Q 3669 778 3244 343 
Q 2819 -91 2113 -91 
Q 1303 -91 875 529 
Q 447 1150 447 2328 
Q 447 3434 972 4092 
Q 1497 4750 2381 4750 
Q 2619 4750 2861 4703 
Q 3103 4656 3366 4563 
z
" transform="scale(0.015625)"/>
       </defs>
       <use xlink:href="#DejaVuSans-36"/>
       <use xlink:href="#DejaVuSans-30" x="63.623047"/>
       <use xlink:href="#DejaVuSans-30" x="127.246094"/>
      </g>
     </g>
    </g>
    <g id="xtick_5">
     <g id="line2d_5">
      <g>
       <use xlink:href="#mc30c76f489" x="566.272727" y="320.4" style="stroke: #000000; stroke-width: 0.8"/>
      </g>
     </g>
     <g id="text_5">
      <!-- 800 -->
      <g transform="translate(556.728977 334.998438) scale(0.1 -0.1)">
       <defs>
        <path id="DejaVuSans-38" d="M 2034 2216 
Q 1584 2216 1326 1975 
Q 1069 1734 1069 1313 
Q 1069 891 1326 650 
Q 1584 409 2034 409 
Q 2484 409 2743 651 
Q 3003 894 3003 1313 
Q 3003 1734 2745 1975 
Q 2488 2216 2034 2216 
z
M 1403 2484 
Q 997 2584 770 2862 
Q 544 3141 544 3541 
Q 544 4100 942 4425 
Q 1341 4750 2034 4750 
Q 2731 4750 3128 4425 
Q 3525 4100 3525 3541 
Q 3525 3141 3298 2862 
Q 3072 2584 2669 2484 
Q 3125 2378 3379 2068 
Q 3634 1759 3634 1313 
Q 3634 634 3220 271 
Q 2806 -91 2034 -91 
Q 1263 -91 848 271 
Q 434 634 434 1313 
Q 434 1759 690 2068 
Q 947 2378 1403 2484 
z
M 1172 3481 
Q 1172 3119 1398 2916 
Q 1625 2713 2034 2713 
Q 2441 2713 2670 2916 
Q 2900 3119 2900 3481 
Q 2900 3844 2670 4047 
Q 2441 4250 2034 4250 
Q 1625 4250 1398 4047 
Q 1172 3844 1172 3481 
z
" transform="scale(0.015625)"/>
       </defs>
       <use xlink:href="#DejaVuSans-38"/>
       <use xlink:href="#DejaVuSans-30" x="63.623047"/>
       <use xlink:href="#DejaVuSans-30" x="127.246094"/>
      </g>
     </g>
    </g>
   </g>
   <g id="matplotlib.axis_2">
    <g id="ytick_1">
     <g id="line2d_6">
      <defs>
       <path id="m72db8e2b23" d="M 0 0 
L -3.5 0 
" style="stroke: #000000; stroke-width: 0.8"/>
      </defs>
      <g>
       <use xlink:href="#m72db8e2b23" x="90" y="307.846679" style="stroke: #000000; stroke-width: 0.8"/>
      </g>
     </g>
     <g id="text_6">
      <!-- 0 -->
      <g transform="translate(76.6375 311.645898) scale(0.1 -0.1)">
       <use xlink:href="#DejaVuSans-30"/>
      </g>
     </g>
    </g>
    <g id="ytick_2">
     <g id="line2d_7">
      <g>
       <use xlink:href="#m72db8e2b23" x="90" y="264.397131" style="stroke: #000000; stroke-width: 0.8"/>
      </g>
     </g>
     <g id="text_7">
      <!-- 10 -->
      <g transform="translate(70.275 268.196349) scale(0.1 -0.1)">
       <defs>
        <path id="DejaVuSans-31" d="M 794 531 
L 1825 531 
L 1825 4091 
L 703 3866 
L 703 4441 
L 1819 4666 
L 2450 4666 
L 2450 531 
L 3481 531 
L 3481 0 
L 794 0 
L 794 531 
z
" transform="scale(0.015625)"/>
       </defs>
       <use xlink:href="#DejaVuSans-31"/>
       <use xlink:href="#DejaVuSans-30" x="63.623047"/>
      </g>
     </g>
    </g>
    <g id="ytick_3">
     <g id="line2d_8">
      <g>
       <use xlink:href="#m72db8e2b23" x="90" y="220.947582" style="stroke: #000000; stroke-width: 0.8"/>
      </g>
     </g>
     <g id="text_8">
      <!-- 20 -->
      <g transform="translate(70.275 224.746801) scale(0.1 -0.1)">
       <use xlink:href="#DejaVuSans-32"/>
       <use xlink:href="#DejaVuSans-30" x="63.623047"/>
      </g>
     </g>
    </g>
    <g id="ytick_4">
     <g id="line2d_9">
      <g>
       <use xlink:href="#m72db8e2b23" x="90" y="177.498034" style="stroke: #000000; stroke-width: 0.8"/>
      </g>
     </g>
     <g id="text_9">
      <!-- 30 -->
      <g transform="translate(70.275 181.297253) scale(0.1 -0.1)">
       <defs>
        <path id="DejaVuSans-33" d="M 2597 2516 
Q 3050 2419 3304 2112 
Q 3559 1806 3559 1356 
Q 3559 666 3084 287 
Q 2609 -91 1734 -91 
Q 1441 -91 1130 -33 
Q 819 25 488 141 
L 488 750 
Q 750 597 1062 519 
Q 1375 441 1716 441 
Q 2309 441 2620 675 
Q 2931 909 2931 1356 
Q 2931 1769 2642 2001 
Q 2353 2234 1838 2234 
L 1294 2234 
L 1294 2753 
L 1863 2753 
Q 2328 2753 2575 2939 
Q 2822 3125 2822 3475 
Q 2822 3834 2567 4026 
Q 2313 4219 1838 4219 
Q 1578 4219 1281 4162 
Q 984 4106 628 3988 
L 628 4550 
Q 988 4650 1302 4700 
Q 1616 4750 1894 4750 
Q 2613 4750 3031 4423 
Q 3450 4097 3450 3541 
Q 3450 3153 3228 2886 
Q 3006 2619 2597 2516 
z
" transform="scale(0.015625)"/>
       </defs>
       <use xlink:href="#DejaVuSans-33"/>
       <use xlink:href="#DejaVuSans-30" x="63.623047"/>
      </g>
     </g>
    </g>
    <g id="ytick_5">
     <g id="line2d_10">
      <g>
       <use xlink:href="#m72db8e2b23" x="90" y="134.048486" style="stroke: #000000; stroke-width: 0.8"/>
      </g>
     </g>
     <g id="text_10">
      <!-- 40 -->
      <g transform="translate(70.275 137.847704) scale(0.1 -0.1)">
       <use xlink:href="#DejaVuSans-34"/>
       <use xlink:href="#DejaVuSans-30" x="63.623047"/>
      </g>
     </g>
    </g>
    <g id="ytick_6">
     <g id="line2d_11">
      <g>
       <use xlink:href="#m72db8e2b23" x="90" y="90.598937" style="stroke: #000000; stroke-width: 0.8"/>
      </g>
     </g>
     <g id="text_11">
      <!-- 50 -->
      <g transform="translate(70.275 94.398156) scale(0.1 -0.1)">
       <defs>
        <path id="DejaVuSans-35" d="M 691 4666 
L 3169 4666 
L 3169 4134 
L 1269 4134 
L 1269 2991 
Q 1406 3038 1543 3061 
Q 1681 3084 1819 3084 
Q 2600 3084 3056 2656 
Q 3513 2228 3513 1497 
Q 3513 744 3044 326 
Q 2575 -91 1722 -91 
Q 1428 -91 1123 -41 
Q 819 9 494 109 
L 494 744 
Q 775 591 1075 516 
Q 1375 441 1709 441 
Q 2250 441 2565 725 
Q 2881 1009 2881 1497 
Q 2881 1984 2565 2268 
Q 2250 2553 1709 2553 
Q 1456 2553 1204 2497 
Q 953 2441 691 2322 
L 691 4666 
z
" transform="scale(0.015625)"/>
       </defs>
       <use xlink:href="#DejaVuSans-35"/>
       <use xlink:href="#DejaVuSans-30" x="63.623047"/>
      </g>
     </g>
    </g>
    <g id="ytick_7">
     <g id="line2d_12">
      <g>
       <use xlink:href="#m72db8e2b23" x="90" y="47.149389" style="stroke: #000000; stroke-width: 0.8"/>
      </g>
     </g>
     <g id="text_12">
      <!-- 60 -->
      <g transform="translate(70.275 50.948608) scale(0.1 -0.1)">
       <use xlink:href="#DejaVuSans-36"/>
       <use xlink:href="#DejaVuSans-30" x="63.623047"/>
      </g>
     </g>
    </g>
   </g>
   <g id="line2d_13">
    <path d="M 115.363636 55.8 
L 115.927273 140.031368 
L 116.490909 184.715448 
L 117.054545 194.650051 
L 117.618182 180.319294 
L 118.181818 223.27747 
L 118.745455 199.203316 
L 119.309091 238.469961 
L 119.872727 220.67207 
L 120.436364 227.532689 
L 121 226.917163 
L 121.563636 233.10151 
L 122.127273 225.288427 
L 122.690909 215.733832 
L 123.254545 224.675594 
L 123.818182 240.748727 
L 124.381818 241.570538 
L 124.945455 245.288932 
L 125.509091 252.241048 
L 126.072727 240.126174 
L 126.636364 240.868077 
L 127.2 256.015245 
L 127.763636 233.68387 
L 128.327273 247.718135 
L 128.890909 243.411082 
L 129.454545 228.518477 
L 130.018182 243.505757 
L 130.581818 242.247464 
L 131.145455 261.673483 
L 131.709091 250.260132 
L 132.272727 225.447237 
L 132.836364 255.943075 
L 133.4 225.170382 
L 134.527273 229.964287 
L 135.090909 247.714318 
L 135.654545 251.655149 
L 136.218182 248.020855 
L 136.781818 263.02284 
L 137.345455 251.026239 
L 137.909091 254.100653 
L 138.472727 247.636127 
L 139.036364 252.825289 
L 139.6 249.691368 
L 140.163636 244.5627 
L 140.727273 254.711853 
L 141.290909 248.379303 
L 141.854545 253.401342 
L 142.418182 244.550376 
L 142.981818 258.745162 
L 143.545455 256.380352 
L 144.109091 226.573843 
L 144.672727 232.944507 
L 145.236364 249.840586 
L 145.8 249.253489 
L 146.363636 257.675809 
L 146.927273 260.853744 
L 147.490909 256.289461 
L 148.054545 253.980275 
L 148.618182 240.552711 
L 149.181818 256.068848 
L 149.745455 262.774912 
L 150.309091 252.597652 
L 150.872727 249.050686 
L 151.436364 246.674099 
L 152 252.310115 
L 152.563636 241.730061 
L 153.127273 262.16612 
L 153.690909 245.738404 
L 154.254545 263.800459 
L 154.818182 255.975354 
L 155.381818 244.222968 
L 155.945455 253.040507 
L 156.509091 243.509946 
L 157.072727 256.049961 
L 157.636364 253.924659 
L 158.2 258.739465 
L 158.763636 256.342947 
L 159.327273 248.896819 
L 159.890909 261.786564 
L 160.454545 249.375396 
L 161.018182 252.916458 
L 161.581818 247.865057 
L 162.145455 237.030159 
L 162.709091 260.075422 
L 163.272727 246.709938 
L 163.836364 258.430537 
L 164.4 264.011554 
L 165.527273 256.917952 
L 166.090909 241.594078 
L 166.654545 260.827192 
L 167.218182 255.374683 
L 167.781818 256.238523 
L 168.345455 253.147874 
L 168.909091 264.786499 
L 169.472727 258.348178 
L 170.036364 258.421707 
L 170.6 241.198241 
L 171.163636 263.260099 
L 171.727273 258.404503 
L 172.290909 259.97679 
L 172.854545 258.000329 
L 173.418182 251.278398 
L 173.981818 259.801736 
L 174.545455 265.918869 
L 175.109091 246.579383 
L 175.672727 255.183892 
L 176.236364 261.027787 
L 176.8 251.002086 
L 177.363636 261.813758 
L 177.927273 260.151616 
L 178.490909 254.465296 
L 179.054545 252.920208 
L 179.618182 250.366587 
L 180.181818 258.89704 
L 180.745455 261.825647 
L 181.309091 260.38202 
L 181.872727 253.141115 
L 182.436364 265.485909 
L 183 245.01886 
L 183.563636 263.109667 
L 184.127273 259.082093 
L 184.690909 257.185062 
L 185.254545 257.236037 
L 185.818182 255.340659 
L 186.381818 254.546537 
L 186.945455 255.65702 
L 187.509091 261.094641 
L 188.072727 268.157629 
L 188.636364 266.872042 
L 189.2 255.048477 
L 189.763636 253.678007 
L 190.327273 265.854572 
L 190.890909 247.276776 
L 191.454545 264.288745 
L 192.018182 261.339151 
L 192.581818 269.956683 
L 193.709091 259.255464 
L 194.272727 259.674749 
L 194.836364 257.804785 
L 195.4 266.478302 
L 195.963636 256.475723 
L 196.527273 262.232104 
L 197.090909 261.11809 
L 197.654545 262.89466 
L 198.218182 257.029931 
L 198.781818 239.062812 
L 199.345455 262.641246 
L 199.909091 251.487529 
L 200.472727 265.505339 
L 201.036364 252.901259 
L 201.6 251.95939 
L 202.163636 262.597679 
L 202.727273 262.199717 
L 203.290909 263.470813 
L 203.854545 270.311945 
L 204.418182 262.722789 
L 204.981818 268.787011 
L 205.545455 262.223095 
L 206.109091 270.136825 
L 206.672727 262.046637 
L 207.236364 265.333194 
L 207.8 272.032256 
L 208.363636 262.591559 
L 208.927273 268.83577 
L 209.490909 260.236884 
L 210.054545 261.192063 
L 210.618182 256.848372 
L 211.181818 261.292534 
L 211.745455 267.382505 
L 212.309091 261.466569 
L 212.872727 261.91793 
L 213.436364 257.61457 
L 214 265.135661 
L 214.563636 262.517781 
L 215.127273 268.597463 
L 215.690909 266.558677 
L 216.254545 260.3317 
L 216.818182 265.032907 
L 217.381818 265.72635 
L 217.945455 271.66175 
L 218.509091 270.655024 
L 219.072727 255.435947 
L 219.636364 264.382354 
L 220.2 262.873312 
L 220.763636 265.018657 
L 221.327273 257.039217 
L 221.890909 261.258979 
L 222.454545 274.452828 
L 223.018182 262.429359 
L 223.581818 270.08316 
L 224.145455 269.730496 
L 224.709091 266.418281 
L 225.272727 269.02567 
L 225.836364 260.452082 
L 226.4 266.356822 
L 226.963636 266.544067 
L 227.527273 265.525374 
L 228.090909 267.710021 
L 228.654545 271.179625 
L 229.218182 265.355023 
L 229.781818 273.678272 
L 230.909091 262.679285 
L 231.472727 273.416767 
L 232.036364 267.691122 
L 232.6 272.027209 
L 233.163636 271.465878 
L 233.727273 268.909034 
L 234.290909 269.265605 
L 234.854545 273.144975 
L 235.418182 269.104114 
L 235.981818 270.165781 
L 236.545455 270.072933 
L 237.109091 270.869119 
L 237.672727 268.161072 
L 238.236364 263.070716 
L 238.8 273.91074 
L 239.363636 266.864981 
L 239.927273 271.34001 
L 240.490909 274.557708 
L 241.054545 268.668697 
L 241.618182 271.350133 
L 242.181818 271.654395 
L 242.745455 270.435704 
L 243.309091 273.00599 
L 243.872727 271.920303 
L 244.436364 268.119167 
L 245 267.653294 
L 245.563636 270.56884 
L 246.127273 264.358226 
L 246.690909 275.297035 
L 247.254545 276.021166 
L 247.818182 267.298381 
L 248.381818 269.955742 
L 248.945455 271.488689 
L 249.509091 274.046193 
L 250.072727 264.019162 
L 250.636364 273.270166 
L 251.2 276.031954 
L 251.763636 265.689496 
L 252.327273 270.304242 
L 252.890909 273.884405 
L 253.454545 268.301924 
L 254.018182 275.773445 
L 254.581818 274.737179 
L 255.145455 274.371197 
L 255.709091 274.780996 
L 256.272727 271.659172 
L 256.836364 272.789981 
L 257.4 262.886186 
L 257.963636 276.944231 
L 258.527273 278.848594 
L 259.090909 268.562192 
L 259.654545 270.595587 
L 260.218182 263.327313 
L 260.781818 271.718311 
L 261.345455 274.968155 
L 261.909091 270.803351 
L 262.472727 271.634679 
L 263.036364 277.055362 
L 263.6 279.164846 
L 264.163636 270.281741 
L 264.727273 270.153408 
L 265.290909 272.386155 
L 265.854545 273.175193 
L 266.418182 272.731041 
L 266.981818 261.57055 
L 267.545455 276.16999 
L 268.672727 279.626018 
L 269.236364 272.410176 
L 269.8 273.964216 
L 270.363636 272.736241 
L 270.927273 276.56401 
L 271.490909 276.065147 
L 272.054545 273.538292 
L 272.618182 267.048206 
L 273.181818 268.074312 
L 273.745455 280.828205 
L 274.309091 276.666937 
L 274.872727 279.335163 
L 275.436364 276.609978 
L 276 276.386404 
L 276.563636 273.943939 
L 277.127273 276.510026 
L 277.690909 270.080143 
L 278.254545 277.192914 
L 278.818182 271.468738 
L 279.381818 278.450124 
L 279.945455 275.189363 
L 280.509091 278.034692 
L 281.072727 274.299015 
L 281.636364 277.773958 
L 282.2 276.523325 
L 282.763636 276.382163 
L 283.327273 280.700714 
L 283.890909 276.948058 
L 284.454545 271.574451 
L 285.018182 274.991188 
L 285.581818 276.320874 
L 286.709091 273.851962 
L 287.272727 276.673138 
L 287.836364 273.119349 
L 288.4 277.327028 
L 288.963636 275.124308 
L 289.527273 271.595435 
L 290.090909 274.704655 
L 290.654545 263.899231 
L 291.218182 282.426928 
L 291.781818 277.573564 
L 292.345455 276.380661 
L 292.909091 277.607322 
L 293.472727 279.608712 
L 294.036364 277.385503 
L 294.6 271.677786 
L 295.163636 276.711883 
L 295.727273 273.601916 
L 296.290909 277.041199 
L 296.854545 274.096785 
L 297.418182 275.0097 
L 297.981818 281.052862 
L 298.545455 276.099303 
L 299.672727 282.377093 
L 300.236364 276.27969 
L 300.8 268.443841 
L 301.363636 275.980919 
L 301.927273 276.092696 
L 302.490909 272.14779 
L 303.054545 273.997144 
L 303.618182 276.861113 
L 304.181818 276.777423 
L 304.745455 273.080808 
L 305.309091 274.620182 
L 305.872727 266.517684 
L 306.436364 278.746981 
L 307 272.485723 
L 307.563636 280.837818 
L 308.127273 277.572327 
L 308.690909 277.854053 
L 309.254545 276.848956 
L 309.818182 276.532555 
L 310.381818 281.038125 
L 310.945455 276.587747 
L 311.509091 280.693869 
L 312.072727 278.932725 
L 312.636364 275.305678 
L 313.2 281.441799 
L 313.763636 276.994854 
L 314.327273 280.35374 
L 314.890909 278.396849 
L 315.454545 279.345878 
L 316.018182 278.262352 
L 316.581818 281.702724 
L 317.145455 279.41942 
L 317.709091 280.835779 
L 318.272727 277.612212 
L 318.836364 278.015685 
L 319.4 281.139925 
L 319.963636 281.204266 
L 320.527273 274.078047 
L 321.090909 280.578215 
L 321.654545 278.533159 
L 322.218182 281.481208 
L 323.345455 276.923853 
L 323.909091 282.36069 
L 324.472727 279.054359 
L 325.036364 287.107771 
L 325.6 277.521051 
L 326.163636 281.285473 
L 326.727273 282.6505 
L 327.290909 282.562634 
L 327.854545 280.620615 
L 328.418182 279.748714 
L 328.981818 280.622347 
L 329.545455 282.667864 
L 330.109091 282.482721 
L 330.672727 284.526175 
L 332.363636 279.792989 
L 332.927273 283.841706 
L 333.490909 280.171317 
L 334.054545 279.239254 
L 334.618182 283.434678 
L 335.181818 279.418459 
L 335.745455 279.163824 
L 336.309091 281.090472 
L 336.872727 278.560798 
L 337.436364 273.839268 
L 338 279.100859 
L 338.563636 282.900631 
L 339.127273 279.64719 
L 339.690909 278.969675 
L 340.254545 284.722069 
L 340.818182 282.10817 
L 341.381818 280.570837 
L 341.945455 273.220425 
L 342.509091 275.742662 
L 343.072727 277.620636 
L 343.636364 280.562311 
L 344.2 277.565442 
L 344.763636 285.170692 
L 345.327273 277.582678 
L 345.890909 280.736354 
L 346.454545 278.610342 
L 347.018182 275.675762 
L 347.581818 275.463505 
L 348.145455 279.991423 
L 348.709091 283.289278 
L 349.272727 283.430648 
L 349.836364 279.020613 
L 350.4 282.309766 
L 350.963636 284.561477 
L 352.090909 277.715787 
L 352.654545 253.815444 
L 353.218182 270.554789 
L 353.781818 272.041277 
L 354.345455 264.92322 
L 354.909091 274.199782 
L 355.472727 276.012444 
L 356.036364 278.337027 
L 356.6 276.176956 
L 357.163636 280.185158 
L 357.727273 278.997868 
L 358.290909 281.70397 
L 358.854545 278.442347 
L 359.418182 281.632056 
L 359.981818 275.707672 
L 360.545455 277.538786 
L 361.109091 281.707488 
L 361.672727 281.465006 
L 362.236364 276.919924 
L 362.8 281.140385 
L 363.363636 282.936364 
L 363.927273 282.180374 
L 364.490909 277.97193 
L 365.054545 279.151573 
L 365.618182 281.345753 
L 366.181818 279.611973 
L 366.745455 278.343135 
L 367.309091 279.406633 
L 367.872727 279.363185 
L 368.436364 283.050655 
L 369 275.153875 
L 369.563636 280.546159 
L 370.127273 283.071564 
L 370.690909 280.820924 
L 371.254545 283.003626 
L 371.818182 284.6744 
L 372.381818 283.476991 
L 372.945455 279.007088 
L 373.509091 280.830828 
L 374.072727 283.236341 
L 374.636364 276.683064 
L 375.2 279.849198 
L 375.763636 274.076499 
L 377.454545 282.340587 
L 378.018182 282.067156 
L 378.581818 281.376137 
L 379.145455 283.382329 
L 379.709091 280.051927 
L 380.272727 284.954929 
L 380.836364 283.941561 
L 381.4 277.515898 
L 382.527273 284.568129 
L 383.090909 284.938567 
L 383.654545 281.582686 
L 384.218182 283.857838 
L 384.781818 282.708642 
L 385.345455 274.668852 
L 385.909091 283.518125 
L 386.472727 283.533299 
L 387.6 271.196511 
L 388.163636 283.20044 
L 388.727273 280.28856 
L 389.290909 285.795562 
L 389.854545 279.134549 
L 390.418182 284.143094 
L 390.981818 286.623302 
L 391.545455 281.353001 
L 392.109091 285.515882 
L 392.672727 279.383795 
L 393.236364 285.953166 
L 393.8 283.976328 
L 394.363636 279.282835 
L 394.927273 284.936427 
L 395.490909 284.022373 
L 396.054545 285.906886 
L 396.618182 278.812994 
L 397.181818 283.726863 
L 397.745455 283.934738 
L 398.309091 281.526877 
L 398.872727 279.90849 
L 399.436364 282.733021 
L 400 284.234578 
L 400.563636 284.550915 
L 401.127273 285.58514 
L 401.690909 268.749387 
L 402.254545 269.753485 
L 402.818182 274.328076 
L 403.381818 280.916003 
L 403.945455 284.1252 
L 404.509091 283.655796 
L 405.072727 283.534609 
L 405.636364 281.150781 
L 406.2 286.997338 
L 406.763636 283.949519 
L 407.890909 288.173706 
L 408.454545 285.333571 
L 409.018182 285.323073 
L 409.581818 283.60941 
L 410.145455 286.69258 
L 410.709091 283.692756 
L 411.272727 285.281935 
L 411.836364 285.470766 
L 412.4 285.041602 
L 412.963636 287.647248 
L 414.090909 281.342652 
L 414.654545 286.722236 
L 415.218182 284.613256 
L 415.781818 284.605377 
L 416.345455 285.626643 
L 417.472727 285.314919 
L 418.036364 282.170939 
L 418.6 284.134405 
L 419.163636 282.338687 
L 420.290909 269.462977 
L 420.854545 275.788574 
L 421.418182 277.935712 
L 421.981818 281.872588 
L 422.545455 283.628577 
L 423.109091 283.006674 
L 423.672727 285.014562 
L 424.236364 283.45677 
L 425.363636 282.670897 
L 425.927273 282.13989 
L 426.490909 284.017641 
L 427.054545 284.732954 
L 427.618182 279.45155 
L 428.181818 285.34543 
L 429.309091 277.961314 
L 429.872727 281.508792 
L 430.436364 280.91426 
L 431 283.112714 
L 431.563636 277.983557 
L 432.127273 287.578111 
L 432.690909 280.025648 
L 433.254545 279.682131 
L 433.818182 281.22984 
L 434.381818 286.60798 
L 434.945455 282.241829 
L 435.509091 284.36689 
L 436.072727 283.58842 
L 436.636364 281.376195 
L 437.2 283.178899 
L 437.763636 279.197077 
L 438.327273 274.263464 
L 438.890909 284.009666 
L 439.454545 278.433945 
L 440.018182 276.986468 
L 440.581818 286.073443 
L 441.145455 281.991315 
L 441.709091 283.230117 
L 442.272727 280.2696 
L 442.836364 283.171364 
L 443.4 284.32611 
L 443.963636 284.60842 
L 444.527273 287.516944 
L 445.090909 282.354458 
L 445.654545 284.198928 
L 446.218182 282.937868 
L 446.781818 286.044752 
L 447.345455 283.633452 
L 447.909091 287.533414 
L 448.472727 284.675637 
L 449.036364 283.954551 
L 449.6 281.857366 
L 450.163636 280.996061 
L 450.727273 284.314514 
L 451.290909 284.050943 
L 451.854545 283.044895 
L 452.418182 284.755264 
L 452.981818 285.044527 
L 453.545455 287.280761 
L 454.109091 285.217383 
L 454.672727 282.114603 
L 455.236364 286.578832 
L 455.8 282.777042 
L 456.363636 277.766176 
L 456.927273 277.448296 
L 457.490909 279.866941 
L 458.054545 284.375329 
L 458.618182 283.146608 
L 459.181818 284.899652 
L 459.745455 284.057573 
L 460.309091 283.630039 
L 461.436364 280.757412 
L 462 281.639131 
L 462.563636 283.632327 
L 463.127273 280.5982 
L 463.690909 283.753863 
L 464.254545 285.344649 
L 464.818182 280.483434 
L 465.381818 282.474083 
L 465.945455 284.047332 
L 466.509091 283.320294 
L 467.072727 283.160435 
L 467.636364 281.184492 
L 468.2 282.940396 
L 468.763636 272.605032 
L 469.327273 271.886992 
L 469.890909 277.51861 
L 470.454545 277.252257 
L 471.018182 282.520138 
L 471.581818 280.90019 
L 472.145455 283.08865 
L 472.709091 280.485782 
L 473.272727 282.374244 
L 473.836364 286.742287 
L 474.4 279.587477 
L 474.963636 280.923671 
L 475.527273 273.68433 
L 476.090909 278.355562 
L 476.654545 272.067556 
L 477.218182 279.040838 
L 477.781818 279.195571 
L 478.345455 279.861857 
L 478.909091 277.301126 
L 479.472727 278.143752 
L 480.036364 281.823573 
L 480.6 286.547269 
L 481.163636 286.436532 
L 481.727273 285.81096 
L 482.290909 281.711975 
L 482.854545 283.906387 
L 483.418182 281.494963 
L 483.981818 277.831228 
L 484.545455 279.375899 
L 485.109091 279.163901 
L 485.672727 278.146149 
L 486.236364 278.773654 
L 486.8 275.412241 
L 487.363636 276.926807 
L 487.927273 276.725926 
L 488.490909 275.246283 
L 489.054545 274.308949 
L 489.618182 279.585178 
L 490.181818 282.912627 
L 490.745455 277.376418 
L 491.309091 273.832986 
L 491.872727 274.823098 
L 492.436364 276.588362 
L 493 273.865147 
L 493.563636 275.861767 
L 494.127273 276.689242 
L 494.690909 262.442126 
L 495.254545 266.030247 
L 495.818182 275.596291 
L 496.381818 274.863702 
L 496.945455 272.221071 
L 497.509091 270.137015 
L 498.072727 271.747172 
L 498.636364 268.569212 
L 499.2 267.084012 
L 499.763636 272.446333 
L 500.327273 260.684276 
L 500.890909 272.175822 
L 501.454545 273.464763 
L 502.018182 270.071189 
L 502.581818 273.994902 
L 503.145455 269.488514 
L 503.709091 269.289116 
L 504.272727 271.954608 
L 504.836364 275.45696 
L 505.4 275.084609 
L 505.963636 271.0347 
L 506.527273 276.992111 
L 507.090909 273.12527 
L 507.654545 272.83087 
L 508.218182 271.895838 
L 508.781818 268.79897 
L 509.345455 263.991159 
L 509.909091 270.829933 
L 510.472727 267.482583 
L 511.036364 281.422703 
L 511.6 276.558335 
L 512.163636 274.77506 
L 512.727273 276.841781 
L 513.290909 272.2039 
L 513.854545 275.006489 
L 514.981818 278.411385 
L 515.545455 267.854461 
L 516.109091 271.725811 
L 516.672727 266.550555 
L 517.236364 275.333201 
L 517.8 279.089234 
L 518.363636 272.582689 
L 518.927273 278.805991 
L 519.490909 275.144684 
L 520.054545 272.717035 
L 520.618182 269.263641 
L 521.181818 269.498388 
L 521.745455 281.349686 
L 522.309091 285.147143 
L 522.872727 272.408336 
L 523.436364 272.298106 
L 524.563636 274.886484 
L 525.127273 266.092133 
L 525.690909 282.024597 
L 526.254545 285.87413 
L 526.818182 273.183089 
L 527.945455 273.692236 
L 528.509091 262.179599 
L 529.072727 270.181154 
L 529.636364 275.826113 
L 530.2 275.667781 
L 530.763636 272.562555 
L 531.327273 271.08019 
L 531.890909 270.050773 
L 532.454545 269.406929 
L 533.018182 268.991021 
L 533.581818 268.065134 
L 534.145455 272.359503 
L 534.709091 269.370121 
L 535.272727 269.872898 
L 535.836364 271.579349 
L 536.4 270.252611 
L 536.963636 269.36725 
L 537.527273 264.409189 
L 538.090909 267.245586 
L 538.654545 264.3951 
L 539.218182 265.67518 
L 539.781818 250.185132 
L 540.345455 269.136957 
L 540.909091 259.320677 
L 541.472727 267.910078 
L 542.036364 268.023233 
L 542.6 264.05556 
L 543.163636 266.335619 
L 543.727273 262.570053 
L 544.290909 267.291742 
L 544.854545 265.768798 
L 545.418182 267.160678 
L 545.981818 265.271901 
L 546.545455 268.51466 
L 547.109091 265.626803 
L 547.672727 268.995496 
L 548.236364 265.166764 
L 548.8 265.664609 
L 549.363636 265.055784 
L 549.927273 263.753842 
L 550.490909 268.461866 
L 551.054545 262.578622 
L 551.618182 267.135833 
L 552.181818 253.716535 
L 552.745455 262.145348 
L 553.309091 282.370417 
L 553.872727 274.575735 
L 554.436364 273.012525 
L 555 265.877047 
L 555.563636 266.725667 
L 556.127273 263.813776 
L 556.690909 268.44186 
L 557.254545 267.043955 
L 557.818182 258.665459 
L 558.945455 263.120167 
L 559.509091 257.682634 
L 560.072727 261.20589 
L 560.636364 271.592157 
L 561.2 278.093725 
L 561.763636 268.715027 
L 562.327273 253.967989 
L 563.454545 270.762735 
L 564.018182 276.235125 
L 564.581818 277.338943 
L 565.709091 270.16765 
L 566.272727 269.665743 
L 566.836364 281.986678 
L 567.4 267.121379 
L 567.963636 278.200375 
L 568.527273 268.104739 
L 569.090909 269.211725 
L 569.654545 273.16322 
L 570.781818 257.772377 
L 571.345455 261.468653 
L 571.909091 268.525521 
L 572.472727 278.851433 
L 573.036364 284.183535 
L 573.6 284.638499 
L 574.163636 286.837882 
L 574.727273 288.335964 
L 575.290909 277.533561 
L 575.854545 286.94582 
L 576.418182 287.070199 
L 577.545455 285.1242 
L 578.109091 287.052992 
L 578.672727 290.248768 
L 579.236364 287.790711 
L 579.8 286.704497 
L 580.363636 287.375189 
L 580.927273 289.414794 
L 581.490909 289.64392 
L 582.054545 284.581261 
L 582.618182 284.01369 
L 583.181818 288.567529 
L 583.745455 281.658909 
L 584.309091 286.318953 
L 584.872727 285.87501 
L 585.436364 285.931404 
L 586 289.485984 
L 586.563636 288.04691 
L 587.127273 287.240649 
L 587.690909 288.075468 
L 588.254545 286.827373 
L 588.818182 288.647222 
L 589.381818 284.694397 
L 589.945455 287.73572 
L 590.509091 287.551298 
L 591.072727 287.167716 
L 591.636364 285.659506 
L 592.2 288.351439 
L 592.763636 290.498723 
L 593.890909 286.782607 
L 594.454545 285.425014 
L 595.018182 288.056838 
L 595.581818 289.064676 
L 596.145455 289.57999 
L 596.709091 287.481178 
L 597.272727 287.672115 
L 597.836364 286.479321 
L 598.4 288.878843 
L 598.963636 288.275972 
L 599.527273 289.564861 
L 600.090909 289.059385 
L 600.654545 289.630379 
L 601.218182 285.38869 
L 601.781818 289.30173 
L 602.345455 287.720587 
L 602.909091 288.597825 
L 603.472727 288.783872 
L 604.036364 289.663845 
L 604.6 288.964441 
L 605.163636 290.341742 
L 605.727273 287.854032 
L 606.290909 288.265774 
L 606.854545 286.67257 
L 607.418182 290.965067 
L 607.981818 288.009461 
L 608.545455 288.262188 
L 609.109091 288.134234 
L 609.672727 287.147426 
L 610.236364 289.946999 
L 610.8 287.336131 
L 611.363636 289.33963 
L 611.927273 281.734152 
L 612.490909 289.806447 
L 613.054545 284.767751 
L 613.618182 290.770606 
L 614.181818 288.059274 
L 614.745455 287.905354 
L 615.309091 289.677635 
L 616.436364 289.859124 
L 617 286.03021 
L 617.563636 289.58404 
L 618.127273 287.72417 
L 618.690909 289.704424 
L 619.254545 289.386194 
L 619.818182 289.678785 
L 620.381818 286.462084 
L 620.945455 289.335217 
L 621.509091 286.555696 
L 622.072727 291.536671 
L 622.636364 290.383947 
L 622.636364 290.383947 
" clip-path="url(#pe27038d9fc)" style="fill: none; stroke: #1f77b4; stroke-width: 1.5; stroke-linecap: square"/>
   </g>
   <g id="line2d_14">
    <path d="M 115.363636 304.699304 
L 118.181818 305.220172 
L 118.745455 305.256111 
L 119.309091 305.640217 
L 119.872727 305.379494 
L 120.436364 305.681244 
L 121 305.241971 
L 121.563636 305.544198 
L 122.127273 305.483189 
L 122.690909 304.891173 
L 123.254545 305.9375 
L 123.818182 305.382634 
L 124.381818 305.295491 
L 124.945455 305.376221 
L 125.509091 304.941929 
L 126.072727 305.388336 
L 126.636364 305.658519 
L 127.2 305.210169 
L 127.763636 305.830701 
L 128.327273 305.363015 
L 128.890909 305.635568 
L 129.454545 306.13199 
L 130.018182 305.309228 
L 130.581818 305.692324 
L 131.145455 305.036224 
L 131.709091 305.376014 
L 132.272727 305.927397 
L 132.836364 305.403135 
L 133.4 305.683595 
L 133.963636 305.103768 
L 134.527273 306.097249 
L 135.090909 305.269336 
L 135.654545 305.861526 
L 136.218182 305.541819 
L 136.781818 304.888643 
L 137.345455 304.829358 
L 137.909091 305.821384 
L 139.6 305.549597 
L 140.163636 305.737731 
L 140.727273 305.780833 
L 141.290909 304.807244 
L 141.854545 305.712067 
L 142.418182 305.9476 
L 142.981818 304.271926 
L 143.545455 306.143323 
L 144.109091 306.419762 
L 145.236364 305.516395 
L 145.8 306.009749 
L 146.363636 305.487232 
L 146.927273 303.492528 
L 148.054545 305.960733 
L 148.618182 305.098452 
L 149.181818 305.476602 
L 149.745455 304.9199 
L 150.309091 306.296824 
L 150.872727 306.555165 
L 151.436364 305.66861 
L 152 306.235974 
L 152.563636 306.310021 
L 153.127273 305.252111 
L 154.818182 305.689798 
L 155.381818 305.625054 
L 155.945455 305.057853 
L 156.509091 305.477897 
L 157.072727 305.535351 
L 157.636364 304.728181 
L 158.2 305.237739 
L 159.327273 305.688615 
L 159.890909 305.178311 
L 160.454545 305.351847 
L 161.018182 305.058411 
L 161.581818 306.3695 
L 162.709091 304.176281 
L 163.272727 305.681654 
L 163.836364 305.544269 
L 164.4 304.257071 
L 164.963636 305.821164 
L 165.527273 305.644827 
L 166.090909 305.69041 
L 166.654545 304.991394 
L 167.218182 305.21023 
L 168.909091 304.877575 
L 169.472727 304.466561 
L 170.036364 305.739233 
L 170.6 305.755737 
L 171.163636 305.363892 
L 171.727273 305.830019 
L 172.290909 304.92945 
L 172.854545 305.347657 
L 173.418182 306.033196 
L 173.981818 305.38923 
L 174.545455 305.328192 
L 175.109091 305.569904 
L 175.672727 305.12694 
L 176.236364 305.156016 
L 176.8 305.89331 
L 177.363636 305.51176 
L 177.927273 305.39569 
L 178.490909 304.557066 
L 179.054545 305.717628 
L 179.618182 305.416023 
L 180.181818 304.176064 
L 180.745455 305.367364 
L 181.872727 305.296058 
L 182.436364 305.300062 
L 183 306.352708 
L 183.563636 305.263292 
L 184.127273 305.450976 
L 184.690909 304.880761 
L 185.254545 305.821939 
L 185.818182 305.909251 
L 186.381818 305.771526 
L 186.945455 305.063269 
L 188.072727 305.301401 
L 188.636364 304.909278 
L 189.2 305.903944 
L 189.763636 305.455928 
L 190.327273 305.554543 
L 190.890909 305.839446 
L 191.454545 305.4391 
L 192.018182 305.330568 
L 193.145455 304.731519 
L 194.272727 305.258151 
L 194.836364 305.584846 
L 195.4 305.462396 
L 195.963636 305.66923 
L 197.090909 305.378786 
L 197.654545 304.93654 
L 198.218182 304.843439 
L 198.781818 305.551861 
L 199.345455 305.3823 
L 199.909091 305.728715 
L 200.472727 304.52078 
L 201.036364 305.94922 
L 201.6 305.999975 
L 202.163636 305.620456 
L 202.727273 305.671607 
L 203.854545 304.884058 
L 204.418182 304.92413 
L 204.981818 305.692317 
L 205.545455 305.225136 
L 206.109091 305.262107 
L 206.672727 304.490478 
L 207.236364 305.707264 
L 207.8 304.795802 
L 208.363636 304.308284 
L 209.490909 305.383865 
L 210.054545 304.844028 
L 210.618182 305.858393 
L 211.181818 305.338337 
L 211.745455 305.348315 
L 212.309091 305.734062 
L 212.872727 305.918193 
L 213.436364 304.660172 
L 214 304.86232 
L 214.563636 304.849454 
L 215.127273 305.019521 
L 215.690909 304.391352 
L 216.254545 306.132988 
L 216.818182 305.109456 
L 217.945455 304.741925 
L 218.509091 304.935281 
L 219.072727 304.295839 
L 219.636364 305.720525 
L 220.2 305.363675 
L 220.763636 305.479098 
L 221.890909 306.017171 
L 222.454545 304.759668 
L 223.018182 304.80879 
L 223.581818 305.377071 
L 224.145455 305.139506 
L 224.709091 305.603748 
L 225.272727 305.560668 
L 225.836364 304.993875 
L 226.4 305.306342 
L 226.963636 305.076573 
L 227.527273 305.639367 
L 228.654545 304.592158 
L 229.218182 305.993413 
L 229.781818 305.277434 
L 230.345455 306.012711 
L 231.472727 304.670462 
L 232.036364 305.538725 
L 233.163636 305.16043 
L 234.290909 305.188695 
L 234.854545 304.96758 
L 235.418182 305.426583 
L 235.981818 305.401575 
L 236.545455 305.119754 
L 237.672727 305.336095 
L 238.236364 305.567124 
L 238.8 305.371042 
L 239.363636 305.638102 
L 239.927273 304.874441 
L 240.490909 304.795239 
L 241.054545 305.663021 
L 241.618182 305.560885 
L 242.181818 305.010382 
L 242.745455 305.056845 
L 243.309091 304.760125 
L 243.872727 305.224081 
L 244.436364 305.039999 
L 245 305.623381 
L 245.563636 305.451159 
L 246.127273 305.398677 
L 246.690909 305.469357 
L 247.254545 305.026 
L 247.818182 305.310069 
L 248.381818 304.385541 
L 248.945455 305.031624 
L 249.509091 305.335637 
L 250.072727 305.14712 
L 250.636364 305.397648 
L 251.2 305.208048 
L 251.763636 305.864305 
L 252.327273 305.582442 
L 253.454545 305.282213 
L 254.018182 304.915169 
L 254.581818 305.210384 
L 255.709091 304.84916 
L 256.272727 305.697587 
L 256.836364 305.471957 
L 257.4 305.581731 
L 257.963636 305.01726 
L 258.527273 304.68995 
L 259.090909 305.546954 
L 259.654545 305.367697 
L 260.218182 305.574357 
L 260.781818 304.705411 
L 261.345455 305.288179 
L 261.909091 305.052441 
L 262.472727 305.507737 
L 263.036364 305.51062 
L 263.6 304.793843 
L 264.163636 305.492782 
L 264.727273 305.333777 
L 265.290909 305.875966 
L 265.854545 304.94183 
L 266.418182 305.651754 
L 267.545455 304.386829 
L 268.109091 305.180379 
L 269.236364 305.278871 
L 269.8 305.108227 
L 270.363636 305.271275 
L 270.927273 305.148038 
L 271.490909 305.569206 
L 272.054545 304.951413 
L 272.618182 305.373362 
L 273.181818 305.499676 
L 273.745455 305.260788 
L 274.309091 305.222454 
L 274.872727 305.016163 
L 275.436364 305.020115 
L 276 305.485955 
L 276.563636 305.538338 
L 277.127273 304.932637 
L 278.254545 305.48301 
L 278.818182 304.644653 
L 279.381818 305.308377 
L 279.945455 305.288241 
L 280.509091 304.693838 
L 281.072727 305.09773 
L 281.636364 304.670096 
L 282.2 305.217407 
L 282.763636 304.791306 
L 283.327273 304.880479 
L 283.890909 305.352956 
L 284.454545 304.875977 
L 285.018182 305.509061 
L 285.581818 305.507037 
L 286.145455 305.22716 
L 287.272727 305.228078 
L 287.836364 305.439168 
L 288.4 304.753937 
L 289.527273 305.186806 
L 290.090909 305.048642 
L 290.654545 305.611304 
L 291.218182 304.906499 
L 291.781818 305.113895 
L 292.345455 304.949063 
L 292.909091 305.383964 
L 294.036364 304.88373 
L 295.163636 304.968762 
L 295.727273 305.622916 
L 296.290909 305.321794 
L 296.854545 305.250967 
L 297.418182 305.690829 
L 297.981818 304.884507 
L 298.545455 304.920893 
L 299.109091 305.147443 
L 299.672727 304.93334 
L 300.236364 305.486847 
L 300.8 304.973805 
L 301.363636 305.084507 
L 301.927273 305.46437 
L 303.054545 305.18063 
L 303.618182 305.585327 
L 304.181818 304.893505 
L 304.745455 305.561249 
L 305.309091 305.489698 
L 305.872727 305.685266 
L 306.436364 304.664266 
L 307 305.123796 
L 307.563636 305.245518 
L 308.127273 305.03528 
L 308.690909 305.256397 
L 309.254545 305.626741 
L 309.818182 305.439067 
L 310.381818 305.053085 
L 312.072727 305.088769 
L 312.636364 305.389205 
L 313.2 305.131084 
L 314.327273 305.240443 
L 314.890909 304.630423 
L 315.454545 304.815882 
L 316.018182 305.610625 
L 316.581818 304.918747 
L 317.145455 305.046452 
L 318.272727 305.014457 
L 318.836364 305.289887 
L 319.4 305.143232 
L 319.963636 304.688153 
L 320.527273 304.732279 
L 321.090909 305.191316 
L 322.218182 305.135081 
L 322.781818 305.312389 
L 323.345455 305.329594 
L 323.909091 305.200214 
L 324.472727 303.169459 
L 325.036364 304.349425 
L 325.6 304.925234 
L 326.163636 304.98658 
L 326.727273 304.903739 
L 327.854545 305.348071 
L 328.418182 305.22968 
L 328.981818 305.301971 
L 329.545455 305.007237 
L 330.109091 305.300026 
L 331.8 305.084411 
L 332.363636 304.68203 
L 332.927273 304.764274 
L 333.490909 305.440738 
L 334.054545 305.324157 
L 334.618182 305.030191 
L 335.181818 305.124447 
L 335.745455 305.548026 
L 336.309091 305.101355 
L 338 305.262136 
L 338.563636 305.193548 
L 339.127273 304.956727 
L 339.690909 305.269462 
L 340.254545 305.10578 
L 341.381818 305.283881 
L 341.945455 305.061376 
L 343.072727 305.002112 
L 343.636364 305.443457 
L 344.763636 304.801363 
L 345.327273 305.460496 
L 345.890909 305.015324 
L 346.454545 305.375956 
L 347.018182 305.172866 
L 347.581818 305.356884 
L 348.145455 305.28088 
L 348.709091 304.866894 
L 349.272727 305.241488 
L 350.4 305.230396 
L 350.963636 305.382554 
L 351.527273 304.90552 
L 352.090909 304.820239 
L 352.654545 305.441412 
L 354.345455 305.047463 
L 356.036364 305.646427 
L 356.6 305.249083 
L 357.163636 305.625949 
L 357.727273 305.16776 
L 358.290909 305.385828 
L 358.854545 305.466352 
L 359.418182 305.242035 
L 359.981818 305.159797 
L 360.545455 305.268646 
L 361.672727 305.000496 
L 362.236364 305.542208 
L 362.8 304.86584 
L 363.363636 304.979409 
L 363.927273 305.547852 
L 364.490909 304.834776 
L 365.054545 305.225688 
L 365.618182 304.710073 
L 366.181818 305.133534 
L 366.745455 304.939992 
L 367.309091 305.056466 
L 367.872727 304.837569 
L 368.436364 305.25001 
L 369 305.146603 
L 369.563636 305.194567 
L 370.127273 305.950395 
L 370.690909 305.450552 
L 371.254545 304.654507 
L 371.818182 305.04044 
L 372.945455 304.970215 
L 373.509091 305.212621 
L 374.072727 304.910874 
L 374.636364 305.479757 
L 375.2 305.305861 
L 375.763636 305.365126 
L 376.327273 304.751031 
L 376.890909 305.472475 
L 377.454545 305.327669 
L 378.018182 304.864726 
L 378.581818 304.989364 
L 379.145455 305.240204 
L 379.709091 305.101813 
L 380.272727 305.274938 
L 381.4 305.268945 
L 382.527273 305.379027 
L 383.090909 305.057253 
L 383.654545 304.90017 
L 384.218182 305.084456 
L 384.781818 304.771639 
L 386.472727 305.612967 
L 387.036364 305.323055 
L 387.6 305.552711 
L 389.290909 303.999859 
L 390.418182 304.928374 
L 391.545455 304.998922 
L 392.672727 305.122556 
L 393.8 305.218888 
L 394.363636 305.82649 
L 394.927273 305.090275 
L 395.490909 305.382821 
L 396.618182 305.24495 
L 397.181818 305.001918 
L 397.745455 305.68522 
L 398.872727 304.907955 
L 399.436364 305.735769 
L 400 305.285948 
L 400.563636 305.307291 
L 401.127273 305.119657 
L 401.690909 305.828128 
L 402.254545 305.544684 
L 402.818182 304.674988 
L 403.381818 298.185132 
L 403.945455 304.51784 
L 405.072727 304.725009 
L 405.636364 304.850687 
L 407.327273 304.805245 
L 407.890909 304.848024 
L 408.454545 305.019549 
L 409.018182 304.960065 
L 409.581818 305.141272 
L 410.145455 304.997141 
L 411.272727 305.217365 
L 411.836364 305.051376 
L 412.963636 305.104623 
L 413.527273 304.983717 
L 414.090909 305.423775 
L 414.654545 305.114624 
L 415.218182 305.581624 
L 416.345455 304.935364 
L 416.909091 305.482933 
L 417.472727 305.226071 
L 418.6 305.294332 
L 419.163636 305.472534 
L 419.727273 305.905216 
L 420.290909 305.474893 
L 420.854545 305.969001 
L 421.418182 305.639347 
L 422.545455 305.64391 
L 423.109091 305.109762 
L 423.672727 304.976289 
L 424.236364 305.27492 
L 424.8 305.052913 
L 425.363636 305.566628 
L 425.927273 304.675842 
L 426.490909 305.473728 
L 427.054545 305.487865 
L 427.618182 304.95825 
L 428.181818 305.579615 
L 428.745455 304.852636 
L 429.872727 304.853871 
L 430.436364 305.149935 
L 431 304.670138 
L 431.563636 305.396461 
L 432.127273 304.968685 
L 432.690909 305.573993 
L 433.254545 304.859893 
L 433.818182 306.268229 
L 434.381818 305.565208 
L 434.945455 305.192011 
L 435.509091 305.388243 
L 436.072727 305.059472 
L 437.763636 305.478727 
L 438.327273 306.044272 
L 438.890909 306.001042 
L 439.454545 305.347391 
L 440.018182 305.009208 
L 440.581818 305.263066 
L 441.709091 304.889241 
L 442.272727 305.466759 
L 442.836364 305.374678 
L 443.4 305.597796 
L 443.963636 303.634794 
L 444.527273 305.195351 
L 445.090909 305.414222 
L 445.654545 305.137166 
L 446.218182 305.576387 
L 446.781818 305.488167 
L 447.345455 305.560129 
L 447.909091 304.650598 
L 448.472727 305.993353 
L 449.036364 305.775821 
L 449.6 306.085651 
L 450.163636 306.071757 
L 450.727273 306.174487 
L 451.290909 304.982835 
L 451.854545 304.820917 
L 452.418182 305.658093 
L 452.981818 303.352019 
L 453.545455 304.5884 
L 454.109091 305.092163 
L 454.672727 305.777008 
L 455.236364 305.252902 
L 455.8 306.215325 
L 456.363636 306.337497 
L 456.927273 305.919721 
L 457.490909 305.777938 
L 458.054545 305.269119 
L 458.618182 306.386163 
L 459.745455 304.880456 
L 460.309091 305.905237 
L 460.872727 306.177854 
L 461.436364 305.58493 
L 462 306.269647 
L 462.563636 305.366234 
L 463.127273 305.963018 
L 463.690909 305.834823 
L 464.254545 304.431695 
L 464.818182 305.704756 
L 465.381818 306.077948 
L 465.945455 303.330222 
L 466.509091 306.1624 
L 467.636364 305.08734 
L 468.763636 307.011202 
L 469.327273 306.843218 
L 469.890909 305.987142 
L 470.454545 306.858525 
L 471.018182 305.807574 
L 471.581818 306.378386 
L 472.145455 306.250844 
L 472.709091 305.091907 
L 473.272727 305.867108 
L 473.836364 306.010528 
L 474.4 304.028106 
L 474.963636 303.56207 
L 475.527273 304.989732 
L 476.090909 307.189472 
L 476.654545 305.639 
L 477.218182 305.007724 
L 477.781818 306.315493 
L 478.345455 306.543271 
L 478.909091 307.300635 
L 479.472727 307.014711 
L 480.036364 300.160476 
L 480.6 303.793104 
L 481.163636 304.682801 
L 481.727273 305.001587 
L 482.290909 306.301359 
L 482.854545 306.638419 
L 483.418182 305.044428 
L 484.545455 306.991089 
L 485.109091 306.987787 
L 485.672727 307.458898 
L 486.236364 306.933627 
L 486.8 307.518572 
L 487.363636 307.111784 
L 488.490909 307.503328 
L 489.054545 307.403328 
L 489.618182 301.984103 
L 490.181818 306.009518 
L 490.745455 306.942953 
L 491.309091 306.922072 
L 491.872727 305.675183 
L 492.436364 304.846418 
L 493 305.743354 
L 493.563636 307.338918 
L 494.127273 306.821132 
L 494.690909 306.965548 
L 495.254545 306.469164 
L 495.818182 307.07349 
L 496.381818 306.669482 
L 496.945455 306.852632 
L 497.509091 305.551588 
L 498.072727 307.503093 
L 498.636364 307.517476 
L 499.2 307.403716 
L 499.763636 307.588702 
L 500.327273 307.478458 
L 500.890909 307.489487 
L 501.454545 307.661059 
L 503.145455 307.639027 
L 504.272727 307.656259 
L 504.836364 307.58745 
L 505.4 307.233656 
L 505.963636 307.105841 
L 506.527273 307.527473 
L 507.090909 307.670808 
L 508.218182 307.698949 
L 509.345455 307.787065 
L 509.909091 307.591862 
L 510.472727 296.744473 
L 511.036364 305.427738 
L 511.6 306.726547 
L 512.163636 307.208931 
L 512.727273 306.365913 
L 513.290909 307.281776 
L 513.854545 303.656241 
L 514.418182 305.994517 
L 514.981818 305.275162 
L 515.545455 306.310121 
L 516.109091 303.802232 
L 516.672727 306.874979 
L 517.236364 306.925458 
L 517.8 306.774019 
L 518.363636 306.955565 
L 518.927273 306.298459 
L 519.490909 305.348862 
L 520.054545 307.199054 
L 520.618182 307.62432 
L 521.181818 307.458896 
L 521.745455 305.627884 
L 522.309091 305.542357 
L 522.872727 306.760177 
L 523.436364 307.609001 
L 524 306.606661 
L 524.563636 303.250847 
L 525.127273 307.2435 
L 525.690909 304.755161 
L 526.254545 304.434227 
L 526.818182 307.440244 
L 527.381818 307.186062 
L 527.945455 307.641292 
L 528.509091 307.689376 
L 529.072727 307.001489 
L 529.636364 307.527891 
L 530.2 306.045031 
L 530.763636 306.043288 
L 531.327273 307.54682 
L 532.454545 307.671457 
L 533.018182 307.620808 
L 533.581818 307.749485 
L 534.145455 307.60514 
L 535.272727 307.69747 
L 551.618182 307.75606 
L 552.181818 307.179828 
L 552.745455 303.96927 
L 553.309091 305.442804 
L 553.872727 305.306909 
L 554.436364 307.537313 
L 555 307.719951 
L 555.563636 307.630785 
L 556.690909 307.769482 
L 560.072727 307.704821 
L 560.636364 304.488314 
L 561.2 304.58281 
L 561.763636 305.6807 
L 562.327273 303.566793 
L 563.454545 307.590019 
L 564.018182 303.124445 
L 564.581818 305.944239 
L 565.145455 307.538343 
L 565.709091 307.503883 
L 566.836364 306.709344 
L 567.4 307.287221 
L 567.963636 303.755795 
L 568.527273 305.308545 
L 569.090909 307.257263 
L 569.654545 307.583384 
L 570.781818 307.735386 
L 571.345455 307.606923 
L 571.909091 301.495392 
L 572.472727 304.22373 
L 573.036364 304.571737 
L 573.6 304.77024 
L 574.727273 304.803796 
L 575.290909 304.489857 
L 575.854545 304.633524 
L 576.418182 304.631894 
L 576.981818 304.766082 
L 578.109091 304.475098 
L 578.672727 304.790332 
L 579.236364 304.829408 
L 579.8 304.625219 
L 580.363636 305.028404 
L 580.927273 304.83023 
L 581.490909 304.885969 
L 582.054545 304.658378 
L 582.618182 304.963129 
L 583.181818 304.82902 
L 583.745455 305.094881 
L 584.309091 304.801105 
L 584.872727 305.008491 
L 586.563636 304.804451 
L 587.127273 304.580451 
L 587.690909 304.897542 
L 588.254545 304.95662 
L 589.381818 304.897208 
L 589.945455 304.963607 
L 591.072727 304.893221 
L 591.636364 305.103817 
L 592.763636 304.796449 
L 593.327273 304.869248 
L 593.890909 305.059533 
L 594.454545 305.073862 
L 595.581818 304.85669 
L 596.145455 305.018069 
L 596.709091 304.829706 
L 597.272727 305.117406 
L 597.836364 304.890619 
L 598.963636 304.875329 
L 599.527273 305.031528 
L 600.090909 304.87375 
L 600.654545 304.859892 
L 601.218182 304.994991 
L 601.781818 304.794343 
L 602.345455 304.936546 
L 603.472727 304.615871 
L 604.036364 305.057829 
L 604.6 304.814958 
L 605.727273 305.054219 
L 606.290909 304.823009 
L 606.854545 304.937836 
L 607.418182 304.750896 
L 607.981818 305.126601 
L 608.545455 304.927221 
L 610.236364 304.992945 
L 610.8 305.156544 
L 611.363636 304.985723 
L 612.490909 304.885381 
L 613.054545 305.06272 
L 613.618182 304.882417 
L 614.181818 305.160772 
L 614.745455 304.882746 
L 615.309091 304.832177 
L 617 305.053077 
L 618.127273 304.753472 
L 619.818182 304.981862 
L 620.945455 304.905975 
L 621.509091 305.103878 
L 622.072727 304.813602 
L 622.636364 304.917931 
L 622.636364 304.917931 
" clip-path="url(#pe27038d9fc)" style="fill: none; stroke: #ff7f0e; stroke-width: 1.5; stroke-linecap: square"/>
   </g>
   <g id="patch_3">
    <path d="M 90 320.4 
L 90 43.2 
" style="fill: none; stroke: #000000; stroke-width: 0.8; stroke-linejoin: miter; stroke-linecap: square"/>
   </g>
   <g id="patch_4">
    <path d="M 648 320.4 
L 648 43.2 
" style="fill: none; stroke: #000000; stroke-width: 0.8; stroke-linejoin: miter; stroke-linecap: square"/>
   </g>
   <g id="patch_5">
    <path d="M 90 320.4 
L 648 320.4 
" style="fill: none; stroke: #000000; stroke-width: 0.8; stroke-linejoin: miter; stroke-linecap: square"/>
   </g>
   <g id="patch_6">
    <path d="M 90 43.2 
L 648 43.2 
" style="fill: none; stroke: #000000; stroke-width: 0.8; stroke-linejoin: miter; stroke-linecap: square"/>
   </g>
   <g id="text_13">
    <!-- Training -->
    <g transform="translate(345.329063 37.2) scale(0.12 -0.12)">
     <defs>
      <path id="DejaVuSans-54" d="M -19 4666 
L 3928 4666 
L 3928 4134 
L 2272 4134 
L 2272 0 
L 1638 0 
L 1638 4134 
L -19 4134 
L -19 4666 
z
" transform="scale(0.015625)"/>
      <path id="DejaVuSans-72" d="M 2631 2963 
Q 2534 3019 2420 3045 
Q 2306 3072 2169 3072 
Q 1681 3072 1420 2755 
Q 1159 2438 1159 1844 
L 1159 0 
L 581 0 
L 581 3500 
L 1159 3500 
L 1159 2956 
Q 1341 3275 1631 3429 
Q 1922 3584 2338 3584 
Q 2397 3584 2469 3576 
Q 2541 3569 2628 3553 
L 2631 2963 
z
" transform="scale(0.015625)"/>
      <path id="DejaVuSans-61" d="M 2194 1759 
Q 1497 1759 1228 1600 
Q 959 1441 959 1056 
Q 959 750 1161 570 
Q 1363 391 1709 391 
Q 2188 391 2477 730 
Q 2766 1069 2766 1631 
L 2766 1759 
L 2194 1759 
z
M 3341 1997 
L 3341 0 
L 2766 0 
L 2766 531 
Q 2569 213 2275 61 
Q 1981 -91 1556 -91 
Q 1019 -91 701 211 
Q 384 513 384 1019 
Q 384 1609 779 1909 
Q 1175 2209 1959 2209 
L 2766 2209 
L 2766 2266 
Q 2766 2663 2505 2880 
Q 2244 3097 1772 3097 
Q 1472 3097 1187 3025 
Q 903 2953 641 2809 
L 641 3341 
Q 956 3463 1253 3523 
Q 1550 3584 1831 3584 
Q 2591 3584 2966 3190 
Q 3341 2797 3341 1997 
z
" transform="scale(0.015625)"/>
      <path id="DejaVuSans-69" d="M 603 3500 
L 1178 3500 
L 1178 0 
L 603 0 
L 603 3500 
z
M 603 4863 
L 1178 4863 
L 1178 4134 
L 603 4134 
L 603 4863 
z
" transform="scale(0.015625)"/>
      <path id="DejaVuSans-6e" d="M 3513 2113 
L 3513 0 
L 2938 0 
L 2938 2094 
Q 2938 2591 2744 2837 
Q 2550 3084 2163 3084 
Q 1697 3084 1428 2787 
Q 1159 2491 1159 1978 
L 1159 0 
L 581 0 
L 581 3500 
L 1159 3500 
L 1159 2956 
Q 1366 3272 1645 3428 
Q 1925 3584 2291 3584 
Q 2894 3584 3203 3211 
Q 3513 2838 3513 2113 
z
" transform="scale(0.015625)"/>
      <path id="DejaVuSans-67" d="M 2906 1791 
Q 2906 2416 2648 2759 
Q 2391 3103 1925 3103 
Q 1463 3103 1205 2759 
Q 947 2416 947 1791 
Q 947 1169 1205 825 
Q 1463 481 1925 481 
Q 2391 481 2648 825 
Q 2906 1169 2906 1791 
z
M 3481 434 
Q 3481 -459 3084 -895 
Q 2688 -1331 1869 -1331 
Q 1566 -1331 1297 -1286 
Q 1028 -1241 775 -1147 
L 775 -588 
Q 1028 -725 1275 -790 
Q 1522 -856 1778 -856 
Q 2344 -856 2625 -561 
Q 2906 -266 2906 331 
L 2906 616 
Q 2728 306 2450 153 
Q 2172 0 1784 0 
Q 1141 0 747 490 
Q 353 981 353 1791 
Q 353 2603 747 3093 
Q 1141 3584 1784 3584 
Q 2172 3584 2450 3431 
Q 2728 3278 2906 2969 
L 2906 3500 
L 3481 3500 
L 3481 434 
z
" transform="scale(0.015625)"/>
     </defs>
     <use xlink:href="#DejaVuSans-54"/>
     <use xlink:href="#DejaVuSans-72" x="46.333984"/>
     <use xlink:href="#DejaVuSans-61" x="87.447266"/>
     <use xlink:href="#DejaVuSans-69" x="148.726562"/>
     <use xlink:href="#DejaVuSans-6e" x="176.509766"/>
     <use xlink:href="#DejaVuSans-69" x="239.888672"/>
     <use xlink:href="#DejaVuSans-6e" x="267.671875"/>
     <use xlink:href="#DejaVuSans-67" x="331.050781"/>
    </g>
   </g>
   <g id="legend_1">
    <g id="patch_7">
     <path d="M 601.251562 80.55625 
L 641 80.55625 
Q 643 80.55625 643 78.55625 
L 643 50.2 
Q 643 48.2 641 48.2 
L 601.251562 48.2 
Q 599.251562 48.2 599.251562 50.2 
L 599.251562 78.55625 
Q 599.251562 80.55625 601.251562 80.55625 
z
" style="fill: #ffffff; opacity: 0.8; stroke: #cccccc; stroke-linejoin: miter"/>
    </g>
    <g id="line2d_15">
     <path d="M 603.251562 56.298437 
L 613.251562 56.298437 
L 623.251562 56.298437 
" style="fill: none; stroke: #1f77b4; stroke-width: 1.5; stroke-linecap: square"/>
    </g>
    <g id="text_14">
     <!-- G -->
     <g transform="translate(631.251562 59.798437) scale(0.1 -0.1)">
      <defs>
       <path id="DejaVuSans-47" d="M 3809 666 
L 3809 1919 
L 2778 1919 
L 2778 2438 
L 4434 2438 
L 4434 434 
Q 4069 175 3628 42 
Q 3188 -91 2688 -91 
Q 1594 -91 976 548 
Q 359 1188 359 2328 
Q 359 3472 976 4111 
Q 1594 4750 2688 4750 
Q 3144 4750 3555 4637 
Q 3966 4525 4313 4306 
L 4313 3634 
Q 3963 3931 3569 4081 
Q 3175 4231 2741 4231 
Q 1884 4231 1454 3753 
Q 1025 3275 1025 2328 
Q 1025 1384 1454 906 
Q 1884 428 2741 428 
Q 3075 428 3337 486 
Q 3600 544 3809 666 
z
" transform="scale(0.015625)"/>
      </defs>
      <use xlink:href="#DejaVuSans-47"/>
     </g>
    </g>
    <g id="line2d_16">
     <path d="M 603.251562 70.976562 
L 613.251562 70.976562 
L 623.251562 70.976562 
" style="fill: none; stroke: #ff7f0e; stroke-width: 1.5; stroke-linecap: square"/>
    </g>
    <g id="text_15">
     <!-- D -->
     <g transform="translate(631.251562 74.476562) scale(0.1 -0.1)">
      <defs>
       <path id="DejaVuSans-44" d="M 1259 4147 
L 1259 519 
L 2022 519 
Q 2988 519 3436 956 
Q 3884 1394 3884 2338 
Q 3884 3275 3436 3711 
Q 2988 4147 2022 4147 
L 1259 4147 
z
M 628 4666 
L 1925 4666 
Q 3281 4666 3915 4102 
Q 4550 3538 4550 2338 
Q 4550 1131 3912 565 
Q 3275 0 1925 0 
L 628 0 
L 628 4666 
z
" transform="scale(0.015625)"/>
      </defs>
      <use xlink:href="#DejaVuSans-44"/>
     </g>
    </g>
   </g>
  </g>
 </g>
 <defs>
  <clipPath id="pe27038d9fc">
   <rect x="90" y="43.2" width="558" height="277.2"/>
  </clipPath>
 </defs>
</svg>
